%FSLAX45Y45*%
G04 Gerber Fmt 4.5, Leading zero omitted, Abs format (unit mm)*
G04 Created by KiCad (PCBNEW (5.1.10)-1) date 2021-11-24 21:39:01*
%MOMM*%
%LPD*%
G01*
G04 APERTURE LIST*
%TA.AperFunction,Profile*%
%ADD10C,0.050000*%
%TD*%
%ADD11C,0.200000*%
%ADD12C,0.300000*%
G04 APERTURE END LIST*
D10*
X5500661Y-7060137D02*
X5500000Y-5780000D01*
X5500000Y-14500000D02*
X5500662Y-12939863D01*
X12950000Y-14500000D02*
X12948298Y-13770458D01*
X12980000Y-5780000D02*
X12980963Y-6110268D01*
X12950000Y-14500000D02*
X14500000Y-14500000D01*
X12450000Y-14500000D02*
X12447729Y-13700558D01*
X12447729Y-13700558D02*
G75*
G02*
X12198377Y-12474939I15052271J3700558D01*
G01*
X12948298Y-13770458D02*
G75*
G02*
X12669991Y-12519001I14001702J3770458D01*
G01*
X12980000Y-5780000D02*
X14500000Y-5780000D01*
X12980963Y-6110268D02*
G75*
G03*
X12669991Y-7480998I13969037J-3889732D01*
G01*
X12447729Y-6299442D02*
G75*
G03*
X12198377Y-7525061I15052271J-3700558D01*
G01*
X12450000Y-5780000D02*
X12447729Y-6299442D01*
X14500000Y-14500000D02*
X14497729Y-13700558D01*
X14500000Y-5780000D02*
X14497729Y-6299442D01*
X15000000Y-5000000D02*
X15000000Y-15000000D01*
X5000000Y-5000000D02*
X15000000Y-5000000D01*
X5000000Y-15000000D02*
X5000000Y-5000000D01*
X15000000Y-15000000D02*
X5000000Y-15000000D01*
X5500000Y-14500000D02*
X12450000Y-14500000D01*
X5500000Y-5780000D02*
X12450000Y-5780000D01*
X14700000Y-9500000D02*
X14176489Y-8020063D01*
X14700000Y-10500000D02*
X14700000Y-9500000D01*
X14176489Y-11979937D02*
X14700000Y-10500000D01*
X14497729Y-6299442D02*
G75*
G03*
X14248377Y-7525061I15052271J-3700558D01*
G01*
X14497730Y-13700558D02*
G75*
G02*
X14248377Y-12474939I15052270J3700558D01*
G01*
X14176489Y-11979937D02*
X13891607Y-12024982D01*
X13793223Y-8874999D02*
G75*
G02*
X13891617Y-7974946I14456777J-1125001D01*
G01*
X13969991Y-7480998D02*
X14248377Y-7525061D01*
X13891607Y-12024982D02*
G75*
G02*
X13793223Y-11125001I14358393J2024982D01*
G01*
X13891617Y-7974946D02*
X14176489Y-8020063D01*
X14242963Y-13750590D02*
G75*
G02*
X13969992Y-12519001I14007037J3750590D01*
G01*
X14248377Y-12474939D02*
X13969991Y-12519001D01*
X13969991Y-7480998D02*
G75*
G02*
X14242963Y-6249410I14280009J-2519002D01*
G01*
X5626489Y-11979937D02*
X5341607Y-12024982D01*
X5501533Y-9749993D02*
G75*
G02*
X5626489Y-8020063I15498467J-250008D01*
G01*
X5201672Y-9749994D02*
G75*
G02*
X5341617Y-7974946I14498328J-250006D01*
G01*
X5419991Y-7480998D02*
X5698377Y-7525061D01*
X5341607Y-12024982D02*
G75*
G02*
X5201672Y-10250000I14358393J2024982D01*
G01*
X5626489Y-11979937D02*
G75*
G02*
X5501533Y-10250000I15373511J1979937D01*
G01*
X6027037Y-14009409D02*
G75*
G02*
X5698377Y-12474939I14972963J4009409D01*
G01*
X5341617Y-7974946D02*
X5626489Y-8020063D01*
X5501533Y-9749993D02*
X5201672Y-9749994D01*
X5500662Y-12939863D02*
G75*
G02*
X5419992Y-12519001I14199339J2939863D01*
G01*
X5698377Y-12474939D02*
X5419992Y-12519001D01*
X5201672Y-10250000D02*
X5501533Y-10250000D01*
X5698377Y-7525061D02*
G75*
G02*
X6027037Y-5990590I15301623J-2474939D01*
G01*
X5500661Y-7060137D02*
G75*
G03*
X5419991Y-7480998I14199339J-2939863D01*
G01*
X12591607Y-12024982D02*
X12126489Y-11979937D01*
X12591617Y-7974946D02*
X12126489Y-8020063D01*
X12023825Y-10250036D02*
G75*
G03*
X12793368Y-11165123I1226175J250036D01*
G01*
X12876489Y-11979937D02*
X12591607Y-12024982D01*
X12793368Y-8834877D02*
G75*
G02*
X12876489Y-8020063I15456632J-1165123D01*
G01*
X12669991Y-7480998D02*
X12948377Y-7525061D01*
X12876489Y-11979937D02*
G75*
G02*
X12793368Y-11165123I15373511J1979937D01*
G01*
X13277037Y-14009409D02*
G75*
G02*
X12948377Y-12474939I14972963J4009409D01*
G01*
X12591617Y-7974946D02*
X12876489Y-8020063D01*
X12948377Y-12474939D02*
X12669991Y-12519001D01*
X12948377Y-7525061D02*
G75*
G02*
X13277037Y-5990590I15301623J-2474939D01*
G01*
X12126489Y-11979937D02*
X11841607Y-12024982D01*
X11701672Y-9749994D02*
G75*
G02*
X11841617Y-7974946I14498328J-250006D01*
G01*
X11919991Y-7480998D02*
X12198377Y-7525061D01*
X11841607Y-12024982D02*
G75*
G02*
X11701672Y-10250000I14358393J2024982D01*
G01*
X11841617Y-7974946D02*
X12126489Y-8020063D01*
X12023811Y-9750030D02*
X11701672Y-9749994D01*
X12192963Y-13750590D02*
G75*
G02*
X11919992Y-12519001I14007037J3750590D01*
G01*
X12198377Y-12474939D02*
X11919991Y-12519001D01*
X11701672Y-10250000D02*
X12023825Y-10250036D01*
X11919991Y-7480998D02*
G75*
G02*
X12192963Y-6249410I14280009J-2519002D01*
G01*
X10826489Y-11979937D02*
X10541607Y-12024982D01*
X10701533Y-9749993D02*
G75*
G02*
X10826489Y-8020063I15498467J-250008D01*
G01*
X10401672Y-9749994D02*
G75*
G02*
X10541617Y-7974946I14498328J-250006D01*
G01*
X10619991Y-7480998D02*
X10898377Y-7525061D01*
X10541607Y-12024982D02*
G75*
G02*
X10401672Y-10250000I14358393J2024982D01*
G01*
X10826489Y-11979937D02*
G75*
G02*
X10701533Y-10250000I15373511J1979937D01*
G01*
X11227037Y-14009409D02*
G75*
G02*
X10898377Y-12474939I14972963J4009409D01*
G01*
X10541617Y-7974946D02*
X10826489Y-8020063D01*
X10701533Y-9749993D02*
X10401672Y-9749994D01*
X10892963Y-13750590D02*
G75*
G02*
X10619992Y-12519001I14007037J3750590D01*
G01*
X10898377Y-12474939D02*
X10619992Y-12519001D01*
X10401672Y-10250000D02*
X10701533Y-10250000D01*
X10898377Y-7525061D02*
G75*
G02*
X11227037Y-5990590I15301623J-2474939D01*
G01*
X10619991Y-7480998D02*
G75*
G02*
X10892963Y-6249410I14280009J-2519002D01*
G01*
X9526489Y-11979937D02*
X9241607Y-12024982D01*
X9401533Y-9749993D02*
G75*
G02*
X9526489Y-8020063I15498467J-250008D01*
G01*
X9101672Y-9749994D02*
G75*
G02*
X9241617Y-7974946I14498328J-250006D01*
G01*
X9319991Y-7480998D02*
X9598377Y-7525061D01*
X9241607Y-12024982D02*
G75*
G02*
X9101672Y-10250000I14358393J2024982D01*
G01*
X9526489Y-11979937D02*
G75*
G02*
X9401533Y-10250000I15373511J1979937D01*
G01*
X9927037Y-14009409D02*
G75*
G02*
X9598377Y-12474939I14972963J4009409D01*
G01*
X9241617Y-7974946D02*
X9526489Y-8020063D01*
X9401533Y-9749993D02*
X9101672Y-9749994D01*
X9592963Y-13750590D02*
G75*
G02*
X9319992Y-12519001I14007037J3750590D01*
G01*
X9598377Y-12474939D02*
X9319992Y-12519001D01*
X9101672Y-10250000D02*
X9401533Y-10250000D01*
X9598377Y-7525061D02*
G75*
G02*
X9927037Y-5990590I15301623J-2474939D01*
G01*
X9319991Y-7480998D02*
G75*
G02*
X9592963Y-6249410I14280009J-2519002D01*
G01*
X8226489Y-11979937D02*
X7941607Y-12024982D01*
X8101533Y-9749993D02*
G75*
G02*
X8226489Y-8020063I15498467J-250008D01*
G01*
X7801672Y-9749994D02*
G75*
G02*
X7941617Y-7974946I14498328J-250006D01*
G01*
X8019991Y-7480998D02*
X8298377Y-7525061D01*
X7941607Y-12024982D02*
G75*
G02*
X7801672Y-10250000I14358393J2024982D01*
G01*
X8226489Y-11979937D02*
G75*
G02*
X8101533Y-10250000I15373511J1979937D01*
G01*
X8627037Y-14009409D02*
G75*
G02*
X8298377Y-12474939I14972963J4009409D01*
G01*
X7941617Y-7974946D02*
X8226489Y-8020063D01*
X8101533Y-9749993D02*
X7801672Y-9749994D01*
X8292963Y-13750590D02*
G75*
G02*
X8019992Y-12519001I14007037J3750590D01*
G01*
X8298377Y-12474939D02*
X8019991Y-12519001D01*
X7801672Y-10250000D02*
X8101533Y-10250000D01*
X8298377Y-7525061D02*
G75*
G02*
X8627037Y-5990590I15301623J-2474939D01*
G01*
X8019991Y-7480998D02*
G75*
G02*
X8292963Y-6249410I14280009J-2519002D01*
G01*
X7327037Y-14009409D02*
G75*
G02*
X6998377Y-12474939I14972963J4009409D01*
G01*
X6992963Y-13750590D02*
G75*
G02*
X6719992Y-12519001I14007037J3750590D01*
G01*
X6998377Y-12474939D02*
X6719991Y-12519001D01*
X6926489Y-11979937D02*
X6641607Y-12024982D01*
X6926489Y-11979937D02*
G75*
G02*
X6801533Y-10250000I15373511J1979937D01*
G01*
X6641607Y-12024982D02*
G75*
G02*
X6501672Y-10250000I14358393J2024982D01*
G01*
X6501672Y-10250000D02*
X6801533Y-10250000D01*
X6801533Y-9749993D02*
G75*
G02*
X6926489Y-8020063I15498467J-250008D01*
G01*
X6501672Y-9749994D02*
G75*
G02*
X6641617Y-7974946I14498328J-250006D01*
G01*
X6641617Y-7974946D02*
X6926489Y-8020063D01*
X6719991Y-7480998D02*
X6998377Y-7525061D01*
X6801533Y-9749993D02*
X6501672Y-9749994D01*
X11877303Y-6268356D02*
G75*
G02*
X11490933Y-6164829I-219067J-44829D01*
G01*
X11890244Y-6220060D02*
X11877303Y-6268356D01*
X12192963Y-6249410D02*
X11951481Y-6184705D01*
X11468518Y-6055295D02*
X11227037Y-5990590D01*
X11890244Y-6220060D02*
G75*
G02*
X11951481Y-6184705I48296J-12941D01*
G01*
X11468518Y-6055295D02*
G75*
G02*
X11503874Y-6116532I-12941J-48296D01*
G01*
X11490933Y-6164829D02*
X11503874Y-6116532D01*
X11917513Y-13958983D02*
G75*
G02*
X11569780Y-14052158I-150573J-133521D01*
G01*
X11901984Y-13901027D02*
G75*
G02*
X11951481Y-13815295I67615J18117D01*
G01*
X11569780Y-14052158D02*
X11554251Y-13994202D01*
X11468518Y-13944705D02*
X11227037Y-14009410D01*
X11901984Y-13901027D02*
X11917513Y-13958983D01*
X11468518Y-13944705D02*
G75*
G02*
X11554251Y-13994202I18118J-67615D01*
G01*
X12192963Y-13750590D02*
X11951481Y-13815295D01*
X13793223Y-8874999D02*
G75*
G02*
X13793223Y-11125001I-543224J-1125001D01*
G01*
X12023811Y-9750030D02*
G75*
G02*
X12793368Y-8834877I1226189J-249970D01*
G01*
X6998377Y-7525061D02*
G75*
G02*
X7327037Y-5990590I15301623J-2474939D01*
G01*
X14242963Y-13750590D02*
X14001481Y-13815295D01*
X13619780Y-14052158D02*
X13604251Y-13994202D01*
X13951984Y-13901027D02*
X13967513Y-13958983D01*
X13518518Y-13944705D02*
G75*
G02*
X13604251Y-13994202I18118J-67615D01*
G01*
X13518518Y-13944705D02*
X13277037Y-14009410D01*
X13967513Y-13958983D02*
G75*
G02*
X13619780Y-14052158I-150573J-133521D01*
G01*
X13951984Y-13901027D02*
G75*
G02*
X14001481Y-13815295I67615J18117D01*
G01*
X10892963Y-13750590D02*
X10651482Y-13815295D01*
X10269780Y-14052158D02*
X10254251Y-13994202D01*
X10601984Y-13901027D02*
X10617513Y-13958983D01*
X10168518Y-13944705D02*
G75*
G02*
X10254251Y-13994202I18118J-67615D01*
G01*
X10168519Y-13944705D02*
X9927037Y-14009410D01*
X10617513Y-13958983D02*
G75*
G02*
X10269780Y-14052158I-150573J-133521D01*
G01*
X10601984Y-13901027D02*
G75*
G02*
X10651482Y-13815295I67615J18117D01*
G01*
X9592963Y-13750590D02*
X9351482Y-13815295D01*
X8969780Y-14052158D02*
X8954251Y-13994202D01*
X9301984Y-13901027D02*
X9317513Y-13958983D01*
X8868518Y-13944705D02*
G75*
G02*
X8954251Y-13994202I18118J-67615D01*
G01*
X8868519Y-13944705D02*
X8627037Y-14009410D01*
X9317513Y-13958983D02*
G75*
G02*
X8969780Y-14052158I-150573J-133521D01*
G01*
X9301984Y-13901027D02*
G75*
G02*
X9351482Y-13815295I67615J18117D01*
G01*
X8292963Y-13750590D02*
X8051481Y-13815295D01*
X7669780Y-14052158D02*
X7654251Y-13994202D01*
X8001984Y-13901027D02*
X8017513Y-13958983D01*
X7568518Y-13944705D02*
G75*
G02*
X7654251Y-13994202I18118J-67615D01*
G01*
X7568518Y-13944705D02*
X7327037Y-14009410D01*
X8017513Y-13958983D02*
G75*
G02*
X7669780Y-14052158I-150573J-133521D01*
G01*
X8001984Y-13901027D02*
G75*
G02*
X8051481Y-13815295I67615J18117D01*
G01*
X13940244Y-6220060D02*
X13927303Y-6268356D01*
X14242963Y-6249410D02*
X14001481Y-6184705D01*
X13540933Y-6164829D02*
X13553874Y-6116532D01*
X13927303Y-6268356D02*
G75*
G02*
X13540933Y-6164829I-219067J-44829D01*
G01*
X13518518Y-6055295D02*
X13277037Y-5990590D01*
X13940244Y-6220060D02*
G75*
G02*
X14001481Y-6184705I48296J-12941D01*
G01*
X13518518Y-6055295D02*
G75*
G02*
X13553874Y-6116532I-12941J-48296D01*
G01*
X10590244Y-6220060D02*
X10577303Y-6268356D01*
X10892963Y-6249410D02*
X10651482Y-6184705D01*
X10190933Y-6164829D02*
X10203874Y-6116532D01*
X10577303Y-6268356D02*
G75*
G02*
X10190933Y-6164829I-219067J-44829D01*
G01*
X10168519Y-6055295D02*
X9927037Y-5990590D01*
X10590244Y-6220060D02*
G75*
G02*
X10651482Y-6184705I48296J-12941D01*
G01*
X10168518Y-6055295D02*
G75*
G02*
X10203874Y-6116532I-12941J-48296D01*
G01*
X9290244Y-6220060D02*
X9277303Y-6268356D01*
X9592963Y-6249410D02*
X9351482Y-6184705D01*
X8890933Y-6164829D02*
X8903874Y-6116532D01*
X9277303Y-6268356D02*
G75*
G02*
X8890933Y-6164829I-219067J-44829D01*
G01*
X8868519Y-6055295D02*
X8627037Y-5990590D01*
X9290244Y-6220060D02*
G75*
G02*
X9351482Y-6184705I48296J-12941D01*
G01*
X8868518Y-6055295D02*
G75*
G02*
X8903874Y-6116532I-12941J-48296D01*
G01*
X7990244Y-6220060D02*
X7977303Y-6268356D01*
X8292963Y-6249410D02*
X8051481Y-6184705D01*
X7590933Y-6164829D02*
X7603874Y-6116532D01*
X7977303Y-6268356D02*
G75*
G02*
X7590933Y-6164829I-219067J-44829D01*
G01*
X7568518Y-6055295D02*
X7327037Y-5990590D01*
X7990244Y-6220060D02*
G75*
G02*
X8051481Y-6184705I48296J-12941D01*
G01*
X7568518Y-6055295D02*
G75*
G02*
X7603874Y-6116532I-12941J-48296D01*
G01*
X6717513Y-13958983D02*
G75*
G02*
X6369780Y-14052158I-150573J-133521D01*
G01*
X6268518Y-13944705D02*
X6027037Y-14009410D01*
X6268518Y-13944705D02*
G75*
G02*
X6354251Y-13994202I18118J-67615D01*
G01*
X6369780Y-14052158D02*
X6354251Y-13994202D01*
X6701984Y-13901027D02*
X6717513Y-13958983D01*
X6701984Y-13901027D02*
G75*
G02*
X6751481Y-13815295I67615J18117D01*
G01*
X6992963Y-13750590D02*
X6751481Y-13815295D01*
X6268518Y-6055295D02*
X6027037Y-5990590D01*
X6268518Y-6055295D02*
G75*
G02*
X6303874Y-6116532I-12941J-48296D01*
G01*
X6290933Y-6164829D02*
X6303874Y-6116532D01*
X6677303Y-6268356D02*
G75*
G02*
X6290933Y-6164829I-219067J-44829D01*
G01*
X6690244Y-6220060D02*
X6677303Y-6268356D01*
X6690244Y-6220060D02*
G75*
G02*
X6751481Y-6184705I48296J-12941D01*
G01*
X6992963Y-6249410D02*
X6751481Y-6184705D01*
X6719991Y-7480998D02*
G75*
G02*
X6992963Y-6249410I14280009J-2519002D01*
G01*
D11*
X5020000Y-5780000D02*
X5080000Y-5840000D01*
X5080000Y-5780000D02*
X5020000Y-5840000D01*
X5020000Y-6020000D02*
X5080000Y-6080000D01*
X5080000Y-6020000D02*
X5020000Y-6080000D01*
X5020000Y-14200000D02*
X5080000Y-14260000D01*
X5080000Y-14200000D02*
X5020000Y-14260000D01*
X5020000Y-14440000D02*
X5080000Y-14500000D01*
X5080000Y-14440000D02*
X5020000Y-14500000D01*
X5100000Y-5780000D02*
X5160000Y-5840000D01*
X5160000Y-5780000D02*
X5100000Y-5840000D01*
X5100000Y-6020000D02*
X5160000Y-6080000D01*
X5160000Y-6020000D02*
X5100000Y-6080000D01*
X5100000Y-14200000D02*
X5160000Y-14260000D01*
X5160000Y-14200000D02*
X5100000Y-14260000D01*
X5100000Y-14440000D02*
X5160000Y-14500000D01*
X5160000Y-14440000D02*
X5100000Y-14500000D01*
X5180000Y-5780000D02*
X5240000Y-5840000D01*
X5240000Y-5780000D02*
X5180000Y-5840000D01*
X5180000Y-6020000D02*
X5240000Y-6080000D01*
X5240000Y-6020000D02*
X5180000Y-6080000D01*
X5180000Y-14200000D02*
X5240000Y-14260000D01*
X5240000Y-14200000D02*
X5180000Y-14260000D01*
X5180000Y-14440000D02*
X5240000Y-14500000D01*
X5240000Y-14440000D02*
X5180000Y-14500000D01*
X5200000Y-9770000D02*
X5260000Y-9830000D01*
X5260000Y-9770000D02*
X5200000Y-9830000D01*
X5200000Y-9850000D02*
X5260000Y-9910000D01*
X5260000Y-9850000D02*
X5200000Y-9910000D01*
X5200000Y-9930000D02*
X5260000Y-9990000D01*
X5260000Y-9930000D02*
X5200000Y-9990000D01*
X5200000Y-10010000D02*
X5260000Y-10070000D01*
X5260000Y-10010000D02*
X5200000Y-10070000D01*
X5200000Y-10090000D02*
X5260000Y-10150000D01*
X5260000Y-10090000D02*
X5200000Y-10150000D01*
X5200000Y-10170000D02*
X5260000Y-10230000D01*
X5260000Y-10170000D02*
X5200000Y-10230000D01*
X5260000Y-5780000D02*
X5320000Y-5840000D01*
X5320000Y-5780000D02*
X5260000Y-5840000D01*
X5260000Y-6020000D02*
X5320000Y-6080000D01*
X5320000Y-6020000D02*
X5260000Y-6080000D01*
X5260000Y-14200000D02*
X5320000Y-14260000D01*
X5320000Y-14200000D02*
X5260000Y-14260000D01*
X5260000Y-14440000D02*
X5320000Y-14500000D01*
X5320000Y-14440000D02*
X5260000Y-14500000D01*
X5340000Y-5780000D02*
X5400000Y-5840000D01*
X5400000Y-5780000D02*
X5340000Y-5840000D01*
X5340000Y-6020000D02*
X5400000Y-6080000D01*
X5400000Y-6020000D02*
X5340000Y-6080000D01*
X5340000Y-14200000D02*
X5400000Y-14260000D01*
X5400000Y-14200000D02*
X5340000Y-14260000D01*
X5340000Y-14440000D02*
X5400000Y-14500000D01*
X5400000Y-14440000D02*
X5340000Y-14500000D01*
X5340191Y-7898765D02*
X5400191Y-7958765D01*
X5400191Y-7898765D02*
X5340191Y-7958765D01*
X5340191Y-12041234D02*
X5400191Y-12101234D01*
X5400191Y-12041234D02*
X5340191Y-12101234D01*
X5352705Y-7819750D02*
X5412705Y-7879750D01*
X5412705Y-7819750D02*
X5352705Y-7879750D01*
X5352705Y-12120249D02*
X5412705Y-12180249D01*
X5412705Y-12120249D02*
X5352705Y-12180249D01*
X5365220Y-7740735D02*
X5425220Y-7800735D01*
X5425220Y-7740735D02*
X5365220Y-7800735D01*
X5365220Y-12199265D02*
X5425220Y-12259265D01*
X5425220Y-12199265D02*
X5365220Y-12259265D01*
X5377735Y-7661720D02*
X5437735Y-7721720D01*
X5437735Y-7661720D02*
X5377735Y-7721720D01*
X5377735Y-12278280D02*
X5437735Y-12338280D01*
X5437735Y-12278280D02*
X5377735Y-12338280D01*
X5390250Y-7582705D02*
X5450250Y-7642705D01*
X5450250Y-7582705D02*
X5390250Y-7642705D01*
X5390250Y-12357295D02*
X5450250Y-12417295D01*
X5450250Y-12357295D02*
X5390250Y-12417295D01*
X5402764Y-7503690D02*
X5462764Y-7563690D01*
X5462764Y-7503690D02*
X5402764Y-7563690D01*
X5402764Y-12436310D02*
X5462764Y-12496310D01*
X5462764Y-12436310D02*
X5402764Y-12496310D01*
X5420000Y-5780000D02*
X5480000Y-5840000D01*
X5480000Y-5780000D02*
X5420000Y-5840000D01*
X5420000Y-6020000D02*
X5480000Y-6080000D01*
X5480000Y-6020000D02*
X5420000Y-6080000D01*
X5420000Y-14200000D02*
X5480000Y-14260000D01*
X5480000Y-14200000D02*
X5420000Y-14260000D01*
X5420000Y-14440000D02*
X5480000Y-14500000D01*
X5480000Y-14440000D02*
X5420000Y-14500000D01*
X5440000Y-9770000D02*
X5500000Y-9830000D01*
X5500000Y-9770000D02*
X5440000Y-9830000D01*
X5440000Y-9850000D02*
X5500000Y-9910000D01*
X5500000Y-9850000D02*
X5440000Y-9910000D01*
X5440000Y-9930000D02*
X5500000Y-9990000D01*
X5500000Y-9930000D02*
X5440000Y-9990000D01*
X5440000Y-10010000D02*
X5500000Y-10070000D01*
X5500000Y-10010000D02*
X5440000Y-10070000D01*
X5440000Y-10090000D02*
X5500000Y-10150000D01*
X5500000Y-10090000D02*
X5440000Y-10150000D01*
X5440000Y-10170000D02*
X5500000Y-10230000D01*
X5500000Y-10170000D02*
X5440000Y-10230000D01*
X5577236Y-7936310D02*
X5637236Y-7996310D01*
X5637236Y-7936310D02*
X5577236Y-7996310D01*
X5577236Y-12003690D02*
X5637236Y-12063690D01*
X5637236Y-12003690D02*
X5577236Y-12063690D01*
X5589751Y-7857295D02*
X5649750Y-7917295D01*
X5649750Y-7857295D02*
X5589751Y-7917295D01*
X5589751Y-12082705D02*
X5649750Y-12142705D01*
X5649750Y-12082705D02*
X5589751Y-12142705D01*
X5602265Y-7778280D02*
X5662265Y-7838280D01*
X5662265Y-7778280D02*
X5602265Y-7838280D01*
X5602265Y-12161720D02*
X5662265Y-12221720D01*
X5662265Y-12161720D02*
X5602265Y-12221720D01*
X5614780Y-7699265D02*
X5674780Y-7759265D01*
X5674780Y-7699265D02*
X5614780Y-7759265D01*
X5614780Y-12240735D02*
X5674780Y-12300735D01*
X5674780Y-12240735D02*
X5614780Y-12300735D01*
X5627295Y-7620249D02*
X5687295Y-7680249D01*
X5687295Y-7620249D02*
X5627295Y-7680249D01*
X5627295Y-12319750D02*
X5687295Y-12379750D01*
X5687295Y-12319750D02*
X5627295Y-12379750D01*
X5639809Y-7541234D02*
X5699809Y-7601234D01*
X5699809Y-7541234D02*
X5639809Y-7601234D01*
X5639809Y-12398765D02*
X5699809Y-12458765D01*
X5699809Y-12398765D02*
X5639809Y-12458765D01*
X6500000Y-9770000D02*
X6560000Y-9830000D01*
X6560000Y-9770000D02*
X6500000Y-9830000D01*
X6500000Y-9850000D02*
X6560000Y-9910000D01*
X6560000Y-9850000D02*
X6500000Y-9910000D01*
X6500000Y-9930000D02*
X6560000Y-9990000D01*
X6560000Y-9930000D02*
X6500000Y-9990000D01*
X6500000Y-10010000D02*
X6560000Y-10070000D01*
X6560000Y-10010000D02*
X6500000Y-10070000D01*
X6500000Y-10090000D02*
X6560000Y-10150000D01*
X6560000Y-10090000D02*
X6500000Y-10150000D01*
X6500000Y-10170000D02*
X6560000Y-10230000D01*
X6560000Y-10170000D02*
X6500000Y-10230000D01*
X6640190Y-7898765D02*
X6700190Y-7958765D01*
X6700190Y-7898765D02*
X6640190Y-7958765D01*
X6640190Y-12041234D02*
X6700190Y-12101234D01*
X6700190Y-12041234D02*
X6640190Y-12101234D01*
X6652705Y-7819750D02*
X6712705Y-7879750D01*
X6712705Y-7819750D02*
X6652705Y-7879750D01*
X6652705Y-12120249D02*
X6712705Y-12180249D01*
X6712705Y-12120249D02*
X6652705Y-12180249D01*
X6665220Y-7740735D02*
X6725220Y-7800735D01*
X6725220Y-7740735D02*
X6665220Y-7800735D01*
X6665220Y-12199265D02*
X6725220Y-12259265D01*
X6725220Y-12199265D02*
X6665220Y-12259265D01*
X6677735Y-7661720D02*
X6737735Y-7721720D01*
X6737735Y-7661720D02*
X6677735Y-7721720D01*
X6677735Y-12278280D02*
X6737735Y-12338280D01*
X6737735Y-12278280D02*
X6677735Y-12338280D01*
X6690249Y-7582705D02*
X6750249Y-7642705D01*
X6750249Y-7582705D02*
X6690249Y-7642705D01*
X6690249Y-12357295D02*
X6750249Y-12417295D01*
X6750249Y-12357295D02*
X6690249Y-12417295D01*
X6702764Y-7503690D02*
X6762764Y-7563690D01*
X6762764Y-7503690D02*
X6702764Y-7563690D01*
X6702764Y-12436310D02*
X6762764Y-12496310D01*
X6762764Y-12436310D02*
X6702764Y-12496310D01*
X6740000Y-9770000D02*
X6800000Y-9830000D01*
X6800000Y-9770000D02*
X6740000Y-9830000D01*
X6740000Y-9850000D02*
X6800000Y-9910000D01*
X6800000Y-9850000D02*
X6740000Y-9910000D01*
X6740000Y-9930000D02*
X6800000Y-9990000D01*
X6800000Y-9930000D02*
X6740000Y-9990000D01*
X6740000Y-10010000D02*
X6800000Y-10070000D01*
X6800000Y-10010000D02*
X6740000Y-10070000D01*
X6740000Y-10090000D02*
X6800000Y-10150000D01*
X6800000Y-10090000D02*
X6740000Y-10150000D01*
X6740000Y-10170000D02*
X6800000Y-10230000D01*
X6800000Y-10170000D02*
X6740000Y-10230000D01*
X6877236Y-7936310D02*
X6937236Y-7996310D01*
X6937236Y-7936310D02*
X6877236Y-7996310D01*
X6877236Y-12003690D02*
X6937236Y-12063690D01*
X6937236Y-12003690D02*
X6877236Y-12063690D01*
X6889750Y-7857295D02*
X6949750Y-7917295D01*
X6949750Y-7857295D02*
X6889750Y-7917295D01*
X6889750Y-12082705D02*
X6949750Y-12142705D01*
X6949750Y-12082705D02*
X6889750Y-12142705D01*
X6902265Y-7778280D02*
X6962265Y-7838280D01*
X6962265Y-7778280D02*
X6902265Y-7838280D01*
X6902265Y-12161720D02*
X6962265Y-12221720D01*
X6962265Y-12161720D02*
X6902265Y-12221720D01*
X6914780Y-7699265D02*
X6974780Y-7759265D01*
X6974780Y-7699265D02*
X6914780Y-7759265D01*
X6914780Y-12240735D02*
X6974780Y-12300735D01*
X6974780Y-12240735D02*
X6914780Y-12300735D01*
X6927295Y-7620249D02*
X6987295Y-7680249D01*
X6987295Y-7620249D02*
X6927295Y-7680249D01*
X6927295Y-12319750D02*
X6987295Y-12379750D01*
X6987295Y-12319750D02*
X6927295Y-12379750D01*
X6939809Y-7541234D02*
X6999809Y-7601234D01*
X6999809Y-7541234D02*
X6939809Y-7601234D01*
X6939809Y-12398765D02*
X6999809Y-12458765D01*
X6999809Y-12398765D02*
X6939809Y-12458765D01*
X7800000Y-9770000D02*
X7860000Y-9830000D01*
X7860000Y-9770000D02*
X7800000Y-9830000D01*
X7800000Y-9850000D02*
X7860000Y-9910000D01*
X7860000Y-9850000D02*
X7800000Y-9910000D01*
X7800000Y-9930000D02*
X7860000Y-9990000D01*
X7860000Y-9930000D02*
X7800000Y-9990000D01*
X7800000Y-10010000D02*
X7860000Y-10070000D01*
X7860000Y-10010000D02*
X7800000Y-10070000D01*
X7800000Y-10090000D02*
X7860000Y-10150000D01*
X7860000Y-10090000D02*
X7800000Y-10150000D01*
X7800000Y-10170000D02*
X7860000Y-10230000D01*
X7860000Y-10170000D02*
X7800000Y-10230000D01*
X7940190Y-7898765D02*
X8000190Y-7958765D01*
X8000190Y-7898765D02*
X7940190Y-7958765D01*
X7940190Y-12041234D02*
X8000190Y-12101234D01*
X8000190Y-12041234D02*
X7940190Y-12101234D01*
X7952705Y-7819750D02*
X8012705Y-7879750D01*
X8012705Y-7819750D02*
X7952705Y-7879750D01*
X7952705Y-12120249D02*
X8012705Y-12180249D01*
X8012705Y-12120249D02*
X7952705Y-12180249D01*
X7965220Y-7740735D02*
X8025220Y-7800735D01*
X8025220Y-7740735D02*
X7965220Y-7800735D01*
X7965220Y-12199265D02*
X8025220Y-12259265D01*
X8025220Y-12199265D02*
X7965220Y-12259265D01*
X7977735Y-7661720D02*
X8037735Y-7721720D01*
X8037735Y-7661720D02*
X7977735Y-7721720D01*
X7977735Y-12278280D02*
X8037735Y-12338280D01*
X8037735Y-12278280D02*
X7977735Y-12338280D01*
X7990249Y-7582705D02*
X8050249Y-7642705D01*
X8050249Y-7582705D02*
X7990249Y-7642705D01*
X7990249Y-12357295D02*
X8050249Y-12417295D01*
X8050249Y-12357295D02*
X7990249Y-12417295D01*
X8002764Y-7503690D02*
X8062764Y-7563690D01*
X8062764Y-7503690D02*
X8002764Y-7563690D01*
X8002764Y-12436310D02*
X8062764Y-12496310D01*
X8062764Y-12436310D02*
X8002764Y-12496310D01*
X8040000Y-9770000D02*
X8100000Y-9830000D01*
X8100000Y-9770000D02*
X8040000Y-9830000D01*
X8040000Y-9850000D02*
X8100000Y-9910000D01*
X8100000Y-9850000D02*
X8040000Y-9910000D01*
X8040000Y-9930000D02*
X8100000Y-9990000D01*
X8100000Y-9930000D02*
X8040000Y-9990000D01*
X8040000Y-10010000D02*
X8100000Y-10070000D01*
X8100000Y-10010000D02*
X8040000Y-10070000D01*
X8040000Y-10090000D02*
X8100000Y-10150000D01*
X8100000Y-10090000D02*
X8040000Y-10150000D01*
X8040000Y-10170000D02*
X8100000Y-10230000D01*
X8100000Y-10170000D02*
X8040000Y-10230000D01*
X8177236Y-7936310D02*
X8237236Y-7996310D01*
X8237236Y-7936310D02*
X8177236Y-7996310D01*
X8177236Y-12003690D02*
X8237236Y-12063690D01*
X8237236Y-12003690D02*
X8177236Y-12063690D01*
X8189750Y-7857295D02*
X8249750Y-7917295D01*
X8249750Y-7857295D02*
X8189750Y-7917295D01*
X8189750Y-12082705D02*
X8249750Y-12142705D01*
X8249750Y-12082705D02*
X8189750Y-12142705D01*
X8202265Y-7778280D02*
X8262265Y-7838280D01*
X8262265Y-7778280D02*
X8202265Y-7838280D01*
X8202265Y-12161720D02*
X8262265Y-12221720D01*
X8262265Y-12161720D02*
X8202265Y-12221720D01*
X8214780Y-7699265D02*
X8274780Y-7759265D01*
X8274780Y-7699265D02*
X8214780Y-7759265D01*
X8214780Y-12240735D02*
X8274780Y-12300735D01*
X8274780Y-12240735D02*
X8214780Y-12300735D01*
X8227295Y-7620249D02*
X8287295Y-7680249D01*
X8287295Y-7620249D02*
X8227295Y-7680249D01*
X8227295Y-12319750D02*
X8287295Y-12379750D01*
X8287295Y-12319750D02*
X8227295Y-12379750D01*
X8239809Y-7541234D02*
X8299809Y-7601234D01*
X8299809Y-7541234D02*
X8239809Y-7601234D01*
X8239809Y-12398765D02*
X8299809Y-12458765D01*
X8299809Y-12398765D02*
X8239809Y-12458765D01*
X9100000Y-9770000D02*
X9160000Y-9830000D01*
X9160000Y-9770000D02*
X9100000Y-9830000D01*
X9100000Y-9850000D02*
X9160000Y-9910000D01*
X9160000Y-9850000D02*
X9100000Y-9910000D01*
X9100000Y-9930000D02*
X9160000Y-9990000D01*
X9160000Y-9930000D02*
X9100000Y-9990000D01*
X9100000Y-10010000D02*
X9160000Y-10070000D01*
X9160000Y-10010000D02*
X9100000Y-10070000D01*
X9100000Y-10090000D02*
X9160000Y-10150000D01*
X9160000Y-10090000D02*
X9100000Y-10150000D01*
X9100000Y-10170000D02*
X9160000Y-10230000D01*
X9160000Y-10170000D02*
X9100000Y-10230000D01*
X9240191Y-7898765D02*
X9300191Y-7958765D01*
X9300191Y-7898765D02*
X9240191Y-7958765D01*
X9240191Y-12041234D02*
X9300191Y-12101234D01*
X9300191Y-12041234D02*
X9240191Y-12101234D01*
X9252705Y-7819750D02*
X9312705Y-7879750D01*
X9312705Y-7819750D02*
X9252705Y-7879750D01*
X9252705Y-12120249D02*
X9312705Y-12180249D01*
X9312705Y-12120249D02*
X9252705Y-12180249D01*
X9265220Y-7740735D02*
X9325220Y-7800735D01*
X9325220Y-7740735D02*
X9265220Y-7800735D01*
X9265220Y-12199265D02*
X9325220Y-12259265D01*
X9325220Y-12199265D02*
X9265220Y-12259265D01*
X9277735Y-7661720D02*
X9337735Y-7721720D01*
X9337735Y-7661720D02*
X9277735Y-7721720D01*
X9277735Y-12278280D02*
X9337735Y-12338280D01*
X9337735Y-12278280D02*
X9277735Y-12338280D01*
X9290250Y-7582705D02*
X9350250Y-7642705D01*
X9350250Y-7582705D02*
X9290250Y-7642705D01*
X9290250Y-12357295D02*
X9350250Y-12417295D01*
X9350250Y-12357295D02*
X9290250Y-12417295D01*
X9302764Y-7503690D02*
X9362764Y-7563690D01*
X9362764Y-7503690D02*
X9302764Y-7563690D01*
X9302764Y-12436310D02*
X9362764Y-12496310D01*
X9362764Y-12436310D02*
X9302764Y-12496310D01*
X9340000Y-9770000D02*
X9400000Y-9830000D01*
X9400000Y-9770000D02*
X9340000Y-9830000D01*
X9340000Y-9850000D02*
X9400000Y-9910000D01*
X9400000Y-9850000D02*
X9340000Y-9910000D01*
X9340000Y-9930000D02*
X9400000Y-9990000D01*
X9400000Y-9930000D02*
X9340000Y-9990000D01*
X9340000Y-10010000D02*
X9400000Y-10070000D01*
X9400000Y-10010000D02*
X9340000Y-10070000D01*
X9340000Y-10090000D02*
X9400000Y-10150000D01*
X9400000Y-10090000D02*
X9340000Y-10150000D01*
X9340000Y-10170000D02*
X9400000Y-10230000D01*
X9400000Y-10170000D02*
X9340000Y-10230000D01*
X9477236Y-7936310D02*
X9537236Y-7996310D01*
X9537236Y-7936310D02*
X9477236Y-7996310D01*
X9477236Y-12003690D02*
X9537236Y-12063690D01*
X9537236Y-12003690D02*
X9477236Y-12063690D01*
X9489751Y-7857295D02*
X9549751Y-7917295D01*
X9549751Y-7857295D02*
X9489751Y-7917295D01*
X9489751Y-12082705D02*
X9549751Y-12142705D01*
X9549751Y-12082705D02*
X9489751Y-12142705D01*
X9502265Y-7778280D02*
X9562265Y-7838280D01*
X9562265Y-7778280D02*
X9502265Y-7838280D01*
X9502265Y-12161720D02*
X9562265Y-12221720D01*
X9562265Y-12161720D02*
X9502265Y-12221720D01*
X9514780Y-7699265D02*
X9574780Y-7759265D01*
X9574780Y-7699265D02*
X9514780Y-7759265D01*
X9514780Y-12240735D02*
X9574780Y-12300735D01*
X9574780Y-12240735D02*
X9514780Y-12300735D01*
X9527295Y-7620249D02*
X9587295Y-7680249D01*
X9587295Y-7620249D02*
X9527295Y-7680249D01*
X9527295Y-12319750D02*
X9587295Y-12379750D01*
X9587295Y-12319750D02*
X9527295Y-12379750D01*
X9539810Y-7541234D02*
X9599810Y-7601234D01*
X9599810Y-7541234D02*
X9539810Y-7601234D01*
X9539810Y-12398765D02*
X9599810Y-12458765D01*
X9599810Y-12398765D02*
X9539810Y-12458765D01*
X10400000Y-9770000D02*
X10460000Y-9830000D01*
X10460000Y-9770000D02*
X10400000Y-9830000D01*
X10400000Y-9850000D02*
X10460000Y-9910000D01*
X10460000Y-9850000D02*
X10400000Y-9910000D01*
X10400000Y-9930000D02*
X10460000Y-9990000D01*
X10460000Y-9930000D02*
X10400000Y-9990000D01*
X10400000Y-10010000D02*
X10460000Y-10070000D01*
X10460000Y-10010000D02*
X10400000Y-10070000D01*
X10400000Y-10090000D02*
X10460000Y-10150000D01*
X10460000Y-10090000D02*
X10400000Y-10150000D01*
X10400000Y-10170000D02*
X10460000Y-10230000D01*
X10460000Y-10170000D02*
X10400000Y-10230000D01*
X10540191Y-7898765D02*
X10600191Y-7958765D01*
X10600191Y-7898765D02*
X10540191Y-7958765D01*
X10540191Y-12041234D02*
X10600191Y-12101234D01*
X10600191Y-12041234D02*
X10540191Y-12101234D01*
X10552705Y-7819750D02*
X10612705Y-7879750D01*
X10612705Y-7819750D02*
X10552705Y-7879750D01*
X10552705Y-12120249D02*
X10612705Y-12180249D01*
X10612705Y-12120249D02*
X10552705Y-12180249D01*
X10565220Y-7740735D02*
X10625220Y-7800735D01*
X10625220Y-7740735D02*
X10565220Y-7800735D01*
X10565220Y-12199265D02*
X10625220Y-12259265D01*
X10625220Y-12199265D02*
X10565220Y-12259265D01*
X10577735Y-7661720D02*
X10637735Y-7721720D01*
X10637735Y-7661720D02*
X10577735Y-7721720D01*
X10577735Y-12278280D02*
X10637735Y-12338280D01*
X10637735Y-12278280D02*
X10577735Y-12338280D01*
X10590250Y-7582705D02*
X10650250Y-7642705D01*
X10650250Y-7582705D02*
X10590250Y-7642705D01*
X10590250Y-12357295D02*
X10650250Y-12417295D01*
X10650250Y-12357295D02*
X10590250Y-12417295D01*
X10602764Y-7503690D02*
X10662764Y-7563690D01*
X10662764Y-7503690D02*
X10602764Y-7563690D01*
X10602764Y-12436310D02*
X10662764Y-12496310D01*
X10662764Y-12436310D02*
X10602764Y-12496310D01*
X10640000Y-9770000D02*
X10700000Y-9830000D01*
X10700000Y-9770000D02*
X10640000Y-9830000D01*
X10640000Y-9850000D02*
X10700000Y-9910000D01*
X10700000Y-9850000D02*
X10640000Y-9910000D01*
X10640000Y-9930000D02*
X10700000Y-9990000D01*
X10700000Y-9930000D02*
X10640000Y-9990000D01*
X10640000Y-10010000D02*
X10700000Y-10070000D01*
X10700000Y-10010000D02*
X10640000Y-10070000D01*
X10640000Y-10090000D02*
X10700000Y-10150000D01*
X10700000Y-10090000D02*
X10640000Y-10150000D01*
X10640000Y-10170000D02*
X10700000Y-10230000D01*
X10700000Y-10170000D02*
X10640000Y-10230000D01*
X10777236Y-7936310D02*
X10837236Y-7996310D01*
X10837236Y-7936310D02*
X10777236Y-7996310D01*
X10777236Y-12003690D02*
X10837236Y-12063690D01*
X10837236Y-12003690D02*
X10777236Y-12063690D01*
X10789751Y-7857295D02*
X10849751Y-7917295D01*
X10849751Y-7857295D02*
X10789751Y-7917295D01*
X10789751Y-12082705D02*
X10849751Y-12142705D01*
X10849751Y-12082705D02*
X10789751Y-12142705D01*
X10802265Y-7778280D02*
X10862265Y-7838280D01*
X10862265Y-7778280D02*
X10802265Y-7838280D01*
X10802265Y-12161720D02*
X10862265Y-12221720D01*
X10862265Y-12161720D02*
X10802265Y-12221720D01*
X10814780Y-7699265D02*
X10874780Y-7759265D01*
X10874780Y-7699265D02*
X10814780Y-7759265D01*
X10814780Y-12240735D02*
X10874780Y-12300735D01*
X10874780Y-12240735D02*
X10814780Y-12300735D01*
X10827295Y-7620249D02*
X10887295Y-7680249D01*
X10887295Y-7620249D02*
X10827295Y-7680249D01*
X10827295Y-12319750D02*
X10887295Y-12379750D01*
X10887295Y-12319750D02*
X10827295Y-12379750D01*
X10839810Y-7541234D02*
X10899810Y-7601234D01*
X10899810Y-7541234D02*
X10839810Y-7601234D01*
X10839810Y-12398765D02*
X10899810Y-12458765D01*
X10899810Y-12398765D02*
X10839810Y-12458765D01*
X11700000Y-9770000D02*
X11760000Y-9830000D01*
X11760000Y-9770000D02*
X11700000Y-9830000D01*
X11700000Y-9850000D02*
X11760000Y-9910000D01*
X11760000Y-9850000D02*
X11700000Y-9910000D01*
X11700000Y-9930000D02*
X11760000Y-9990000D01*
X11760000Y-9930000D02*
X11700000Y-9990000D01*
X11700000Y-10010000D02*
X11760000Y-10070000D01*
X11760000Y-10010000D02*
X11700000Y-10070000D01*
X11700000Y-10090000D02*
X11760000Y-10150000D01*
X11760000Y-10090000D02*
X11700000Y-10150000D01*
X11700000Y-10170000D02*
X11760000Y-10230000D01*
X11760000Y-10170000D02*
X11700000Y-10230000D01*
X11840190Y-7898765D02*
X11900190Y-7958765D01*
X11900190Y-7898765D02*
X11840190Y-7958765D01*
X11840190Y-12041234D02*
X11900190Y-12101234D01*
X11900190Y-12041234D02*
X11840190Y-12101234D01*
X11852705Y-7819750D02*
X11912705Y-7879750D01*
X11912705Y-7819750D02*
X11852705Y-7879750D01*
X11852705Y-12120249D02*
X11912705Y-12180249D01*
X11912705Y-12120249D02*
X11852705Y-12180249D01*
X11865220Y-7740735D02*
X11925220Y-7800735D01*
X11925220Y-7740735D02*
X11865220Y-7800735D01*
X11865220Y-12199265D02*
X11925220Y-12259265D01*
X11925220Y-12199265D02*
X11865220Y-12259265D01*
X11877735Y-7661720D02*
X11937735Y-7721720D01*
X11937735Y-7661720D02*
X11877735Y-7721720D01*
X11877735Y-12278280D02*
X11937735Y-12338280D01*
X11937735Y-12278280D02*
X11877735Y-12338280D01*
X11890249Y-7582705D02*
X11950249Y-7642705D01*
X11950249Y-7582705D02*
X11890249Y-7642705D01*
X11890249Y-12357295D02*
X11950249Y-12417295D01*
X11950249Y-12357295D02*
X11890249Y-12417295D01*
X11902764Y-7503690D02*
X11962764Y-7563690D01*
X11962764Y-7503690D02*
X11902764Y-7563690D01*
X11902764Y-12436310D02*
X11962764Y-12496310D01*
X11962764Y-12436310D02*
X11902764Y-12496310D01*
X11940000Y-9770000D02*
X12000000Y-9830000D01*
X12000000Y-9770000D02*
X11940000Y-9830000D01*
X11940000Y-9850000D02*
X12000000Y-9910000D01*
X12000000Y-9850000D02*
X11940000Y-9910000D01*
X11940000Y-9930000D02*
X12000000Y-9990000D01*
X12000000Y-9930000D02*
X11940000Y-9990000D01*
X11940000Y-10010000D02*
X12000000Y-10070000D01*
X12000000Y-10010000D02*
X11940000Y-10070000D01*
X11940000Y-10090000D02*
X12000000Y-10150000D01*
X12000000Y-10090000D02*
X11940000Y-10150000D01*
X11940000Y-10170000D02*
X12000000Y-10230000D01*
X12000000Y-10170000D02*
X11940000Y-10230000D01*
X12077236Y-7936310D02*
X12137236Y-7996310D01*
X12137236Y-7936310D02*
X12077236Y-7996310D01*
X12077236Y-12003690D02*
X12137236Y-12063690D01*
X12137236Y-12003690D02*
X12077236Y-12063690D01*
X12089750Y-7857295D02*
X12149750Y-7917295D01*
X12149750Y-7857295D02*
X12089750Y-7917295D01*
X12089750Y-12082705D02*
X12149750Y-12142705D01*
X12149750Y-12082705D02*
X12089750Y-12142705D01*
X12102265Y-7778280D02*
X12162265Y-7838280D01*
X12162265Y-7778280D02*
X12102265Y-7838280D01*
X12102265Y-12161720D02*
X12162265Y-12221720D01*
X12162265Y-12161720D02*
X12102265Y-12221720D01*
X12114780Y-7699265D02*
X12174780Y-7759265D01*
X12174780Y-7699265D02*
X12114780Y-7759265D01*
X12114780Y-12240735D02*
X12174780Y-12300735D01*
X12174780Y-12240735D02*
X12114780Y-12300735D01*
X12127295Y-7620249D02*
X12187295Y-7680249D01*
X12187295Y-7620249D02*
X12127295Y-7680249D01*
X12127295Y-12319750D02*
X12187295Y-12379750D01*
X12187295Y-12319750D02*
X12127295Y-12379750D01*
X12139809Y-7541234D02*
X12199809Y-7601234D01*
X12199809Y-7541234D02*
X12139809Y-7601234D01*
X12139809Y-12398765D02*
X12199809Y-12458765D01*
X12199809Y-12398765D02*
X12139809Y-12458765D01*
X12470000Y-14200000D02*
X12530000Y-14260000D01*
X12530000Y-14200000D02*
X12470000Y-14260000D01*
X12470000Y-14440000D02*
X12530000Y-14500000D01*
X12530000Y-14440000D02*
X12470000Y-14500000D01*
X12500000Y-5780000D02*
X12560000Y-5840000D01*
X12560000Y-5780000D02*
X12500000Y-5840000D01*
X12500000Y-6020000D02*
X12560000Y-6080000D01*
X12560000Y-6020000D02*
X12500000Y-6080000D01*
X12550000Y-14200000D02*
X12610000Y-14260000D01*
X12610000Y-14200000D02*
X12550000Y-14260000D01*
X12550000Y-14440000D02*
X12610000Y-14500000D01*
X12610000Y-14440000D02*
X12550000Y-14500000D01*
X12580000Y-5780000D02*
X12640000Y-5840000D01*
X12640000Y-5780000D02*
X12580000Y-5840000D01*
X12580000Y-6020000D02*
X12640000Y-6080000D01*
X12640000Y-6020000D02*
X12580000Y-6080000D01*
X12590190Y-7898765D02*
X12650190Y-7958765D01*
X12650190Y-7898765D02*
X12590190Y-7958765D01*
X12590190Y-12041234D02*
X12650190Y-12101234D01*
X12650190Y-12041234D02*
X12590190Y-12101234D01*
X12602705Y-7819750D02*
X12662705Y-7879750D01*
X12662705Y-7819750D02*
X12602705Y-7879750D01*
X12602705Y-12120249D02*
X12662705Y-12180249D01*
X12662705Y-12120249D02*
X12602705Y-12180249D01*
X12615220Y-7740735D02*
X12675220Y-7800735D01*
X12675220Y-7740735D02*
X12615220Y-7800735D01*
X12615220Y-12199265D02*
X12675220Y-12259265D01*
X12675220Y-12199265D02*
X12615220Y-12259265D01*
X12627735Y-7661720D02*
X12687735Y-7721720D01*
X12687735Y-7661720D02*
X12627735Y-7721720D01*
X12627735Y-12278280D02*
X12687735Y-12338280D01*
X12687735Y-12278280D02*
X12627735Y-12338280D01*
X12630000Y-14200000D02*
X12690000Y-14260000D01*
X12690000Y-14200000D02*
X12630000Y-14260000D01*
X12630000Y-14440000D02*
X12690000Y-14500000D01*
X12690000Y-14440000D02*
X12630000Y-14500000D01*
X12640249Y-7582705D02*
X12700249Y-7642705D01*
X12700249Y-7582705D02*
X12640249Y-7642705D01*
X12640249Y-12357295D02*
X12700249Y-12417295D01*
X12700249Y-12357295D02*
X12640249Y-12417295D01*
X12652764Y-7503690D02*
X12712764Y-7563690D01*
X12712764Y-7503690D02*
X12652764Y-7563690D01*
X12652764Y-12436310D02*
X12712764Y-12496310D01*
X12712764Y-12436310D02*
X12652764Y-12496310D01*
X12660000Y-5780000D02*
X12720000Y-5840000D01*
X12720000Y-5780000D02*
X12660000Y-5840000D01*
X12660000Y-6020000D02*
X12720000Y-6080000D01*
X12720000Y-6020000D02*
X12660000Y-6080000D01*
X12710000Y-14200000D02*
X12770000Y-14260000D01*
X12770000Y-14200000D02*
X12710000Y-14260000D01*
X12710000Y-14440000D02*
X12770000Y-14500000D01*
X12770000Y-14440000D02*
X12710000Y-14500000D01*
X12740000Y-5780000D02*
X12800000Y-5840000D01*
X12800000Y-5780000D02*
X12740000Y-5840000D01*
X12740000Y-6020000D02*
X12800000Y-6080000D01*
X12800000Y-6020000D02*
X12740000Y-6080000D01*
X12790000Y-14200000D02*
X12850000Y-14260000D01*
X12850000Y-14200000D02*
X12790000Y-14260000D01*
X12790000Y-14440000D02*
X12850000Y-14500000D01*
X12850000Y-14440000D02*
X12790000Y-14500000D01*
X12820000Y-5780000D02*
X12880000Y-5840000D01*
X12880000Y-5780000D02*
X12820000Y-5840000D01*
X12820000Y-6020000D02*
X12880000Y-6080000D01*
X12880000Y-6020000D02*
X12820000Y-6080000D01*
X12827236Y-7936310D02*
X12887236Y-7996310D01*
X12887236Y-7936310D02*
X12827236Y-7996310D01*
X12827236Y-12003690D02*
X12887236Y-12063690D01*
X12887236Y-12003690D02*
X12827236Y-12063690D01*
X12839750Y-7857295D02*
X12899750Y-7917295D01*
X12899750Y-7857295D02*
X12839750Y-7917295D01*
X12839750Y-12082705D02*
X12899750Y-12142705D01*
X12899750Y-12082705D02*
X12839750Y-12142705D01*
X12852265Y-7778280D02*
X12912265Y-7838280D01*
X12912265Y-7778280D02*
X12852265Y-7838280D01*
X12852265Y-12161720D02*
X12912265Y-12221720D01*
X12912265Y-12161720D02*
X12852265Y-12221720D01*
X12864780Y-7699265D02*
X12924780Y-7759265D01*
X12924780Y-7699265D02*
X12864780Y-7759265D01*
X12864780Y-12240735D02*
X12924780Y-12300735D01*
X12924780Y-12240735D02*
X12864780Y-12300735D01*
X12870000Y-14200000D02*
X12930000Y-14260000D01*
X12930000Y-14200000D02*
X12870000Y-14260000D01*
X12870000Y-14440000D02*
X12930000Y-14500000D01*
X12930000Y-14440000D02*
X12870000Y-14500000D01*
X12877295Y-7620249D02*
X12937295Y-7680249D01*
X12937295Y-7620249D02*
X12877295Y-7680249D01*
X12877295Y-12319750D02*
X12937295Y-12379750D01*
X12937295Y-12319750D02*
X12877295Y-12379750D01*
X12889809Y-7541234D02*
X12949809Y-7601234D01*
X12949809Y-7541234D02*
X12889809Y-7601234D01*
X12889809Y-12398765D02*
X12949809Y-12458765D01*
X12949809Y-12398765D02*
X12889809Y-12458765D01*
X12900000Y-5780000D02*
X12960000Y-5840000D01*
X12960000Y-5780000D02*
X12900000Y-5840000D01*
X12900000Y-6020000D02*
X12960000Y-6080000D01*
X12960000Y-6020000D02*
X12900000Y-6080000D01*
X13890190Y-7898765D02*
X13950190Y-7958765D01*
X13950190Y-7898765D02*
X13890190Y-7958765D01*
X13890190Y-12041234D02*
X13950190Y-12101234D01*
X13950190Y-12041234D02*
X13890190Y-12101234D01*
X13902705Y-7819750D02*
X13962705Y-7879750D01*
X13962705Y-7819750D02*
X13902705Y-7879750D01*
X13902705Y-12120249D02*
X13962705Y-12180249D01*
X13962705Y-12120249D02*
X13902705Y-12180249D01*
X13915220Y-7740735D02*
X13975220Y-7800735D01*
X13975220Y-7740735D02*
X13915220Y-7800735D01*
X13915220Y-12199265D02*
X13975220Y-12259265D01*
X13975220Y-12199265D02*
X13915220Y-12259265D01*
X13927735Y-7661720D02*
X13987735Y-7721720D01*
X13987735Y-7661720D02*
X13927735Y-7721720D01*
X13927735Y-12278280D02*
X13987735Y-12338280D01*
X13987735Y-12278280D02*
X13927735Y-12338280D01*
X13940249Y-7582705D02*
X14000249Y-7642705D01*
X14000249Y-7582705D02*
X13940249Y-7642705D01*
X13940249Y-12357295D02*
X14000249Y-12417295D01*
X14000249Y-12357295D02*
X13940249Y-12417295D01*
X13952764Y-7503690D02*
X14012764Y-7563690D01*
X14012764Y-7503690D02*
X13952764Y-7563690D01*
X13952764Y-12436310D02*
X14012764Y-12496310D01*
X14012764Y-12436310D02*
X13952764Y-12496310D01*
X14127236Y-7936310D02*
X14187236Y-7996310D01*
X14187236Y-7936310D02*
X14127236Y-7996310D01*
X14127236Y-12003690D02*
X14187236Y-12063690D01*
X14187236Y-12003690D02*
X14127236Y-12063690D01*
X14139750Y-7857295D02*
X14199750Y-7917295D01*
X14199750Y-7857295D02*
X14139750Y-7917295D01*
X14139750Y-12082705D02*
X14199750Y-12142705D01*
X14199750Y-12082705D02*
X14139750Y-12142705D01*
X14152265Y-7778280D02*
X14212265Y-7838280D01*
X14212265Y-7778280D02*
X14152265Y-7838280D01*
X14152265Y-12161720D02*
X14212265Y-12221720D01*
X14212265Y-12161720D02*
X14152265Y-12221720D01*
X14164780Y-7699265D02*
X14224780Y-7759265D01*
X14224780Y-7699265D02*
X14164780Y-7759265D01*
X14164780Y-12240735D02*
X14224780Y-12300735D01*
X14224780Y-12240735D02*
X14164780Y-12300735D01*
X14177295Y-7620249D02*
X14237295Y-7680249D01*
X14237295Y-7620249D02*
X14177295Y-7680249D01*
X14177295Y-12319750D02*
X14237295Y-12379750D01*
X14237295Y-12319750D02*
X14177295Y-12379750D01*
X14189809Y-7541234D02*
X14249809Y-7601234D01*
X14249809Y-7541234D02*
X14189809Y-7601234D01*
X14189809Y-12398765D02*
X14249809Y-12458765D01*
X14249809Y-12398765D02*
X14189809Y-12458765D01*
X14520000Y-5780000D02*
X14580000Y-5840000D01*
X14580000Y-5780000D02*
X14520000Y-5840000D01*
X14520000Y-6020000D02*
X14580000Y-6080000D01*
X14580000Y-6020000D02*
X14520000Y-6080000D01*
X14520000Y-14200000D02*
X14580000Y-14260000D01*
X14580000Y-14200000D02*
X14520000Y-14260000D01*
X14520000Y-14440000D02*
X14580000Y-14500000D01*
X14580000Y-14440000D02*
X14520000Y-14500000D01*
X14600000Y-5780000D02*
X14660000Y-5840000D01*
X14660000Y-5780000D02*
X14600000Y-5840000D01*
X14600000Y-6020000D02*
X14660000Y-6080000D01*
X14660000Y-6020000D02*
X14600000Y-6080000D01*
X14600000Y-14200000D02*
X14660000Y-14260000D01*
X14660000Y-14200000D02*
X14600000Y-14260000D01*
X14600000Y-14440000D02*
X14660000Y-14500000D01*
X14660000Y-14440000D02*
X14600000Y-14500000D01*
X14680000Y-5780000D02*
X14740000Y-5840000D01*
X14740000Y-5780000D02*
X14680000Y-5840000D01*
X14680000Y-6020000D02*
X14740000Y-6080000D01*
X14740000Y-6020000D02*
X14680000Y-6080000D01*
X14680000Y-14200000D02*
X14740000Y-14260000D01*
X14740000Y-14200000D02*
X14680000Y-14260000D01*
X14680000Y-14440000D02*
X14740000Y-14500000D01*
X14740000Y-14440000D02*
X14680000Y-14500000D01*
X14760000Y-5780000D02*
X14820000Y-5840000D01*
X14820000Y-5780000D02*
X14760000Y-5840000D01*
X14760000Y-6020000D02*
X14820000Y-6080000D01*
X14820000Y-6020000D02*
X14760000Y-6080000D01*
X14760000Y-14200000D02*
X14820000Y-14260000D01*
X14820000Y-14200000D02*
X14760000Y-14260000D01*
X14760000Y-14440000D02*
X14820000Y-14500000D01*
X14820000Y-14440000D02*
X14760000Y-14500000D01*
X14840000Y-5780000D02*
X14900000Y-5840000D01*
X14900000Y-5780000D02*
X14840000Y-5840000D01*
X14840000Y-6020000D02*
X14900000Y-6080000D01*
X14900000Y-6020000D02*
X14840000Y-6080000D01*
X14840000Y-14200000D02*
X14900000Y-14260000D01*
X14900000Y-14200000D02*
X14840000Y-14260000D01*
X14840000Y-14440000D02*
X14900000Y-14500000D01*
X14900000Y-14440000D02*
X14840000Y-14500000D01*
X14920000Y-5780000D02*
X14980000Y-5840000D01*
X14980000Y-5780000D02*
X14920000Y-5840000D01*
X14920000Y-6020000D02*
X14980000Y-6080000D01*
X14980000Y-6020000D02*
X14920000Y-6080000D01*
X14920000Y-14200000D02*
X14980000Y-14260000D01*
X14980000Y-14200000D02*
X14920000Y-14260000D01*
X14920000Y-14440000D02*
X14980000Y-14500000D01*
X14980000Y-14440000D02*
X14920000Y-14500000D01*
D12*
X5283928Y-15468214D02*
X5283928Y-15168214D01*
X5355357Y-15168214D01*
X5398214Y-15182500D01*
X5426786Y-15211071D01*
X5441071Y-15239643D01*
X5455357Y-15296786D01*
X5455357Y-15339643D01*
X5441071Y-15396786D01*
X5426786Y-15425357D01*
X5398214Y-15453929D01*
X5355357Y-15468214D01*
X5283928Y-15468214D01*
X5583928Y-15468214D02*
X5583928Y-15268214D01*
X5583928Y-15325357D02*
X5598214Y-15296786D01*
X5612500Y-15282500D01*
X5641071Y-15268214D01*
X5669643Y-15268214D01*
X5769643Y-15468214D02*
X5769643Y-15268214D01*
X5769643Y-15168214D02*
X5755357Y-15182500D01*
X5769643Y-15196786D01*
X5783928Y-15182500D01*
X5769643Y-15168214D01*
X5769643Y-15196786D01*
X5955357Y-15468214D02*
X5926786Y-15453929D01*
X5912500Y-15425357D01*
X5912500Y-15168214D01*
X6112500Y-15468214D02*
X6083928Y-15453929D01*
X6069643Y-15425357D01*
X6069643Y-15168214D01*
X6455357Y-15468214D02*
X6455357Y-15168214D01*
X6555357Y-15382500D01*
X6655357Y-15168214D01*
X6655357Y-15468214D01*
X6926786Y-15468214D02*
X6926786Y-15311071D01*
X6912500Y-15282500D01*
X6883928Y-15268214D01*
X6826786Y-15268214D01*
X6798214Y-15282500D01*
X6926786Y-15453929D02*
X6898214Y-15468214D01*
X6826786Y-15468214D01*
X6798214Y-15453929D01*
X6783928Y-15425357D01*
X6783928Y-15396786D01*
X6798214Y-15368214D01*
X6826786Y-15353929D01*
X6898214Y-15353929D01*
X6926786Y-15339643D01*
X7069643Y-15268214D02*
X7069643Y-15568214D01*
X7069643Y-15282500D02*
X7098214Y-15268214D01*
X7155357Y-15268214D01*
X7183928Y-15282500D01*
X7198214Y-15296786D01*
X7212500Y-15325357D01*
X7212500Y-15411071D01*
X7198214Y-15439643D01*
X7183928Y-15453929D01*
X7155357Y-15468214D01*
X7098214Y-15468214D01*
X7069643Y-15453929D01*
X7341071Y-15439643D02*
X7355357Y-15453929D01*
X7341071Y-15468214D01*
X7326786Y-15453929D01*
X7341071Y-15439643D01*
X7341071Y-15468214D01*
X7341071Y-15282500D02*
X7355357Y-15296786D01*
X7341071Y-15311071D01*
X7326786Y-15296786D01*
X7341071Y-15282500D01*
X7341071Y-15311071D01*
X4937500Y-15932500D02*
X4997500Y-15992500D01*
X4997500Y-15932500D02*
X4937500Y-15992500D01*
X5341071Y-15798214D02*
X5369643Y-15798214D01*
X5398214Y-15812500D01*
X5412500Y-15826786D01*
X5426786Y-15855357D01*
X5441071Y-15912500D01*
X5441071Y-15983929D01*
X5426786Y-16041071D01*
X5412500Y-16069643D01*
X5398214Y-16083929D01*
X5369643Y-16098214D01*
X5341071Y-16098214D01*
X5312500Y-16083929D01*
X5298214Y-16069643D01*
X5283928Y-16041071D01*
X5269643Y-15983929D01*
X5269643Y-15912500D01*
X5283928Y-15855357D01*
X5298214Y-15826786D01*
X5312500Y-15812500D01*
X5341071Y-15798214D01*
X5569643Y-16069643D02*
X5583928Y-16083929D01*
X5569643Y-16098214D01*
X5555357Y-16083929D01*
X5569643Y-16069643D01*
X5569643Y-16098214D01*
X5841071Y-15798214D02*
X5783928Y-15798214D01*
X5755357Y-15812500D01*
X5741071Y-15826786D01*
X5712500Y-15869643D01*
X5698214Y-15926786D01*
X5698214Y-16041071D01*
X5712500Y-16069643D01*
X5726786Y-16083929D01*
X5755357Y-16098214D01*
X5812500Y-16098214D01*
X5841071Y-16083929D01*
X5855357Y-16069643D01*
X5869643Y-16041071D01*
X5869643Y-15969643D01*
X5855357Y-15941071D01*
X5841071Y-15926786D01*
X5812500Y-15912500D01*
X5755357Y-15912500D01*
X5726786Y-15926786D01*
X5712500Y-15941071D01*
X5698214Y-15969643D01*
X6055357Y-15798214D02*
X6083928Y-15798214D01*
X6112500Y-15812500D01*
X6126786Y-15826786D01*
X6141071Y-15855357D01*
X6155357Y-15912500D01*
X6155357Y-15983929D01*
X6141071Y-16041071D01*
X6126786Y-16069643D01*
X6112500Y-16083929D01*
X6083928Y-16098214D01*
X6055357Y-16098214D01*
X6026786Y-16083929D01*
X6012500Y-16069643D01*
X5998214Y-16041071D01*
X5983928Y-15983929D01*
X5983928Y-15912500D01*
X5998214Y-15855357D01*
X6012500Y-15826786D01*
X6026786Y-15812500D01*
X6055357Y-15798214D01*
X6341071Y-15798214D02*
X6369643Y-15798214D01*
X6398214Y-15812500D01*
X6412500Y-15826786D01*
X6426786Y-15855357D01*
X6441071Y-15912500D01*
X6441071Y-15983929D01*
X6426786Y-16041071D01*
X6412500Y-16069643D01*
X6398214Y-16083929D01*
X6369643Y-16098214D01*
X6341071Y-16098214D01*
X6312500Y-16083929D01*
X6298214Y-16069643D01*
X6283928Y-16041071D01*
X6269643Y-15983929D01*
X6269643Y-15912500D01*
X6283928Y-15855357D01*
X6298214Y-15826786D01*
X6312500Y-15812500D01*
X6341071Y-15798214D01*
X6569643Y-16098214D02*
X6569643Y-15898214D01*
X6569643Y-15926786D02*
X6583928Y-15912500D01*
X6612500Y-15898214D01*
X6655357Y-15898214D01*
X6683928Y-15912500D01*
X6698214Y-15941071D01*
X6698214Y-16098214D01*
X6698214Y-15941071D02*
X6712500Y-15912500D01*
X6741071Y-15898214D01*
X6783928Y-15898214D01*
X6812500Y-15912500D01*
X6826786Y-15941071D01*
X6826786Y-16098214D01*
X6969643Y-16098214D02*
X6969643Y-15898214D01*
X6969643Y-15926786D02*
X6983928Y-15912500D01*
X7012500Y-15898214D01*
X7055357Y-15898214D01*
X7083928Y-15912500D01*
X7098214Y-15941071D01*
X7098214Y-16098214D01*
X7098214Y-15941071D02*
X7112500Y-15912500D01*
X7141071Y-15898214D01*
X7183928Y-15898214D01*
X7212500Y-15912500D01*
X7226786Y-15941071D01*
X7226786Y-16098214D01*
X7812500Y-15783929D02*
X7555357Y-16169643D01*
X8198214Y-15798214D02*
X8226786Y-15798214D01*
X8255357Y-15812500D01*
X8269643Y-15826786D01*
X8283928Y-15855357D01*
X8298214Y-15912500D01*
X8298214Y-15983929D01*
X8283928Y-16041071D01*
X8269643Y-16069643D01*
X8255357Y-16083929D01*
X8226786Y-16098214D01*
X8198214Y-16098214D01*
X8169643Y-16083929D01*
X8155357Y-16069643D01*
X8141071Y-16041071D01*
X8126786Y-15983929D01*
X8126786Y-15912500D01*
X8141071Y-15855357D01*
X8155357Y-15826786D01*
X8169643Y-15812500D01*
X8198214Y-15798214D01*
X8426786Y-16069643D02*
X8441071Y-16083929D01*
X8426786Y-16098214D01*
X8412500Y-16083929D01*
X8426786Y-16069643D01*
X8426786Y-16098214D01*
X8626786Y-15798214D02*
X8655357Y-15798214D01*
X8683928Y-15812500D01*
X8698214Y-15826786D01*
X8712500Y-15855357D01*
X8726786Y-15912500D01*
X8726786Y-15983929D01*
X8712500Y-16041071D01*
X8698214Y-16069643D01*
X8683928Y-16083929D01*
X8655357Y-16098214D01*
X8626786Y-16098214D01*
X8598214Y-16083929D01*
X8583928Y-16069643D01*
X8569643Y-16041071D01*
X8555357Y-15983929D01*
X8555357Y-15912500D01*
X8569643Y-15855357D01*
X8583928Y-15826786D01*
X8598214Y-15812500D01*
X8626786Y-15798214D01*
X8841071Y-15826786D02*
X8855357Y-15812500D01*
X8883928Y-15798214D01*
X8955357Y-15798214D01*
X8983928Y-15812500D01*
X8998214Y-15826786D01*
X9012500Y-15855357D01*
X9012500Y-15883929D01*
X8998214Y-15926786D01*
X8826786Y-16098214D01*
X9012500Y-16098214D01*
X9112500Y-15798214D02*
X9298214Y-15798214D01*
X9198214Y-15912500D01*
X9241071Y-15912500D01*
X9269643Y-15926786D01*
X9283928Y-15941071D01*
X9298214Y-15969643D01*
X9298214Y-16041071D01*
X9283928Y-16069643D01*
X9269643Y-16083929D01*
X9241071Y-16098214D01*
X9155357Y-16098214D01*
X9126786Y-16083929D01*
X9112500Y-16069643D01*
X9555357Y-15798214D02*
X9498214Y-15798214D01*
X9469643Y-15812500D01*
X9455357Y-15826786D01*
X9426786Y-15869643D01*
X9412500Y-15926786D01*
X9412500Y-16041071D01*
X9426786Y-16069643D01*
X9441071Y-16083929D01*
X9469643Y-16098214D01*
X9526786Y-16098214D01*
X9555357Y-16083929D01*
X9569643Y-16069643D01*
X9583928Y-16041071D01*
X9583928Y-15969643D01*
X9569643Y-15941071D01*
X9555357Y-15926786D01*
X9526786Y-15912500D01*
X9469643Y-15912500D01*
X9441071Y-15926786D01*
X9426786Y-15941071D01*
X9412500Y-15969643D01*
X9698214Y-15798214D02*
X9698214Y-15855357D01*
X9812500Y-15798214D02*
X9812500Y-15855357D01*
X10255357Y-16212500D02*
X10241071Y-16198214D01*
X10212500Y-16155357D01*
X10198214Y-16126786D01*
X10183928Y-16083929D01*
X10169643Y-16012500D01*
X10169643Y-15955357D01*
X10183928Y-15883929D01*
X10198214Y-15841071D01*
X10212500Y-15812500D01*
X10241071Y-15769643D01*
X10255357Y-15755357D01*
X10341071Y-15798214D02*
X10526786Y-15798214D01*
X10426786Y-15912500D01*
X10469643Y-15912500D01*
X10498214Y-15926786D01*
X10512500Y-15941071D01*
X10526786Y-15969643D01*
X10526786Y-16041071D01*
X10512500Y-16069643D01*
X10498214Y-16083929D01*
X10469643Y-16098214D01*
X10383928Y-16098214D01*
X10355357Y-16083929D01*
X10341071Y-16069643D01*
X10626786Y-15798214D02*
X10812500Y-15798214D01*
X10712500Y-15912500D01*
X10755357Y-15912500D01*
X10783928Y-15926786D01*
X10798214Y-15941071D01*
X10812500Y-15969643D01*
X10812500Y-16041071D01*
X10798214Y-16069643D01*
X10783928Y-16083929D01*
X10755357Y-16098214D01*
X10669643Y-16098214D01*
X10641071Y-16083929D01*
X10626786Y-16069643D01*
X11069643Y-15798214D02*
X11012500Y-15798214D01*
X10983928Y-15812500D01*
X10969643Y-15826786D01*
X10941071Y-15869643D01*
X10926786Y-15926786D01*
X10926786Y-16041071D01*
X10941071Y-16069643D01*
X10955357Y-16083929D01*
X10983928Y-16098214D01*
X11041071Y-16098214D01*
X11069643Y-16083929D01*
X11083928Y-16069643D01*
X11098214Y-16041071D01*
X11098214Y-15969643D01*
X11083928Y-15941071D01*
X11069643Y-15926786D01*
X11041071Y-15912500D01*
X10983928Y-15912500D01*
X10955357Y-15926786D01*
X10941071Y-15941071D01*
X10926786Y-15969643D01*
X11455357Y-16098214D02*
X11455357Y-15798214D01*
X11583928Y-16098214D02*
X11583928Y-15941071D01*
X11569643Y-15912500D01*
X11541071Y-15898214D01*
X11498214Y-15898214D01*
X11469643Y-15912500D01*
X11455357Y-15926786D01*
X11769643Y-16098214D02*
X11741071Y-16083929D01*
X11726786Y-16069643D01*
X11712500Y-16041071D01*
X11712500Y-15955357D01*
X11726786Y-15926786D01*
X11741071Y-15912500D01*
X11769643Y-15898214D01*
X11812500Y-15898214D01*
X11841071Y-15912500D01*
X11855357Y-15926786D01*
X11869643Y-15955357D01*
X11869643Y-16041071D01*
X11855357Y-16069643D01*
X11841071Y-16083929D01*
X11812500Y-16098214D01*
X11769643Y-16098214D01*
X12041071Y-16098214D02*
X12012500Y-16083929D01*
X11998214Y-16055357D01*
X11998214Y-15798214D01*
X12269643Y-16083929D02*
X12241071Y-16098214D01*
X12183928Y-16098214D01*
X12155357Y-16083929D01*
X12141071Y-16055357D01*
X12141071Y-15941071D01*
X12155357Y-15912500D01*
X12183928Y-15898214D01*
X12241071Y-15898214D01*
X12269643Y-15912500D01*
X12283928Y-15941071D01*
X12283928Y-15969643D01*
X12141071Y-15998214D01*
X12398214Y-16083929D02*
X12426786Y-16098214D01*
X12483928Y-16098214D01*
X12512500Y-16083929D01*
X12526786Y-16055357D01*
X12526786Y-16041071D01*
X12512500Y-16012500D01*
X12483928Y-15998214D01*
X12441071Y-15998214D01*
X12412500Y-15983929D01*
X12398214Y-15955357D01*
X12398214Y-15941071D01*
X12412500Y-15912500D01*
X12441071Y-15898214D01*
X12483928Y-15898214D01*
X12512500Y-15912500D01*
X12626786Y-16212500D02*
X12641071Y-16198214D01*
X12669643Y-16155357D01*
X12683928Y-16126786D01*
X12698214Y-16083929D01*
X12712500Y-16012500D01*
X12712500Y-15955357D01*
X12698214Y-15883929D01*
X12683928Y-15841071D01*
X12669643Y-15812500D01*
X12641071Y-15769643D01*
X12626786Y-15755357D01*
X13169643Y-16212500D02*
X13155357Y-16198214D01*
X13126786Y-16155357D01*
X13112500Y-16126786D01*
X13098214Y-16083929D01*
X13083928Y-16012500D01*
X13083928Y-15955357D01*
X13098214Y-15883929D01*
X13112500Y-15841071D01*
X13126786Y-15812500D01*
X13155357Y-15769643D01*
X13169643Y-15755357D01*
X13283928Y-15898214D02*
X13283928Y-16098214D01*
X13283928Y-15926786D02*
X13298214Y-15912500D01*
X13326786Y-15898214D01*
X13369643Y-15898214D01*
X13398214Y-15912500D01*
X13412500Y-15941071D01*
X13412500Y-16098214D01*
X13598214Y-16098214D02*
X13569643Y-16083929D01*
X13555357Y-16069643D01*
X13541071Y-16041071D01*
X13541071Y-15955357D01*
X13555357Y-15926786D01*
X13569643Y-15912500D01*
X13598214Y-15898214D01*
X13641071Y-15898214D01*
X13669643Y-15912500D01*
X13683928Y-15926786D01*
X13698214Y-15955357D01*
X13698214Y-16041071D01*
X13683928Y-16069643D01*
X13669643Y-16083929D01*
X13641071Y-16098214D01*
X13598214Y-16098214D01*
X13783928Y-15898214D02*
X13898214Y-15898214D01*
X13826786Y-15798214D02*
X13826786Y-16055357D01*
X13841071Y-16083929D01*
X13869643Y-16098214D01*
X13898214Y-16098214D01*
X14226786Y-15898214D02*
X14226786Y-16198214D01*
X14226786Y-15912500D02*
X14255357Y-15898214D01*
X14312500Y-15898214D01*
X14341071Y-15912500D01*
X14355357Y-15926786D01*
X14369643Y-15955357D01*
X14369643Y-16041071D01*
X14355357Y-16069643D01*
X14341071Y-16083929D01*
X14312500Y-16098214D01*
X14255357Y-16098214D01*
X14226786Y-16083929D01*
X14541071Y-16098214D02*
X14512500Y-16083929D01*
X14498214Y-16055357D01*
X14498214Y-15798214D01*
X14783928Y-16098214D02*
X14783928Y-15941071D01*
X14769643Y-15912500D01*
X14741071Y-15898214D01*
X14683928Y-15898214D01*
X14655357Y-15912500D01*
X14783928Y-16083929D02*
X14755357Y-16098214D01*
X14683928Y-16098214D01*
X14655357Y-16083929D01*
X14641071Y-16055357D01*
X14641071Y-16026786D01*
X14655357Y-15998214D01*
X14683928Y-15983929D01*
X14755357Y-15983929D01*
X14783928Y-15969643D01*
X14883928Y-15898214D02*
X14998214Y-15898214D01*
X14926786Y-15798214D02*
X14926786Y-16055357D01*
X14941071Y-16083929D01*
X14969643Y-16098214D01*
X14998214Y-16098214D01*
X15212500Y-16083929D02*
X15183928Y-16098214D01*
X15126786Y-16098214D01*
X15098214Y-16083929D01*
X15083928Y-16055357D01*
X15083928Y-15941071D01*
X15098214Y-15912500D01*
X15126786Y-15898214D01*
X15183928Y-15898214D01*
X15212500Y-15912500D01*
X15226786Y-15941071D01*
X15226786Y-15969643D01*
X15083928Y-15998214D01*
X15483928Y-16098214D02*
X15483928Y-15798214D01*
X15483928Y-16083929D02*
X15455357Y-16098214D01*
X15398214Y-16098214D01*
X15369643Y-16083929D01*
X15355357Y-16069643D01*
X15341071Y-16041071D01*
X15341071Y-15955357D01*
X15355357Y-15926786D01*
X15369643Y-15912500D01*
X15398214Y-15898214D01*
X15455357Y-15898214D01*
X15483928Y-15912500D01*
X15598214Y-16212500D02*
X15612500Y-16198214D01*
X15641071Y-16155357D01*
X15655357Y-16126786D01*
X15669643Y-16083929D01*
X15683928Y-16012500D01*
X15683928Y-15955357D01*
X15669643Y-15883929D01*
X15655357Y-15841071D01*
X15641071Y-15812500D01*
X15612500Y-15769643D01*
X15598214Y-15755357D01*
M02*
