G04 #@! TF.GenerationSoftware,KiCad,Pcbnew,(5.1.10)-1*
G04 #@! TF.CreationDate,2021-11-24T21:38:53+01:00*
G04 #@! TF.ProjectId,pcb,7063622e-6b69-4636-9164-5f7063625858,rev?*
G04 #@! TF.SameCoordinates,Original*
G04 #@! TF.FileFunction,Paste,Bot*
G04 #@! TF.FilePolarity,Positive*
%FSLAX46Y46*%
G04 Gerber Fmt 4.6, Leading zero omitted, Abs format (unit mm)*
G04 Created by KiCad (PCBNEW (5.1.10)-1) date 2021-11-24 21:38:53*
%MOMM*%
%LPD*%
G01*
G04 APERTURE LIST*
%ADD10R,1.500000X2.000000*%
%ADD11R,3.800000X2.000000*%
%ADD12R,0.900000X0.800000*%
G04 APERTURE END LIST*
G36*
G01*
X135875000Y-88962500D02*
X135875000Y-89437500D01*
G75*
G02*
X135637500Y-89675000I-237500J0D01*
G01*
X135037500Y-89675000D01*
G75*
G02*
X134800000Y-89437500I0J237500D01*
G01*
X134800000Y-88962500D01*
G75*
G02*
X135037500Y-88725000I237500J0D01*
G01*
X135637500Y-88725000D01*
G75*
G02*
X135875000Y-88962500I0J-237500D01*
G01*
G37*
G36*
G01*
X137600000Y-88962500D02*
X137600000Y-89437500D01*
G75*
G02*
X137362500Y-89675000I-237500J0D01*
G01*
X136762500Y-89675000D01*
G75*
G02*
X136525000Y-89437500I0J237500D01*
G01*
X136525000Y-88962500D01*
G75*
G02*
X136762500Y-88725000I237500J0D01*
G01*
X137362500Y-88725000D01*
G75*
G02*
X137600000Y-88962500I0J-237500D01*
G01*
G37*
D10*
X134500000Y-91250000D03*
X139100000Y-91250000D03*
X136800000Y-91250000D03*
D11*
X136800000Y-97550000D03*
G36*
G01*
X133961631Y-118885793D02*
X133911980Y-118413396D01*
G75*
G02*
X134123353Y-118152371I236199J24826D01*
G01*
X134720066Y-118089654D01*
G75*
G02*
X134981091Y-118301027I24826J-236199D01*
G01*
X135030742Y-118773424D01*
G75*
G02*
X134819369Y-119034449I-236199J-24826D01*
G01*
X134222656Y-119097166D01*
G75*
G02*
X133961631Y-118885793I-24826J236199D01*
G01*
G37*
G36*
G01*
X132246081Y-119066105D02*
X132196430Y-118593708D01*
G75*
G02*
X132407803Y-118332683I236199J24826D01*
G01*
X133004516Y-118269966D01*
G75*
G02*
X133265541Y-118481339I24826J-236199D01*
G01*
X133315192Y-118953736D01*
G75*
G02*
X133103819Y-119214761I-236199J-24826D01*
G01*
X132507106Y-119277478D01*
G75*
G02*
X132246081Y-119066105I-24826J236199D01*
G01*
G37*
G36*
G01*
X124250000Y-103137500D02*
X124250000Y-102662500D01*
G75*
G02*
X124487500Y-102425000I237500J0D01*
G01*
X125062500Y-102425000D01*
G75*
G02*
X125300000Y-102662500I0J-237500D01*
G01*
X125300000Y-103137500D01*
G75*
G02*
X125062500Y-103375000I-237500J0D01*
G01*
X124487500Y-103375000D01*
G75*
G02*
X124250000Y-103137500I0J237500D01*
G01*
G37*
G36*
G01*
X122500000Y-103137500D02*
X122500000Y-102662500D01*
G75*
G02*
X122737500Y-102425000I237500J0D01*
G01*
X123312500Y-102425000D01*
G75*
G02*
X123550000Y-102662500I0J-237500D01*
G01*
X123550000Y-103137500D01*
G75*
G02*
X123312500Y-103375000I-237500J0D01*
G01*
X122737500Y-103375000D01*
G75*
G02*
X122500000Y-103137500I0J237500D01*
G01*
G37*
G36*
G01*
X123550000Y-96862500D02*
X123550000Y-97337500D01*
G75*
G02*
X123312500Y-97575000I-237500J0D01*
G01*
X122737500Y-97575000D01*
G75*
G02*
X122500000Y-97337500I0J237500D01*
G01*
X122500000Y-96862500D01*
G75*
G02*
X122737500Y-96625000I237500J0D01*
G01*
X123312500Y-96625000D01*
G75*
G02*
X123550000Y-96862500I0J-237500D01*
G01*
G37*
G36*
G01*
X125300000Y-96862500D02*
X125300000Y-97337500D01*
G75*
G02*
X125062500Y-97575000I-237500J0D01*
G01*
X124487500Y-97575000D01*
G75*
G02*
X124250000Y-97337500I0J237500D01*
G01*
X124250000Y-96862500D01*
G75*
G02*
X124487500Y-96625000I237500J0D01*
G01*
X125062500Y-96625000D01*
G75*
G02*
X125300000Y-96862500I0J-237500D01*
G01*
G37*
G36*
G01*
X134650000Y-101462500D02*
X134650000Y-101937500D01*
G75*
G02*
X134412500Y-102175000I-237500J0D01*
G01*
X133837500Y-102175000D01*
G75*
G02*
X133600000Y-101937500I0J237500D01*
G01*
X133600000Y-101462500D01*
G75*
G02*
X133837500Y-101225000I237500J0D01*
G01*
X134412500Y-101225000D01*
G75*
G02*
X134650000Y-101462500I0J-237500D01*
G01*
G37*
G36*
G01*
X136400000Y-101462500D02*
X136400000Y-101937500D01*
G75*
G02*
X136162500Y-102175000I-237500J0D01*
G01*
X135587500Y-102175000D01*
G75*
G02*
X135350000Y-101937500I0J237500D01*
G01*
X135350000Y-101462500D01*
G75*
G02*
X135587500Y-101225000I237500J0D01*
G01*
X136162500Y-101225000D01*
G75*
G02*
X136400000Y-101462500I0J-237500D01*
G01*
G37*
G36*
G01*
X135350000Y-105137500D02*
X135350000Y-104662500D01*
G75*
G02*
X135587500Y-104425000I237500J0D01*
G01*
X136162500Y-104425000D01*
G75*
G02*
X136400000Y-104662500I0J-237500D01*
G01*
X136400000Y-105137500D01*
G75*
G02*
X136162500Y-105375000I-237500J0D01*
G01*
X135587500Y-105375000D01*
G75*
G02*
X135350000Y-105137500I0J237500D01*
G01*
G37*
G36*
G01*
X133600000Y-105137500D02*
X133600000Y-104662500D01*
G75*
G02*
X133837500Y-104425000I237500J0D01*
G01*
X134412500Y-104425000D01*
G75*
G02*
X134650000Y-104662500I0J-237500D01*
G01*
X134650000Y-105137500D01*
G75*
G02*
X134412500Y-105375000I-237500J0D01*
G01*
X133837500Y-105375000D01*
G75*
G02*
X133600000Y-105137500I0J237500D01*
G01*
G37*
G36*
G01*
X135350000Y-100337500D02*
X135350000Y-99862500D01*
G75*
G02*
X135587500Y-99625000I237500J0D01*
G01*
X136162500Y-99625000D01*
G75*
G02*
X136400000Y-99862500I0J-237500D01*
G01*
X136400000Y-100337500D01*
G75*
G02*
X136162500Y-100575000I-237500J0D01*
G01*
X135587500Y-100575000D01*
G75*
G02*
X135350000Y-100337500I0J237500D01*
G01*
G37*
G36*
G01*
X133600000Y-100337500D02*
X133600000Y-99862500D01*
G75*
G02*
X133837500Y-99625000I237500J0D01*
G01*
X134412500Y-99625000D01*
G75*
G02*
X134650000Y-99862500I0J-237500D01*
G01*
X134650000Y-100337500D01*
G75*
G02*
X134412500Y-100575000I-237500J0D01*
G01*
X133837500Y-100575000D01*
G75*
G02*
X133600000Y-100337500I0J237500D01*
G01*
G37*
G36*
G01*
X134650000Y-103062500D02*
X134650000Y-103537500D01*
G75*
G02*
X134412500Y-103775000I-237500J0D01*
G01*
X133837500Y-103775000D01*
G75*
G02*
X133600000Y-103537500I0J237500D01*
G01*
X133600000Y-103062500D01*
G75*
G02*
X133837500Y-102825000I237500J0D01*
G01*
X134412500Y-102825000D01*
G75*
G02*
X134650000Y-103062500I0J-237500D01*
G01*
G37*
G36*
G01*
X136400000Y-103062500D02*
X136400000Y-103537500D01*
G75*
G02*
X136162500Y-103775000I-237500J0D01*
G01*
X135587500Y-103775000D01*
G75*
G02*
X135350000Y-103537500I0J237500D01*
G01*
X135350000Y-103062500D01*
G75*
G02*
X135587500Y-102825000I237500J0D01*
G01*
X136162500Y-102825000D01*
G75*
G02*
X136400000Y-103062500I0J-237500D01*
G01*
G37*
G36*
G01*
X125250000Y-94137500D02*
X125250000Y-93662500D01*
G75*
G02*
X125487500Y-93425000I237500J0D01*
G01*
X126062500Y-93425000D01*
G75*
G02*
X126300000Y-93662500I0J-237500D01*
G01*
X126300000Y-94137500D01*
G75*
G02*
X126062500Y-94375000I-237500J0D01*
G01*
X125487500Y-94375000D01*
G75*
G02*
X125250000Y-94137500I0J237500D01*
G01*
G37*
G36*
G01*
X123500000Y-94137500D02*
X123500000Y-93662500D01*
G75*
G02*
X123737500Y-93425000I237500J0D01*
G01*
X124312500Y-93425000D01*
G75*
G02*
X124550000Y-93662500I0J-237500D01*
G01*
X124550000Y-94137500D01*
G75*
G02*
X124312500Y-94375000I-237500J0D01*
G01*
X123737500Y-94375000D01*
G75*
G02*
X123500000Y-94137500I0J237500D01*
G01*
G37*
G36*
G01*
X125250000Y-92537500D02*
X125250000Y-92062500D01*
G75*
G02*
X125487500Y-91825000I237500J0D01*
G01*
X126062500Y-91825000D01*
G75*
G02*
X126300000Y-92062500I0J-237500D01*
G01*
X126300000Y-92537500D01*
G75*
G02*
X126062500Y-92775000I-237500J0D01*
G01*
X125487500Y-92775000D01*
G75*
G02*
X125250000Y-92537500I0J237500D01*
G01*
G37*
G36*
G01*
X123500000Y-92537500D02*
X123500000Y-92062500D01*
G75*
G02*
X123737500Y-91825000I237500J0D01*
G01*
X124312500Y-91825000D01*
G75*
G02*
X124550000Y-92062500I0J-237500D01*
G01*
X124550000Y-92537500D01*
G75*
G02*
X124312500Y-92775000I-237500J0D01*
G01*
X123737500Y-92775000D01*
G75*
G02*
X123500000Y-92537500I0J237500D01*
G01*
G37*
D12*
X127400000Y-92600000D03*
X129400000Y-93550000D03*
X129400000Y-91650000D03*
G36*
G01*
X137473265Y-132362512D02*
X136407084Y-132589135D01*
G75*
G02*
X136282548Y-132508261I-21831J102705D01*
G01*
X136238887Y-132302850D01*
G75*
G02*
X136319761Y-132178314I102705J21831D01*
G01*
X137385942Y-131951691D01*
G75*
G02*
X137510478Y-132032565I21831J-102705D01*
G01*
X137554139Y-132237976D01*
G75*
G02*
X137473265Y-132362512I-102705J-21831D01*
G01*
G37*
G36*
G01*
X137296541Y-131531086D02*
X136230360Y-131757709D01*
G75*
G02*
X136105824Y-131676835I-21831J102705D01*
G01*
X136062163Y-131471424D01*
G75*
G02*
X136143037Y-131346888I102705J21831D01*
G01*
X137209218Y-131120265D01*
G75*
G02*
X137333754Y-131201139I21831J-102705D01*
G01*
X137377415Y-131406550D01*
G75*
G02*
X137296541Y-131531086I-102705J-21831D01*
G01*
G37*
G36*
G01*
X137119816Y-130699661D02*
X136053635Y-130926284D01*
G75*
G02*
X135929099Y-130845410I-21831J102705D01*
G01*
X135885438Y-130639999D01*
G75*
G02*
X135966312Y-130515463I102705J21831D01*
G01*
X137032493Y-130288840D01*
G75*
G02*
X137157029Y-130369714I21831J-102705D01*
G01*
X137200690Y-130575125D01*
G75*
G02*
X137119816Y-130699661I-102705J-21831D01*
G01*
G37*
G36*
G01*
X136943091Y-129868235D02*
X135876910Y-130094858D01*
G75*
G02*
X135752374Y-130013984I-21831J102705D01*
G01*
X135708713Y-129808573D01*
G75*
G02*
X135789587Y-129684037I102705J21831D01*
G01*
X136855768Y-129457414D01*
G75*
G02*
X136980304Y-129538288I21831J-102705D01*
G01*
X137023965Y-129743699D01*
G75*
G02*
X136943091Y-129868235I-102705J-21831D01*
G01*
G37*
G36*
G01*
X134126735Y-130037488D02*
X135192916Y-129810865D01*
G75*
G02*
X135317452Y-129891739I21831J-102705D01*
G01*
X135361113Y-130097150D01*
G75*
G02*
X135280239Y-130221686I-102705J-21831D01*
G01*
X134214058Y-130448309D01*
G75*
G02*
X134089522Y-130367435I-21831J102705D01*
G01*
X134045861Y-130162024D01*
G75*
G02*
X134126735Y-130037488I102705J21831D01*
G01*
G37*
G36*
G01*
X134303459Y-130868914D02*
X135369640Y-130642291D01*
G75*
G02*
X135494176Y-130723165I21831J-102705D01*
G01*
X135537837Y-130928576D01*
G75*
G02*
X135456963Y-131053112I-102705J-21831D01*
G01*
X134390782Y-131279735D01*
G75*
G02*
X134266246Y-131198861I-21831J102705D01*
G01*
X134222585Y-130993450D01*
G75*
G02*
X134303459Y-130868914I102705J21831D01*
G01*
G37*
G36*
G01*
X134480184Y-131700339D02*
X135546365Y-131473716D01*
G75*
G02*
X135670901Y-131554590I21831J-102705D01*
G01*
X135714562Y-131760001D01*
G75*
G02*
X135633688Y-131884537I-102705J-21831D01*
G01*
X134567507Y-132111160D01*
G75*
G02*
X134442971Y-132030286I-21831J102705D01*
G01*
X134399310Y-131824875D01*
G75*
G02*
X134480184Y-131700339I102705J21831D01*
G01*
G37*
G36*
G01*
X134656909Y-132531765D02*
X135723090Y-132305142D01*
G75*
G02*
X135847626Y-132386016I21831J-102705D01*
G01*
X135891287Y-132591427D01*
G75*
G02*
X135810413Y-132715963I-102705J-21831D01*
G01*
X134744232Y-132942586D01*
G75*
G02*
X134619696Y-132861712I-21831J102705D01*
G01*
X134576035Y-132656301D01*
G75*
G02*
X134656909Y-132531765I102705J21831D01*
G01*
G37*
G36*
G01*
X134842583Y-117031048D02*
X133758554Y-117144984D01*
G75*
G02*
X133643154Y-117051534I-10975J104425D01*
G01*
X133621203Y-116842684D01*
G75*
G02*
X133714653Y-116727284I104425J10975D01*
G01*
X134798682Y-116613348D01*
G75*
G02*
X134914082Y-116706798I10975J-104425D01*
G01*
X134936033Y-116915648D01*
G75*
G02*
X134842583Y-117031048I-104425J-10975D01*
G01*
G37*
G36*
G01*
X134753733Y-116185704D02*
X133669704Y-116299640D01*
G75*
G02*
X133554304Y-116206190I-10975J104425D01*
G01*
X133532353Y-115997340D01*
G75*
G02*
X133625803Y-115881940I104425J10975D01*
G01*
X134709832Y-115768004D01*
G75*
G02*
X134825232Y-115861454I10975J-104425D01*
G01*
X134847183Y-116070304D01*
G75*
G02*
X134753733Y-116185704I-104425J-10975D01*
G01*
G37*
G36*
G01*
X134664884Y-115340361D02*
X133580855Y-115454297D01*
G75*
G02*
X133465455Y-115360847I-10975J104425D01*
G01*
X133443504Y-115151997D01*
G75*
G02*
X133536954Y-115036597I104425J10975D01*
G01*
X134620983Y-114922661D01*
G75*
G02*
X134736383Y-115016111I10975J-104425D01*
G01*
X134758334Y-115224961D01*
G75*
G02*
X134664884Y-115340361I-104425J-10975D01*
G01*
G37*
G36*
G01*
X134576035Y-114495017D02*
X133492006Y-114608953D01*
G75*
G02*
X133376606Y-114515503I-10975J104425D01*
G01*
X133354655Y-114306653D01*
G75*
G02*
X133448105Y-114191253I104425J10975D01*
G01*
X134532134Y-114077317D01*
G75*
G02*
X134647534Y-114170767I10975J-104425D01*
G01*
X134669485Y-114379617D01*
G75*
G02*
X134576035Y-114495017I-104425J-10975D01*
G01*
G37*
G36*
G01*
X131757417Y-114368952D02*
X132841446Y-114255016D01*
G75*
G02*
X132956846Y-114348466I10975J-104425D01*
G01*
X132978797Y-114557316D01*
G75*
G02*
X132885347Y-114672716I-104425J-10975D01*
G01*
X131801318Y-114786652D01*
G75*
G02*
X131685918Y-114693202I-10975J104425D01*
G01*
X131663967Y-114484352D01*
G75*
G02*
X131757417Y-114368952I104425J10975D01*
G01*
G37*
G36*
G01*
X131846267Y-115214296D02*
X132930296Y-115100360D01*
G75*
G02*
X133045696Y-115193810I10975J-104425D01*
G01*
X133067647Y-115402660D01*
G75*
G02*
X132974197Y-115518060I-104425J-10975D01*
G01*
X131890168Y-115631996D01*
G75*
G02*
X131774768Y-115538546I-10975J104425D01*
G01*
X131752817Y-115329696D01*
G75*
G02*
X131846267Y-115214296I104425J10975D01*
G01*
G37*
G36*
G01*
X131935116Y-116059639D02*
X133019145Y-115945703D01*
G75*
G02*
X133134545Y-116039153I10975J-104425D01*
G01*
X133156496Y-116248003D01*
G75*
G02*
X133063046Y-116363403I-104425J-10975D01*
G01*
X131979017Y-116477339D01*
G75*
G02*
X131863617Y-116383889I-10975J104425D01*
G01*
X131841666Y-116175039D01*
G75*
G02*
X131935116Y-116059639I104425J10975D01*
G01*
G37*
G36*
G01*
X132023965Y-116904983D02*
X133107994Y-116791047D01*
G75*
G02*
X133223394Y-116884497I10975J-104425D01*
G01*
X133245345Y-117093347D01*
G75*
G02*
X133151895Y-117208747I-104425J-10975D01*
G01*
X132067866Y-117322683D01*
G75*
G02*
X131952466Y-117229233I-10975J104425D01*
G01*
X131930515Y-117020383D01*
G75*
G02*
X132023965Y-116904983I104425J10975D01*
G01*
G37*
G36*
G01*
X141395000Y-101485000D02*
X140305000Y-101485000D01*
G75*
G02*
X140200000Y-101380000I0J105000D01*
G01*
X140200000Y-101170000D01*
G75*
G02*
X140305000Y-101065000I105000J0D01*
G01*
X141395000Y-101065000D01*
G75*
G02*
X141500000Y-101170000I0J-105000D01*
G01*
X141500000Y-101380000D01*
G75*
G02*
X141395000Y-101485000I-105000J0D01*
G01*
G37*
G36*
G01*
X141395000Y-100635000D02*
X140305000Y-100635000D01*
G75*
G02*
X140200000Y-100530000I0J105000D01*
G01*
X140200000Y-100320000D01*
G75*
G02*
X140305000Y-100215000I105000J0D01*
G01*
X141395000Y-100215000D01*
G75*
G02*
X141500000Y-100320000I0J-105000D01*
G01*
X141500000Y-100530000D01*
G75*
G02*
X141395000Y-100635000I-105000J0D01*
G01*
G37*
G36*
G01*
X141395000Y-99785000D02*
X140305000Y-99785000D01*
G75*
G02*
X140200000Y-99680000I0J105000D01*
G01*
X140200000Y-99470000D01*
G75*
G02*
X140305000Y-99365000I105000J0D01*
G01*
X141395000Y-99365000D01*
G75*
G02*
X141500000Y-99470000I0J-105000D01*
G01*
X141500000Y-99680000D01*
G75*
G02*
X141395000Y-99785000I-105000J0D01*
G01*
G37*
G36*
G01*
X141395000Y-98935000D02*
X140305000Y-98935000D01*
G75*
G02*
X140200000Y-98830000I0J105000D01*
G01*
X140200000Y-98620000D01*
G75*
G02*
X140305000Y-98515000I105000J0D01*
G01*
X141395000Y-98515000D01*
G75*
G02*
X141500000Y-98620000I0J-105000D01*
G01*
X141500000Y-98830000D01*
G75*
G02*
X141395000Y-98935000I-105000J0D01*
G01*
G37*
G36*
G01*
X123605000Y-98515000D02*
X124695000Y-98515000D01*
G75*
G02*
X124800000Y-98620000I0J-105000D01*
G01*
X124800000Y-98830000D01*
G75*
G02*
X124695000Y-98935000I-105000J0D01*
G01*
X123605000Y-98935000D01*
G75*
G02*
X123500000Y-98830000I0J105000D01*
G01*
X123500000Y-98620000D01*
G75*
G02*
X123605000Y-98515000I105000J0D01*
G01*
G37*
G36*
G01*
X123605000Y-99365000D02*
X124695000Y-99365000D01*
G75*
G02*
X124800000Y-99470000I0J-105000D01*
G01*
X124800000Y-99680000D01*
G75*
G02*
X124695000Y-99785000I-105000J0D01*
G01*
X123605000Y-99785000D01*
G75*
G02*
X123500000Y-99680000I0J105000D01*
G01*
X123500000Y-99470000D01*
G75*
G02*
X123605000Y-99365000I105000J0D01*
G01*
G37*
G36*
G01*
X123605000Y-100215000D02*
X124695000Y-100215000D01*
G75*
G02*
X124800000Y-100320000I0J-105000D01*
G01*
X124800000Y-100530000D01*
G75*
G02*
X124695000Y-100635000I-105000J0D01*
G01*
X123605000Y-100635000D01*
G75*
G02*
X123500000Y-100530000I0J105000D01*
G01*
X123500000Y-100320000D01*
G75*
G02*
X123605000Y-100215000I105000J0D01*
G01*
G37*
G36*
G01*
X123605000Y-101065000D02*
X124695000Y-101065000D01*
G75*
G02*
X124800000Y-101170000I0J-105000D01*
G01*
X124800000Y-101380000D01*
G75*
G02*
X124695000Y-101485000I-105000J0D01*
G01*
X123605000Y-101485000D01*
G75*
G02*
X123500000Y-101380000I0J105000D01*
G01*
X123500000Y-101170000D01*
G75*
G02*
X123605000Y-101065000I105000J0D01*
G01*
G37*
G36*
G01*
X134532134Y-85922683D02*
X133448105Y-85808747D01*
G75*
G02*
X133354655Y-85693347I10975J104425D01*
G01*
X133376606Y-85484497D01*
G75*
G02*
X133492006Y-85391047I104425J-10975D01*
G01*
X134576035Y-85504983D01*
G75*
G02*
X134669485Y-85620383I-10975J-104425D01*
G01*
X134647534Y-85829233D01*
G75*
G02*
X134532134Y-85922683I-104425J10975D01*
G01*
G37*
G36*
G01*
X134620983Y-85077339D02*
X133536954Y-84963403D01*
G75*
G02*
X133443504Y-84848003I10975J104425D01*
G01*
X133465455Y-84639153D01*
G75*
G02*
X133580855Y-84545703I104425J-10975D01*
G01*
X134664884Y-84659639D01*
G75*
G02*
X134758334Y-84775039I-10975J-104425D01*
G01*
X134736383Y-84983889D01*
G75*
G02*
X134620983Y-85077339I-104425J10975D01*
G01*
G37*
G36*
G01*
X134709832Y-84231996D02*
X133625803Y-84118060D01*
G75*
G02*
X133532353Y-84002660I10975J104425D01*
G01*
X133554304Y-83793810D01*
G75*
G02*
X133669704Y-83700360I104425J-10975D01*
G01*
X134753733Y-83814296D01*
G75*
G02*
X134847183Y-83929696I-10975J-104425D01*
G01*
X134825232Y-84138546D01*
G75*
G02*
X134709832Y-84231996I-104425J10975D01*
G01*
G37*
G36*
G01*
X134798682Y-83386652D02*
X133714653Y-83272716D01*
G75*
G02*
X133621203Y-83157316I10975J104425D01*
G01*
X133643154Y-82948466D01*
G75*
G02*
X133758554Y-82855016I104425J-10975D01*
G01*
X134842583Y-82968952D01*
G75*
G02*
X134936033Y-83084352I-10975J-104425D01*
G01*
X134914082Y-83293202D01*
G75*
G02*
X134798682Y-83386652I-104425J10975D01*
G01*
G37*
G36*
G01*
X132067866Y-82677317D02*
X133151895Y-82791253D01*
G75*
G02*
X133245345Y-82906653I-10975J-104425D01*
G01*
X133223394Y-83115503D01*
G75*
G02*
X133107994Y-83208953I-104425J10975D01*
G01*
X132023965Y-83095017D01*
G75*
G02*
X131930515Y-82979617I10975J104425D01*
G01*
X131952466Y-82770767D01*
G75*
G02*
X132067866Y-82677317I104425J-10975D01*
G01*
G37*
G36*
G01*
X131979017Y-83522661D02*
X133063046Y-83636597D01*
G75*
G02*
X133156496Y-83751997I-10975J-104425D01*
G01*
X133134545Y-83960847D01*
G75*
G02*
X133019145Y-84054297I-104425J10975D01*
G01*
X131935116Y-83940361D01*
G75*
G02*
X131841666Y-83824961I10975J104425D01*
G01*
X131863617Y-83616111D01*
G75*
G02*
X131979017Y-83522661I104425J-10975D01*
G01*
G37*
G36*
G01*
X131890168Y-84368004D02*
X132974197Y-84481940D01*
G75*
G02*
X133067647Y-84597340I-10975J-104425D01*
G01*
X133045696Y-84806190D01*
G75*
G02*
X132930296Y-84899640I-104425J10975D01*
G01*
X131846267Y-84785704D01*
G75*
G02*
X131752817Y-84670304I10975J104425D01*
G01*
X131774768Y-84461454D01*
G75*
G02*
X131890168Y-84368004I104425J-10975D01*
G01*
G37*
G36*
G01*
X131801318Y-85213348D02*
X132885347Y-85327284D01*
G75*
G02*
X132978797Y-85442684I-10975J-104425D01*
G01*
X132956846Y-85651534D01*
G75*
G02*
X132841446Y-85744984I-104425J10975D01*
G01*
X131757417Y-85631048D01*
G75*
G02*
X131663967Y-85515648I10975J104425D01*
G01*
X131685918Y-85306798D01*
G75*
G02*
X131801318Y-85213348I104425J-10975D01*
G01*
G37*
G36*
G01*
X136855768Y-70542586D02*
X135789587Y-70315963D01*
G75*
G02*
X135708713Y-70191427I21831J102705D01*
G01*
X135752374Y-69986016D01*
G75*
G02*
X135876910Y-69905142I102705J-21831D01*
G01*
X136943091Y-70131765D01*
G75*
G02*
X137023965Y-70256301I-21831J-102705D01*
G01*
X136980304Y-70461712D01*
G75*
G02*
X136855768Y-70542586I-102705J21831D01*
G01*
G37*
G36*
G01*
X137032493Y-69711160D02*
X135966312Y-69484537D01*
G75*
G02*
X135885438Y-69360001I21831J102705D01*
G01*
X135929099Y-69154590D01*
G75*
G02*
X136053635Y-69073716I102705J-21831D01*
G01*
X137119816Y-69300339D01*
G75*
G02*
X137200690Y-69424875I-21831J-102705D01*
G01*
X137157029Y-69630286D01*
G75*
G02*
X137032493Y-69711160I-102705J21831D01*
G01*
G37*
G36*
G01*
X137209218Y-68879735D02*
X136143037Y-68653112D01*
G75*
G02*
X136062163Y-68528576I21831J102705D01*
G01*
X136105824Y-68323165D01*
G75*
G02*
X136230360Y-68242291I102705J-21831D01*
G01*
X137296541Y-68468914D01*
G75*
G02*
X137377415Y-68593450I-21831J-102705D01*
G01*
X137333754Y-68798861D01*
G75*
G02*
X137209218Y-68879735I-102705J21831D01*
G01*
G37*
G36*
G01*
X137385942Y-68048309D02*
X136319761Y-67821686D01*
G75*
G02*
X136238887Y-67697150I21831J102705D01*
G01*
X136282548Y-67491739D01*
G75*
G02*
X136407084Y-67410865I102705J-21831D01*
G01*
X137473265Y-67637488D01*
G75*
G02*
X137554139Y-67762024I-21831J-102705D01*
G01*
X137510478Y-67967435D01*
G75*
G02*
X137385942Y-68048309I-102705J21831D01*
G01*
G37*
G36*
G01*
X134744232Y-67057414D02*
X135810413Y-67284037D01*
G75*
G02*
X135891287Y-67408573I-21831J-102705D01*
G01*
X135847626Y-67613984D01*
G75*
G02*
X135723090Y-67694858I-102705J21831D01*
G01*
X134656909Y-67468235D01*
G75*
G02*
X134576035Y-67343699I21831J102705D01*
G01*
X134619696Y-67138288D01*
G75*
G02*
X134744232Y-67057414I102705J-21831D01*
G01*
G37*
G36*
G01*
X134567507Y-67888840D02*
X135633688Y-68115463D01*
G75*
G02*
X135714562Y-68239999I-21831J-102705D01*
G01*
X135670901Y-68445410D01*
G75*
G02*
X135546365Y-68526284I-102705J21831D01*
G01*
X134480184Y-68299661D01*
G75*
G02*
X134399310Y-68175125I21831J102705D01*
G01*
X134442971Y-67969714D01*
G75*
G02*
X134567507Y-67888840I102705J-21831D01*
G01*
G37*
G36*
G01*
X134390782Y-68720265D02*
X135456963Y-68946888D01*
G75*
G02*
X135537837Y-69071424I-21831J-102705D01*
G01*
X135494176Y-69276835D01*
G75*
G02*
X135369640Y-69357709I-102705J21831D01*
G01*
X134303459Y-69131086D01*
G75*
G02*
X134222585Y-69006550I21831J102705D01*
G01*
X134266246Y-68801139D01*
G75*
G02*
X134390782Y-68720265I102705J-21831D01*
G01*
G37*
G36*
G01*
X134214058Y-69551691D02*
X135280239Y-69778314D01*
G75*
G02*
X135361113Y-69902850I-21831J-102705D01*
G01*
X135317452Y-70108261D01*
G75*
G02*
X135192916Y-70189135I-102705J21831D01*
G01*
X134126735Y-69962512D01*
G75*
G02*
X134045861Y-69837976I21831J102705D01*
G01*
X134089522Y-69632565D01*
G75*
G02*
X134214058Y-69551691I102705J-21831D01*
G01*
G37*
G36*
G01*
X116973265Y-132362512D02*
X115907084Y-132589135D01*
G75*
G02*
X115782548Y-132508261I-21831J102705D01*
G01*
X115738887Y-132302850D01*
G75*
G02*
X115819761Y-132178314I102705J21831D01*
G01*
X116885942Y-131951691D01*
G75*
G02*
X117010478Y-132032565I21831J-102705D01*
G01*
X117054139Y-132237976D01*
G75*
G02*
X116973265Y-132362512I-102705J-21831D01*
G01*
G37*
G36*
G01*
X116796541Y-131531086D02*
X115730360Y-131757709D01*
G75*
G02*
X115605824Y-131676835I-21831J102705D01*
G01*
X115562163Y-131471424D01*
G75*
G02*
X115643037Y-131346888I102705J21831D01*
G01*
X116709218Y-131120265D01*
G75*
G02*
X116833754Y-131201139I21831J-102705D01*
G01*
X116877415Y-131406550D01*
G75*
G02*
X116796541Y-131531086I-102705J-21831D01*
G01*
G37*
G36*
G01*
X116619816Y-130699661D02*
X115553635Y-130926284D01*
G75*
G02*
X115429099Y-130845410I-21831J102705D01*
G01*
X115385438Y-130639999D01*
G75*
G02*
X115466312Y-130515463I102705J21831D01*
G01*
X116532493Y-130288840D01*
G75*
G02*
X116657029Y-130369714I21831J-102705D01*
G01*
X116700690Y-130575125D01*
G75*
G02*
X116619816Y-130699661I-102705J-21831D01*
G01*
G37*
G36*
G01*
X116443091Y-129868235D02*
X115376910Y-130094858D01*
G75*
G02*
X115252374Y-130013984I-21831J102705D01*
G01*
X115208713Y-129808573D01*
G75*
G02*
X115289587Y-129684037I102705J21831D01*
G01*
X116355768Y-129457414D01*
G75*
G02*
X116480304Y-129538288I21831J-102705D01*
G01*
X116523965Y-129743699D01*
G75*
G02*
X116443091Y-129868235I-102705J-21831D01*
G01*
G37*
G36*
G01*
X113626735Y-130037488D02*
X114692916Y-129810865D01*
G75*
G02*
X114817452Y-129891739I21831J-102705D01*
G01*
X114861113Y-130097150D01*
G75*
G02*
X114780239Y-130221686I-102705J-21831D01*
G01*
X113714058Y-130448309D01*
G75*
G02*
X113589522Y-130367435I-21831J102705D01*
G01*
X113545861Y-130162024D01*
G75*
G02*
X113626735Y-130037488I102705J21831D01*
G01*
G37*
G36*
G01*
X113803459Y-130868914D02*
X114869640Y-130642291D01*
G75*
G02*
X114994176Y-130723165I21831J-102705D01*
G01*
X115037837Y-130928576D01*
G75*
G02*
X114956963Y-131053112I-102705J-21831D01*
G01*
X113890782Y-131279735D01*
G75*
G02*
X113766246Y-131198861I-21831J102705D01*
G01*
X113722585Y-130993450D01*
G75*
G02*
X113803459Y-130868914I102705J21831D01*
G01*
G37*
G36*
G01*
X113980184Y-131700339D02*
X115046365Y-131473716D01*
G75*
G02*
X115170901Y-131554590I21831J-102705D01*
G01*
X115214562Y-131760001D01*
G75*
G02*
X115133688Y-131884537I-102705J-21831D01*
G01*
X114067507Y-132111160D01*
G75*
G02*
X113942971Y-132030286I-21831J102705D01*
G01*
X113899310Y-131824875D01*
G75*
G02*
X113980184Y-131700339I102705J21831D01*
G01*
G37*
G36*
G01*
X114156909Y-132531765D02*
X115223090Y-132305142D01*
G75*
G02*
X115347626Y-132386016I21831J-102705D01*
G01*
X115391287Y-132591427D01*
G75*
G02*
X115310413Y-132715963I-102705J-21831D01*
G01*
X114244232Y-132942586D01*
G75*
G02*
X114119696Y-132861712I-21831J102705D01*
G01*
X114076035Y-132656301D01*
G75*
G02*
X114156909Y-132531765I102705J21831D01*
G01*
G37*
G36*
G01*
X114342583Y-117031048D02*
X113258554Y-117144984D01*
G75*
G02*
X113143154Y-117051534I-10975J104425D01*
G01*
X113121203Y-116842684D01*
G75*
G02*
X113214653Y-116727284I104425J10975D01*
G01*
X114298682Y-116613348D01*
G75*
G02*
X114414082Y-116706798I10975J-104425D01*
G01*
X114436033Y-116915648D01*
G75*
G02*
X114342583Y-117031048I-104425J-10975D01*
G01*
G37*
G36*
G01*
X114253733Y-116185704D02*
X113169704Y-116299640D01*
G75*
G02*
X113054304Y-116206190I-10975J104425D01*
G01*
X113032353Y-115997340D01*
G75*
G02*
X113125803Y-115881940I104425J10975D01*
G01*
X114209832Y-115768004D01*
G75*
G02*
X114325232Y-115861454I10975J-104425D01*
G01*
X114347183Y-116070304D01*
G75*
G02*
X114253733Y-116185704I-104425J-10975D01*
G01*
G37*
G36*
G01*
X114164884Y-115340361D02*
X113080855Y-115454297D01*
G75*
G02*
X112965455Y-115360847I-10975J104425D01*
G01*
X112943504Y-115151997D01*
G75*
G02*
X113036954Y-115036597I104425J10975D01*
G01*
X114120983Y-114922661D01*
G75*
G02*
X114236383Y-115016111I10975J-104425D01*
G01*
X114258334Y-115224961D01*
G75*
G02*
X114164884Y-115340361I-104425J-10975D01*
G01*
G37*
G36*
G01*
X114076035Y-114495017D02*
X112992006Y-114608953D01*
G75*
G02*
X112876606Y-114515503I-10975J104425D01*
G01*
X112854655Y-114306653D01*
G75*
G02*
X112948105Y-114191253I104425J10975D01*
G01*
X114032134Y-114077317D01*
G75*
G02*
X114147534Y-114170767I10975J-104425D01*
G01*
X114169485Y-114379617D01*
G75*
G02*
X114076035Y-114495017I-104425J-10975D01*
G01*
G37*
G36*
G01*
X111257417Y-114368952D02*
X112341446Y-114255016D01*
G75*
G02*
X112456846Y-114348466I10975J-104425D01*
G01*
X112478797Y-114557316D01*
G75*
G02*
X112385347Y-114672716I-104425J-10975D01*
G01*
X111301318Y-114786652D01*
G75*
G02*
X111185918Y-114693202I-10975J104425D01*
G01*
X111163967Y-114484352D01*
G75*
G02*
X111257417Y-114368952I104425J10975D01*
G01*
G37*
G36*
G01*
X111346267Y-115214296D02*
X112430296Y-115100360D01*
G75*
G02*
X112545696Y-115193810I10975J-104425D01*
G01*
X112567647Y-115402660D01*
G75*
G02*
X112474197Y-115518060I-104425J-10975D01*
G01*
X111390168Y-115631996D01*
G75*
G02*
X111274768Y-115538546I-10975J104425D01*
G01*
X111252817Y-115329696D01*
G75*
G02*
X111346267Y-115214296I104425J10975D01*
G01*
G37*
G36*
G01*
X111435116Y-116059639D02*
X112519145Y-115945703D01*
G75*
G02*
X112634545Y-116039153I10975J-104425D01*
G01*
X112656496Y-116248003D01*
G75*
G02*
X112563046Y-116363403I-104425J-10975D01*
G01*
X111479017Y-116477339D01*
G75*
G02*
X111363617Y-116383889I-10975J104425D01*
G01*
X111341666Y-116175039D01*
G75*
G02*
X111435116Y-116059639I104425J10975D01*
G01*
G37*
G36*
G01*
X111523965Y-116904983D02*
X112607994Y-116791047D01*
G75*
G02*
X112723394Y-116884497I10975J-104425D01*
G01*
X112745345Y-117093347D01*
G75*
G02*
X112651895Y-117208747I-104425J-10975D01*
G01*
X111567866Y-117322683D01*
G75*
G02*
X111452466Y-117229233I-10975J104425D01*
G01*
X111430515Y-117020383D01*
G75*
G02*
X111523965Y-116904983I104425J10975D01*
G01*
G37*
G36*
G01*
X113395000Y-101485000D02*
X112305000Y-101485000D01*
G75*
G02*
X112200000Y-101380000I0J105000D01*
G01*
X112200000Y-101170000D01*
G75*
G02*
X112305000Y-101065000I105000J0D01*
G01*
X113395000Y-101065000D01*
G75*
G02*
X113500000Y-101170000I0J-105000D01*
G01*
X113500000Y-101380000D01*
G75*
G02*
X113395000Y-101485000I-105000J0D01*
G01*
G37*
G36*
G01*
X113395000Y-100635000D02*
X112305000Y-100635000D01*
G75*
G02*
X112200000Y-100530000I0J105000D01*
G01*
X112200000Y-100320000D01*
G75*
G02*
X112305000Y-100215000I105000J0D01*
G01*
X113395000Y-100215000D01*
G75*
G02*
X113500000Y-100320000I0J-105000D01*
G01*
X113500000Y-100530000D01*
G75*
G02*
X113395000Y-100635000I-105000J0D01*
G01*
G37*
G36*
G01*
X113395000Y-99785000D02*
X112305000Y-99785000D01*
G75*
G02*
X112200000Y-99680000I0J105000D01*
G01*
X112200000Y-99470000D01*
G75*
G02*
X112305000Y-99365000I105000J0D01*
G01*
X113395000Y-99365000D01*
G75*
G02*
X113500000Y-99470000I0J-105000D01*
G01*
X113500000Y-99680000D01*
G75*
G02*
X113395000Y-99785000I-105000J0D01*
G01*
G37*
G36*
G01*
X113395000Y-98935000D02*
X112305000Y-98935000D01*
G75*
G02*
X112200000Y-98830000I0J105000D01*
G01*
X112200000Y-98620000D01*
G75*
G02*
X112305000Y-98515000I105000J0D01*
G01*
X113395000Y-98515000D01*
G75*
G02*
X113500000Y-98620000I0J-105000D01*
G01*
X113500000Y-98830000D01*
G75*
G02*
X113395000Y-98935000I-105000J0D01*
G01*
G37*
G36*
G01*
X110605000Y-98515000D02*
X111695000Y-98515000D01*
G75*
G02*
X111800000Y-98620000I0J-105000D01*
G01*
X111800000Y-98830000D01*
G75*
G02*
X111695000Y-98935000I-105000J0D01*
G01*
X110605000Y-98935000D01*
G75*
G02*
X110500000Y-98830000I0J105000D01*
G01*
X110500000Y-98620000D01*
G75*
G02*
X110605000Y-98515000I105000J0D01*
G01*
G37*
G36*
G01*
X110605000Y-99365000D02*
X111695000Y-99365000D01*
G75*
G02*
X111800000Y-99470000I0J-105000D01*
G01*
X111800000Y-99680000D01*
G75*
G02*
X111695000Y-99785000I-105000J0D01*
G01*
X110605000Y-99785000D01*
G75*
G02*
X110500000Y-99680000I0J105000D01*
G01*
X110500000Y-99470000D01*
G75*
G02*
X110605000Y-99365000I105000J0D01*
G01*
G37*
G36*
G01*
X110605000Y-100215000D02*
X111695000Y-100215000D01*
G75*
G02*
X111800000Y-100320000I0J-105000D01*
G01*
X111800000Y-100530000D01*
G75*
G02*
X111695000Y-100635000I-105000J0D01*
G01*
X110605000Y-100635000D01*
G75*
G02*
X110500000Y-100530000I0J105000D01*
G01*
X110500000Y-100320000D01*
G75*
G02*
X110605000Y-100215000I105000J0D01*
G01*
G37*
G36*
G01*
X110605000Y-101065000D02*
X111695000Y-101065000D01*
G75*
G02*
X111800000Y-101170000I0J-105000D01*
G01*
X111800000Y-101380000D01*
G75*
G02*
X111695000Y-101485000I-105000J0D01*
G01*
X110605000Y-101485000D01*
G75*
G02*
X110500000Y-101380000I0J105000D01*
G01*
X110500000Y-101170000D01*
G75*
G02*
X110605000Y-101065000I105000J0D01*
G01*
G37*
G36*
G01*
X114032134Y-85922683D02*
X112948105Y-85808747D01*
G75*
G02*
X112854655Y-85693347I10975J104425D01*
G01*
X112876606Y-85484497D01*
G75*
G02*
X112992006Y-85391047I104425J-10975D01*
G01*
X114076035Y-85504983D01*
G75*
G02*
X114169485Y-85620383I-10975J-104425D01*
G01*
X114147534Y-85829233D01*
G75*
G02*
X114032134Y-85922683I-104425J10975D01*
G01*
G37*
G36*
G01*
X114120983Y-85077339D02*
X113036954Y-84963403D01*
G75*
G02*
X112943504Y-84848003I10975J104425D01*
G01*
X112965455Y-84639153D01*
G75*
G02*
X113080855Y-84545703I104425J-10975D01*
G01*
X114164884Y-84659639D01*
G75*
G02*
X114258334Y-84775039I-10975J-104425D01*
G01*
X114236383Y-84983889D01*
G75*
G02*
X114120983Y-85077339I-104425J10975D01*
G01*
G37*
G36*
G01*
X114209832Y-84231996D02*
X113125803Y-84118060D01*
G75*
G02*
X113032353Y-84002660I10975J104425D01*
G01*
X113054304Y-83793810D01*
G75*
G02*
X113169704Y-83700360I104425J-10975D01*
G01*
X114253733Y-83814296D01*
G75*
G02*
X114347183Y-83929696I-10975J-104425D01*
G01*
X114325232Y-84138546D01*
G75*
G02*
X114209832Y-84231996I-104425J10975D01*
G01*
G37*
G36*
G01*
X114298682Y-83386652D02*
X113214653Y-83272716D01*
G75*
G02*
X113121203Y-83157316I10975J104425D01*
G01*
X113143154Y-82948466D01*
G75*
G02*
X113258554Y-82855016I104425J-10975D01*
G01*
X114342583Y-82968952D01*
G75*
G02*
X114436033Y-83084352I-10975J-104425D01*
G01*
X114414082Y-83293202D01*
G75*
G02*
X114298682Y-83386652I-104425J10975D01*
G01*
G37*
G36*
G01*
X111567866Y-82677317D02*
X112651895Y-82791253D01*
G75*
G02*
X112745345Y-82906653I-10975J-104425D01*
G01*
X112723394Y-83115503D01*
G75*
G02*
X112607994Y-83208953I-104425J10975D01*
G01*
X111523965Y-83095017D01*
G75*
G02*
X111430515Y-82979617I10975J104425D01*
G01*
X111452466Y-82770767D01*
G75*
G02*
X111567866Y-82677317I104425J-10975D01*
G01*
G37*
G36*
G01*
X111479017Y-83522661D02*
X112563046Y-83636597D01*
G75*
G02*
X112656496Y-83751997I-10975J-104425D01*
G01*
X112634545Y-83960847D01*
G75*
G02*
X112519145Y-84054297I-104425J10975D01*
G01*
X111435116Y-83940361D01*
G75*
G02*
X111341666Y-83824961I10975J104425D01*
G01*
X111363617Y-83616111D01*
G75*
G02*
X111479017Y-83522661I104425J-10975D01*
G01*
G37*
G36*
G01*
X111390168Y-84368004D02*
X112474197Y-84481940D01*
G75*
G02*
X112567647Y-84597340I-10975J-104425D01*
G01*
X112545696Y-84806190D01*
G75*
G02*
X112430296Y-84899640I-104425J10975D01*
G01*
X111346267Y-84785704D01*
G75*
G02*
X111252817Y-84670304I10975J104425D01*
G01*
X111274768Y-84461454D01*
G75*
G02*
X111390168Y-84368004I104425J-10975D01*
G01*
G37*
G36*
G01*
X111301318Y-85213348D02*
X112385347Y-85327284D01*
G75*
G02*
X112478797Y-85442684I-10975J-104425D01*
G01*
X112456846Y-85651534D01*
G75*
G02*
X112341446Y-85744984I-104425J10975D01*
G01*
X111257417Y-85631048D01*
G75*
G02*
X111163967Y-85515648I10975J104425D01*
G01*
X111185918Y-85306798D01*
G75*
G02*
X111301318Y-85213348I104425J-10975D01*
G01*
G37*
G36*
G01*
X116355768Y-70542586D02*
X115289587Y-70315963D01*
G75*
G02*
X115208713Y-70191427I21831J102705D01*
G01*
X115252374Y-69986016D01*
G75*
G02*
X115376910Y-69905142I102705J-21831D01*
G01*
X116443091Y-70131765D01*
G75*
G02*
X116523965Y-70256301I-21831J-102705D01*
G01*
X116480304Y-70461712D01*
G75*
G02*
X116355768Y-70542586I-102705J21831D01*
G01*
G37*
G36*
G01*
X116532493Y-69711160D02*
X115466312Y-69484537D01*
G75*
G02*
X115385438Y-69360001I21831J102705D01*
G01*
X115429099Y-69154590D01*
G75*
G02*
X115553635Y-69073716I102705J-21831D01*
G01*
X116619816Y-69300339D01*
G75*
G02*
X116700690Y-69424875I-21831J-102705D01*
G01*
X116657029Y-69630286D01*
G75*
G02*
X116532493Y-69711160I-102705J21831D01*
G01*
G37*
G36*
G01*
X116709218Y-68879735D02*
X115643037Y-68653112D01*
G75*
G02*
X115562163Y-68528576I21831J102705D01*
G01*
X115605824Y-68323165D01*
G75*
G02*
X115730360Y-68242291I102705J-21831D01*
G01*
X116796541Y-68468914D01*
G75*
G02*
X116877415Y-68593450I-21831J-102705D01*
G01*
X116833754Y-68798861D01*
G75*
G02*
X116709218Y-68879735I-102705J21831D01*
G01*
G37*
G36*
G01*
X116885942Y-68048309D02*
X115819761Y-67821686D01*
G75*
G02*
X115738887Y-67697150I21831J102705D01*
G01*
X115782548Y-67491739D01*
G75*
G02*
X115907084Y-67410865I102705J-21831D01*
G01*
X116973265Y-67637488D01*
G75*
G02*
X117054139Y-67762024I-21831J-102705D01*
G01*
X117010478Y-67967435D01*
G75*
G02*
X116885942Y-68048309I-102705J21831D01*
G01*
G37*
G36*
G01*
X114244232Y-67057414D02*
X115310413Y-67284037D01*
G75*
G02*
X115391287Y-67408573I-21831J-102705D01*
G01*
X115347626Y-67613984D01*
G75*
G02*
X115223090Y-67694858I-102705J21831D01*
G01*
X114156909Y-67468235D01*
G75*
G02*
X114076035Y-67343699I21831J102705D01*
G01*
X114119696Y-67138288D01*
G75*
G02*
X114244232Y-67057414I102705J-21831D01*
G01*
G37*
G36*
G01*
X114067507Y-67888840D02*
X115133688Y-68115463D01*
G75*
G02*
X115214562Y-68239999I-21831J-102705D01*
G01*
X115170901Y-68445410D01*
G75*
G02*
X115046365Y-68526284I-102705J21831D01*
G01*
X113980184Y-68299661D01*
G75*
G02*
X113899310Y-68175125I21831J102705D01*
G01*
X113942971Y-67969714D01*
G75*
G02*
X114067507Y-67888840I102705J-21831D01*
G01*
G37*
G36*
G01*
X113890782Y-68720265D02*
X114956963Y-68946888D01*
G75*
G02*
X115037837Y-69071424I-21831J-102705D01*
G01*
X114994176Y-69276835D01*
G75*
G02*
X114869640Y-69357709I-102705J21831D01*
G01*
X113803459Y-69131086D01*
G75*
G02*
X113722585Y-69006550I21831J102705D01*
G01*
X113766246Y-68801139D01*
G75*
G02*
X113890782Y-68720265I102705J-21831D01*
G01*
G37*
G36*
G01*
X113714058Y-69551691D02*
X114780239Y-69778314D01*
G75*
G02*
X114861113Y-69902850I-21831J-102705D01*
G01*
X114817452Y-70108261D01*
G75*
G02*
X114692916Y-70189135I-102705J21831D01*
G01*
X113626735Y-69962512D01*
G75*
G02*
X113545861Y-69837976I21831J102705D01*
G01*
X113589522Y-69632565D01*
G75*
G02*
X113714058Y-69551691I102705J-21831D01*
G01*
G37*
G36*
G01*
X103973265Y-132362512D02*
X102907084Y-132589135D01*
G75*
G02*
X102782548Y-132508261I-21831J102705D01*
G01*
X102738887Y-132302850D01*
G75*
G02*
X102819761Y-132178314I102705J21831D01*
G01*
X103885942Y-131951691D01*
G75*
G02*
X104010478Y-132032565I21831J-102705D01*
G01*
X104054139Y-132237976D01*
G75*
G02*
X103973265Y-132362512I-102705J-21831D01*
G01*
G37*
G36*
G01*
X103796541Y-131531086D02*
X102730360Y-131757709D01*
G75*
G02*
X102605824Y-131676835I-21831J102705D01*
G01*
X102562163Y-131471424D01*
G75*
G02*
X102643037Y-131346888I102705J21831D01*
G01*
X103709218Y-131120265D01*
G75*
G02*
X103833754Y-131201139I21831J-102705D01*
G01*
X103877415Y-131406550D01*
G75*
G02*
X103796541Y-131531086I-102705J-21831D01*
G01*
G37*
G36*
G01*
X103619816Y-130699661D02*
X102553635Y-130926284D01*
G75*
G02*
X102429099Y-130845410I-21831J102705D01*
G01*
X102385438Y-130639999D01*
G75*
G02*
X102466312Y-130515463I102705J21831D01*
G01*
X103532493Y-130288840D01*
G75*
G02*
X103657029Y-130369714I21831J-102705D01*
G01*
X103700690Y-130575125D01*
G75*
G02*
X103619816Y-130699661I-102705J-21831D01*
G01*
G37*
G36*
G01*
X103443091Y-129868235D02*
X102376910Y-130094858D01*
G75*
G02*
X102252374Y-130013984I-21831J102705D01*
G01*
X102208713Y-129808573D01*
G75*
G02*
X102289587Y-129684037I102705J21831D01*
G01*
X103355768Y-129457414D01*
G75*
G02*
X103480304Y-129538288I21831J-102705D01*
G01*
X103523965Y-129743699D01*
G75*
G02*
X103443091Y-129868235I-102705J-21831D01*
G01*
G37*
G36*
G01*
X100626735Y-130037488D02*
X101692916Y-129810865D01*
G75*
G02*
X101817452Y-129891739I21831J-102705D01*
G01*
X101861113Y-130097150D01*
G75*
G02*
X101780239Y-130221686I-102705J-21831D01*
G01*
X100714058Y-130448309D01*
G75*
G02*
X100589522Y-130367435I-21831J102705D01*
G01*
X100545861Y-130162024D01*
G75*
G02*
X100626735Y-130037488I102705J21831D01*
G01*
G37*
G36*
G01*
X100803459Y-130868914D02*
X101869640Y-130642291D01*
G75*
G02*
X101994176Y-130723165I21831J-102705D01*
G01*
X102037837Y-130928576D01*
G75*
G02*
X101956963Y-131053112I-102705J-21831D01*
G01*
X100890782Y-131279735D01*
G75*
G02*
X100766246Y-131198861I-21831J102705D01*
G01*
X100722585Y-130993450D01*
G75*
G02*
X100803459Y-130868914I102705J21831D01*
G01*
G37*
G36*
G01*
X100980184Y-131700339D02*
X102046365Y-131473716D01*
G75*
G02*
X102170901Y-131554590I21831J-102705D01*
G01*
X102214562Y-131760001D01*
G75*
G02*
X102133688Y-131884537I-102705J-21831D01*
G01*
X101067507Y-132111160D01*
G75*
G02*
X100942971Y-132030286I-21831J102705D01*
G01*
X100899310Y-131824875D01*
G75*
G02*
X100980184Y-131700339I102705J21831D01*
G01*
G37*
G36*
G01*
X101156909Y-132531765D02*
X102223090Y-132305142D01*
G75*
G02*
X102347626Y-132386016I21831J-102705D01*
G01*
X102391287Y-132591427D01*
G75*
G02*
X102310413Y-132715963I-102705J-21831D01*
G01*
X101244232Y-132942586D01*
G75*
G02*
X101119696Y-132861712I-21831J102705D01*
G01*
X101076035Y-132656301D01*
G75*
G02*
X101156909Y-132531765I102705J21831D01*
G01*
G37*
G36*
G01*
X101342583Y-117031048D02*
X100258554Y-117144984D01*
G75*
G02*
X100143154Y-117051534I-10975J104425D01*
G01*
X100121203Y-116842684D01*
G75*
G02*
X100214653Y-116727284I104425J10975D01*
G01*
X101298682Y-116613348D01*
G75*
G02*
X101414082Y-116706798I10975J-104425D01*
G01*
X101436033Y-116915648D01*
G75*
G02*
X101342583Y-117031048I-104425J-10975D01*
G01*
G37*
G36*
G01*
X101253733Y-116185704D02*
X100169704Y-116299640D01*
G75*
G02*
X100054304Y-116206190I-10975J104425D01*
G01*
X100032353Y-115997340D01*
G75*
G02*
X100125803Y-115881940I104425J10975D01*
G01*
X101209832Y-115768004D01*
G75*
G02*
X101325232Y-115861454I10975J-104425D01*
G01*
X101347183Y-116070304D01*
G75*
G02*
X101253733Y-116185704I-104425J-10975D01*
G01*
G37*
G36*
G01*
X101164884Y-115340361D02*
X100080855Y-115454297D01*
G75*
G02*
X99965455Y-115360847I-10975J104425D01*
G01*
X99943504Y-115151997D01*
G75*
G02*
X100036954Y-115036597I104425J10975D01*
G01*
X101120983Y-114922661D01*
G75*
G02*
X101236383Y-115016111I10975J-104425D01*
G01*
X101258334Y-115224961D01*
G75*
G02*
X101164884Y-115340361I-104425J-10975D01*
G01*
G37*
G36*
G01*
X101076035Y-114495017D02*
X99992006Y-114608953D01*
G75*
G02*
X99876606Y-114515503I-10975J104425D01*
G01*
X99854655Y-114306653D01*
G75*
G02*
X99948105Y-114191253I104425J10975D01*
G01*
X101032134Y-114077317D01*
G75*
G02*
X101147534Y-114170767I10975J-104425D01*
G01*
X101169485Y-114379617D01*
G75*
G02*
X101076035Y-114495017I-104425J-10975D01*
G01*
G37*
G36*
G01*
X98257417Y-114368952D02*
X99341446Y-114255016D01*
G75*
G02*
X99456846Y-114348466I10975J-104425D01*
G01*
X99478797Y-114557316D01*
G75*
G02*
X99385347Y-114672716I-104425J-10975D01*
G01*
X98301318Y-114786652D01*
G75*
G02*
X98185918Y-114693202I-10975J104425D01*
G01*
X98163967Y-114484352D01*
G75*
G02*
X98257417Y-114368952I104425J10975D01*
G01*
G37*
G36*
G01*
X98346267Y-115214296D02*
X99430296Y-115100360D01*
G75*
G02*
X99545696Y-115193810I10975J-104425D01*
G01*
X99567647Y-115402660D01*
G75*
G02*
X99474197Y-115518060I-104425J-10975D01*
G01*
X98390168Y-115631996D01*
G75*
G02*
X98274768Y-115538546I-10975J104425D01*
G01*
X98252817Y-115329696D01*
G75*
G02*
X98346267Y-115214296I104425J10975D01*
G01*
G37*
G36*
G01*
X98435116Y-116059639D02*
X99519145Y-115945703D01*
G75*
G02*
X99634545Y-116039153I10975J-104425D01*
G01*
X99656496Y-116248003D01*
G75*
G02*
X99563046Y-116363403I-104425J-10975D01*
G01*
X98479017Y-116477339D01*
G75*
G02*
X98363617Y-116383889I-10975J104425D01*
G01*
X98341666Y-116175039D01*
G75*
G02*
X98435116Y-116059639I104425J10975D01*
G01*
G37*
G36*
G01*
X98523965Y-116904983D02*
X99607994Y-116791047D01*
G75*
G02*
X99723394Y-116884497I10975J-104425D01*
G01*
X99745345Y-117093347D01*
G75*
G02*
X99651895Y-117208747I-104425J-10975D01*
G01*
X98567866Y-117322683D01*
G75*
G02*
X98452466Y-117229233I-10975J104425D01*
G01*
X98430515Y-117020383D01*
G75*
G02*
X98523965Y-116904983I104425J10975D01*
G01*
G37*
G36*
G01*
X100395000Y-101485000D02*
X99305000Y-101485000D01*
G75*
G02*
X99200000Y-101380000I0J105000D01*
G01*
X99200000Y-101170000D01*
G75*
G02*
X99305000Y-101065000I105000J0D01*
G01*
X100395000Y-101065000D01*
G75*
G02*
X100500000Y-101170000I0J-105000D01*
G01*
X100500000Y-101380000D01*
G75*
G02*
X100395000Y-101485000I-105000J0D01*
G01*
G37*
G36*
G01*
X100395000Y-100635000D02*
X99305000Y-100635000D01*
G75*
G02*
X99200000Y-100530000I0J105000D01*
G01*
X99200000Y-100320000D01*
G75*
G02*
X99305000Y-100215000I105000J0D01*
G01*
X100395000Y-100215000D01*
G75*
G02*
X100500000Y-100320000I0J-105000D01*
G01*
X100500000Y-100530000D01*
G75*
G02*
X100395000Y-100635000I-105000J0D01*
G01*
G37*
G36*
G01*
X100395000Y-99785000D02*
X99305000Y-99785000D01*
G75*
G02*
X99200000Y-99680000I0J105000D01*
G01*
X99200000Y-99470000D01*
G75*
G02*
X99305000Y-99365000I105000J0D01*
G01*
X100395000Y-99365000D01*
G75*
G02*
X100500000Y-99470000I0J-105000D01*
G01*
X100500000Y-99680000D01*
G75*
G02*
X100395000Y-99785000I-105000J0D01*
G01*
G37*
G36*
G01*
X100395000Y-98935000D02*
X99305000Y-98935000D01*
G75*
G02*
X99200000Y-98830000I0J105000D01*
G01*
X99200000Y-98620000D01*
G75*
G02*
X99305000Y-98515000I105000J0D01*
G01*
X100395000Y-98515000D01*
G75*
G02*
X100500000Y-98620000I0J-105000D01*
G01*
X100500000Y-98830000D01*
G75*
G02*
X100395000Y-98935000I-105000J0D01*
G01*
G37*
G36*
G01*
X97605000Y-98515000D02*
X98695000Y-98515000D01*
G75*
G02*
X98800000Y-98620000I0J-105000D01*
G01*
X98800000Y-98830000D01*
G75*
G02*
X98695000Y-98935000I-105000J0D01*
G01*
X97605000Y-98935000D01*
G75*
G02*
X97500000Y-98830000I0J105000D01*
G01*
X97500000Y-98620000D01*
G75*
G02*
X97605000Y-98515000I105000J0D01*
G01*
G37*
G36*
G01*
X97605000Y-99365000D02*
X98695000Y-99365000D01*
G75*
G02*
X98800000Y-99470000I0J-105000D01*
G01*
X98800000Y-99680000D01*
G75*
G02*
X98695000Y-99785000I-105000J0D01*
G01*
X97605000Y-99785000D01*
G75*
G02*
X97500000Y-99680000I0J105000D01*
G01*
X97500000Y-99470000D01*
G75*
G02*
X97605000Y-99365000I105000J0D01*
G01*
G37*
G36*
G01*
X97605000Y-100215000D02*
X98695000Y-100215000D01*
G75*
G02*
X98800000Y-100320000I0J-105000D01*
G01*
X98800000Y-100530000D01*
G75*
G02*
X98695000Y-100635000I-105000J0D01*
G01*
X97605000Y-100635000D01*
G75*
G02*
X97500000Y-100530000I0J105000D01*
G01*
X97500000Y-100320000D01*
G75*
G02*
X97605000Y-100215000I105000J0D01*
G01*
G37*
G36*
G01*
X97605000Y-101065000D02*
X98695000Y-101065000D01*
G75*
G02*
X98800000Y-101170000I0J-105000D01*
G01*
X98800000Y-101380000D01*
G75*
G02*
X98695000Y-101485000I-105000J0D01*
G01*
X97605000Y-101485000D01*
G75*
G02*
X97500000Y-101380000I0J105000D01*
G01*
X97500000Y-101170000D01*
G75*
G02*
X97605000Y-101065000I105000J0D01*
G01*
G37*
G36*
G01*
X101032134Y-85922683D02*
X99948105Y-85808747D01*
G75*
G02*
X99854655Y-85693347I10975J104425D01*
G01*
X99876606Y-85484497D01*
G75*
G02*
X99992006Y-85391047I104425J-10975D01*
G01*
X101076035Y-85504983D01*
G75*
G02*
X101169485Y-85620383I-10975J-104425D01*
G01*
X101147534Y-85829233D01*
G75*
G02*
X101032134Y-85922683I-104425J10975D01*
G01*
G37*
G36*
G01*
X101120983Y-85077339D02*
X100036954Y-84963403D01*
G75*
G02*
X99943504Y-84848003I10975J104425D01*
G01*
X99965455Y-84639153D01*
G75*
G02*
X100080855Y-84545703I104425J-10975D01*
G01*
X101164884Y-84659639D01*
G75*
G02*
X101258334Y-84775039I-10975J-104425D01*
G01*
X101236383Y-84983889D01*
G75*
G02*
X101120983Y-85077339I-104425J10975D01*
G01*
G37*
G36*
G01*
X101209832Y-84231996D02*
X100125803Y-84118060D01*
G75*
G02*
X100032353Y-84002660I10975J104425D01*
G01*
X100054304Y-83793810D01*
G75*
G02*
X100169704Y-83700360I104425J-10975D01*
G01*
X101253733Y-83814296D01*
G75*
G02*
X101347183Y-83929696I-10975J-104425D01*
G01*
X101325232Y-84138546D01*
G75*
G02*
X101209832Y-84231996I-104425J10975D01*
G01*
G37*
G36*
G01*
X101298682Y-83386652D02*
X100214653Y-83272716D01*
G75*
G02*
X100121203Y-83157316I10975J104425D01*
G01*
X100143154Y-82948466D01*
G75*
G02*
X100258554Y-82855016I104425J-10975D01*
G01*
X101342583Y-82968952D01*
G75*
G02*
X101436033Y-83084352I-10975J-104425D01*
G01*
X101414082Y-83293202D01*
G75*
G02*
X101298682Y-83386652I-104425J10975D01*
G01*
G37*
G36*
G01*
X98567866Y-82677317D02*
X99651895Y-82791253D01*
G75*
G02*
X99745345Y-82906653I-10975J-104425D01*
G01*
X99723394Y-83115503D01*
G75*
G02*
X99607994Y-83208953I-104425J10975D01*
G01*
X98523965Y-83095017D01*
G75*
G02*
X98430515Y-82979617I10975J104425D01*
G01*
X98452466Y-82770767D01*
G75*
G02*
X98567866Y-82677317I104425J-10975D01*
G01*
G37*
G36*
G01*
X98479017Y-83522661D02*
X99563046Y-83636597D01*
G75*
G02*
X99656496Y-83751997I-10975J-104425D01*
G01*
X99634545Y-83960847D01*
G75*
G02*
X99519145Y-84054297I-104425J10975D01*
G01*
X98435116Y-83940361D01*
G75*
G02*
X98341666Y-83824961I10975J104425D01*
G01*
X98363617Y-83616111D01*
G75*
G02*
X98479017Y-83522661I104425J-10975D01*
G01*
G37*
G36*
G01*
X98390168Y-84368004D02*
X99474197Y-84481940D01*
G75*
G02*
X99567647Y-84597340I-10975J-104425D01*
G01*
X99545696Y-84806190D01*
G75*
G02*
X99430296Y-84899640I-104425J10975D01*
G01*
X98346267Y-84785704D01*
G75*
G02*
X98252817Y-84670304I10975J104425D01*
G01*
X98274768Y-84461454D01*
G75*
G02*
X98390168Y-84368004I104425J-10975D01*
G01*
G37*
G36*
G01*
X98301318Y-85213348D02*
X99385347Y-85327284D01*
G75*
G02*
X99478797Y-85442684I-10975J-104425D01*
G01*
X99456846Y-85651534D01*
G75*
G02*
X99341446Y-85744984I-104425J10975D01*
G01*
X98257417Y-85631048D01*
G75*
G02*
X98163967Y-85515648I10975J104425D01*
G01*
X98185918Y-85306798D01*
G75*
G02*
X98301318Y-85213348I104425J-10975D01*
G01*
G37*
G36*
G01*
X103355768Y-70542586D02*
X102289587Y-70315963D01*
G75*
G02*
X102208713Y-70191427I21831J102705D01*
G01*
X102252374Y-69986016D01*
G75*
G02*
X102376910Y-69905142I102705J-21831D01*
G01*
X103443091Y-70131765D01*
G75*
G02*
X103523965Y-70256301I-21831J-102705D01*
G01*
X103480304Y-70461712D01*
G75*
G02*
X103355768Y-70542586I-102705J21831D01*
G01*
G37*
G36*
G01*
X103532493Y-69711160D02*
X102466312Y-69484537D01*
G75*
G02*
X102385438Y-69360001I21831J102705D01*
G01*
X102429099Y-69154590D01*
G75*
G02*
X102553635Y-69073716I102705J-21831D01*
G01*
X103619816Y-69300339D01*
G75*
G02*
X103700690Y-69424875I-21831J-102705D01*
G01*
X103657029Y-69630286D01*
G75*
G02*
X103532493Y-69711160I-102705J21831D01*
G01*
G37*
G36*
G01*
X103709218Y-68879735D02*
X102643037Y-68653112D01*
G75*
G02*
X102562163Y-68528576I21831J102705D01*
G01*
X102605824Y-68323165D01*
G75*
G02*
X102730360Y-68242291I102705J-21831D01*
G01*
X103796541Y-68468914D01*
G75*
G02*
X103877415Y-68593450I-21831J-102705D01*
G01*
X103833754Y-68798861D01*
G75*
G02*
X103709218Y-68879735I-102705J21831D01*
G01*
G37*
G36*
G01*
X103885942Y-68048309D02*
X102819761Y-67821686D01*
G75*
G02*
X102738887Y-67697150I21831J102705D01*
G01*
X102782548Y-67491739D01*
G75*
G02*
X102907084Y-67410865I102705J-21831D01*
G01*
X103973265Y-67637488D01*
G75*
G02*
X104054139Y-67762024I-21831J-102705D01*
G01*
X104010478Y-67967435D01*
G75*
G02*
X103885942Y-68048309I-102705J21831D01*
G01*
G37*
G36*
G01*
X101244232Y-67057414D02*
X102310413Y-67284037D01*
G75*
G02*
X102391287Y-67408573I-21831J-102705D01*
G01*
X102347626Y-67613984D01*
G75*
G02*
X102223090Y-67694858I-102705J21831D01*
G01*
X101156909Y-67468235D01*
G75*
G02*
X101076035Y-67343699I21831J102705D01*
G01*
X101119696Y-67138288D01*
G75*
G02*
X101244232Y-67057414I102705J-21831D01*
G01*
G37*
G36*
G01*
X101067507Y-67888840D02*
X102133688Y-68115463D01*
G75*
G02*
X102214562Y-68239999I-21831J-102705D01*
G01*
X102170901Y-68445410D01*
G75*
G02*
X102046365Y-68526284I-102705J21831D01*
G01*
X100980184Y-68299661D01*
G75*
G02*
X100899310Y-68175125I21831J102705D01*
G01*
X100942971Y-67969714D01*
G75*
G02*
X101067507Y-67888840I102705J-21831D01*
G01*
G37*
G36*
G01*
X100890782Y-68720265D02*
X101956963Y-68946888D01*
G75*
G02*
X102037837Y-69071424I-21831J-102705D01*
G01*
X101994176Y-69276835D01*
G75*
G02*
X101869640Y-69357709I-102705J21831D01*
G01*
X100803459Y-69131086D01*
G75*
G02*
X100722585Y-69006550I21831J102705D01*
G01*
X100766246Y-68801139D01*
G75*
G02*
X100890782Y-68720265I102705J-21831D01*
G01*
G37*
G36*
G01*
X100714058Y-69551691D02*
X101780239Y-69778314D01*
G75*
G02*
X101861113Y-69902850I-21831J-102705D01*
G01*
X101817452Y-70108261D01*
G75*
G02*
X101692916Y-70189135I-102705J21831D01*
G01*
X100626735Y-69962512D01*
G75*
G02*
X100545861Y-69837976I21831J102705D01*
G01*
X100589522Y-69632565D01*
G75*
G02*
X100714058Y-69551691I102705J-21831D01*
G01*
G37*
G36*
G01*
X90973265Y-132362512D02*
X89907084Y-132589135D01*
G75*
G02*
X89782548Y-132508261I-21831J102705D01*
G01*
X89738887Y-132302850D01*
G75*
G02*
X89819761Y-132178314I102705J21831D01*
G01*
X90885942Y-131951691D01*
G75*
G02*
X91010478Y-132032565I21831J-102705D01*
G01*
X91054139Y-132237976D01*
G75*
G02*
X90973265Y-132362512I-102705J-21831D01*
G01*
G37*
G36*
G01*
X90796541Y-131531086D02*
X89730360Y-131757709D01*
G75*
G02*
X89605824Y-131676835I-21831J102705D01*
G01*
X89562163Y-131471424D01*
G75*
G02*
X89643037Y-131346888I102705J21831D01*
G01*
X90709218Y-131120265D01*
G75*
G02*
X90833754Y-131201139I21831J-102705D01*
G01*
X90877415Y-131406550D01*
G75*
G02*
X90796541Y-131531086I-102705J-21831D01*
G01*
G37*
G36*
G01*
X90619816Y-130699661D02*
X89553635Y-130926284D01*
G75*
G02*
X89429099Y-130845410I-21831J102705D01*
G01*
X89385438Y-130639999D01*
G75*
G02*
X89466312Y-130515463I102705J21831D01*
G01*
X90532493Y-130288840D01*
G75*
G02*
X90657029Y-130369714I21831J-102705D01*
G01*
X90700690Y-130575125D01*
G75*
G02*
X90619816Y-130699661I-102705J-21831D01*
G01*
G37*
G36*
G01*
X90443091Y-129868235D02*
X89376910Y-130094858D01*
G75*
G02*
X89252374Y-130013984I-21831J102705D01*
G01*
X89208713Y-129808573D01*
G75*
G02*
X89289587Y-129684037I102705J21831D01*
G01*
X90355768Y-129457414D01*
G75*
G02*
X90480304Y-129538288I21831J-102705D01*
G01*
X90523965Y-129743699D01*
G75*
G02*
X90443091Y-129868235I-102705J-21831D01*
G01*
G37*
G36*
G01*
X87626735Y-130037488D02*
X88692916Y-129810865D01*
G75*
G02*
X88817452Y-129891739I21831J-102705D01*
G01*
X88861113Y-130097150D01*
G75*
G02*
X88780239Y-130221686I-102705J-21831D01*
G01*
X87714058Y-130448309D01*
G75*
G02*
X87589522Y-130367435I-21831J102705D01*
G01*
X87545861Y-130162024D01*
G75*
G02*
X87626735Y-130037488I102705J21831D01*
G01*
G37*
G36*
G01*
X87803459Y-130868914D02*
X88869640Y-130642291D01*
G75*
G02*
X88994176Y-130723165I21831J-102705D01*
G01*
X89037837Y-130928576D01*
G75*
G02*
X88956963Y-131053112I-102705J-21831D01*
G01*
X87890782Y-131279735D01*
G75*
G02*
X87766246Y-131198861I-21831J102705D01*
G01*
X87722585Y-130993450D01*
G75*
G02*
X87803459Y-130868914I102705J21831D01*
G01*
G37*
G36*
G01*
X87980184Y-131700339D02*
X89046365Y-131473716D01*
G75*
G02*
X89170901Y-131554590I21831J-102705D01*
G01*
X89214562Y-131760001D01*
G75*
G02*
X89133688Y-131884537I-102705J-21831D01*
G01*
X88067507Y-132111160D01*
G75*
G02*
X87942971Y-132030286I-21831J102705D01*
G01*
X87899310Y-131824875D01*
G75*
G02*
X87980184Y-131700339I102705J21831D01*
G01*
G37*
G36*
G01*
X88156909Y-132531765D02*
X89223090Y-132305142D01*
G75*
G02*
X89347626Y-132386016I21831J-102705D01*
G01*
X89391287Y-132591427D01*
G75*
G02*
X89310413Y-132715963I-102705J-21831D01*
G01*
X88244232Y-132942586D01*
G75*
G02*
X88119696Y-132861712I-21831J102705D01*
G01*
X88076035Y-132656301D01*
G75*
G02*
X88156909Y-132531765I102705J21831D01*
G01*
G37*
G36*
G01*
X88342583Y-117031048D02*
X87258554Y-117144984D01*
G75*
G02*
X87143154Y-117051534I-10975J104425D01*
G01*
X87121203Y-116842684D01*
G75*
G02*
X87214653Y-116727284I104425J10975D01*
G01*
X88298682Y-116613348D01*
G75*
G02*
X88414082Y-116706798I10975J-104425D01*
G01*
X88436033Y-116915648D01*
G75*
G02*
X88342583Y-117031048I-104425J-10975D01*
G01*
G37*
G36*
G01*
X88253733Y-116185704D02*
X87169704Y-116299640D01*
G75*
G02*
X87054304Y-116206190I-10975J104425D01*
G01*
X87032353Y-115997340D01*
G75*
G02*
X87125803Y-115881940I104425J10975D01*
G01*
X88209832Y-115768004D01*
G75*
G02*
X88325232Y-115861454I10975J-104425D01*
G01*
X88347183Y-116070304D01*
G75*
G02*
X88253733Y-116185704I-104425J-10975D01*
G01*
G37*
G36*
G01*
X88164884Y-115340361D02*
X87080855Y-115454297D01*
G75*
G02*
X86965455Y-115360847I-10975J104425D01*
G01*
X86943504Y-115151997D01*
G75*
G02*
X87036954Y-115036597I104425J10975D01*
G01*
X88120983Y-114922661D01*
G75*
G02*
X88236383Y-115016111I10975J-104425D01*
G01*
X88258334Y-115224961D01*
G75*
G02*
X88164884Y-115340361I-104425J-10975D01*
G01*
G37*
G36*
G01*
X88076035Y-114495017D02*
X86992006Y-114608953D01*
G75*
G02*
X86876606Y-114515503I-10975J104425D01*
G01*
X86854655Y-114306653D01*
G75*
G02*
X86948105Y-114191253I104425J10975D01*
G01*
X88032134Y-114077317D01*
G75*
G02*
X88147534Y-114170767I10975J-104425D01*
G01*
X88169485Y-114379617D01*
G75*
G02*
X88076035Y-114495017I-104425J-10975D01*
G01*
G37*
G36*
G01*
X85257417Y-114368952D02*
X86341446Y-114255016D01*
G75*
G02*
X86456846Y-114348466I10975J-104425D01*
G01*
X86478797Y-114557316D01*
G75*
G02*
X86385347Y-114672716I-104425J-10975D01*
G01*
X85301318Y-114786652D01*
G75*
G02*
X85185918Y-114693202I-10975J104425D01*
G01*
X85163967Y-114484352D01*
G75*
G02*
X85257417Y-114368952I104425J10975D01*
G01*
G37*
G36*
G01*
X85346267Y-115214296D02*
X86430296Y-115100360D01*
G75*
G02*
X86545696Y-115193810I10975J-104425D01*
G01*
X86567647Y-115402660D01*
G75*
G02*
X86474197Y-115518060I-104425J-10975D01*
G01*
X85390168Y-115631996D01*
G75*
G02*
X85274768Y-115538546I-10975J104425D01*
G01*
X85252817Y-115329696D01*
G75*
G02*
X85346267Y-115214296I104425J10975D01*
G01*
G37*
G36*
G01*
X85435116Y-116059639D02*
X86519145Y-115945703D01*
G75*
G02*
X86634545Y-116039153I10975J-104425D01*
G01*
X86656496Y-116248003D01*
G75*
G02*
X86563046Y-116363403I-104425J-10975D01*
G01*
X85479017Y-116477339D01*
G75*
G02*
X85363617Y-116383889I-10975J104425D01*
G01*
X85341666Y-116175039D01*
G75*
G02*
X85435116Y-116059639I104425J10975D01*
G01*
G37*
G36*
G01*
X85523965Y-116904983D02*
X86607994Y-116791047D01*
G75*
G02*
X86723394Y-116884497I10975J-104425D01*
G01*
X86745345Y-117093347D01*
G75*
G02*
X86651895Y-117208747I-104425J-10975D01*
G01*
X85567866Y-117322683D01*
G75*
G02*
X85452466Y-117229233I-10975J104425D01*
G01*
X85430515Y-117020383D01*
G75*
G02*
X85523965Y-116904983I104425J10975D01*
G01*
G37*
G36*
G01*
X87395000Y-101485000D02*
X86305000Y-101485000D01*
G75*
G02*
X86200000Y-101380000I0J105000D01*
G01*
X86200000Y-101170000D01*
G75*
G02*
X86305000Y-101065000I105000J0D01*
G01*
X87395000Y-101065000D01*
G75*
G02*
X87500000Y-101170000I0J-105000D01*
G01*
X87500000Y-101380000D01*
G75*
G02*
X87395000Y-101485000I-105000J0D01*
G01*
G37*
G36*
G01*
X87395000Y-100635000D02*
X86305000Y-100635000D01*
G75*
G02*
X86200000Y-100530000I0J105000D01*
G01*
X86200000Y-100320000D01*
G75*
G02*
X86305000Y-100215000I105000J0D01*
G01*
X87395000Y-100215000D01*
G75*
G02*
X87500000Y-100320000I0J-105000D01*
G01*
X87500000Y-100530000D01*
G75*
G02*
X87395000Y-100635000I-105000J0D01*
G01*
G37*
G36*
G01*
X87395000Y-99785000D02*
X86305000Y-99785000D01*
G75*
G02*
X86200000Y-99680000I0J105000D01*
G01*
X86200000Y-99470000D01*
G75*
G02*
X86305000Y-99365000I105000J0D01*
G01*
X87395000Y-99365000D01*
G75*
G02*
X87500000Y-99470000I0J-105000D01*
G01*
X87500000Y-99680000D01*
G75*
G02*
X87395000Y-99785000I-105000J0D01*
G01*
G37*
G36*
G01*
X87395000Y-98935000D02*
X86305000Y-98935000D01*
G75*
G02*
X86200000Y-98830000I0J105000D01*
G01*
X86200000Y-98620000D01*
G75*
G02*
X86305000Y-98515000I105000J0D01*
G01*
X87395000Y-98515000D01*
G75*
G02*
X87500000Y-98620000I0J-105000D01*
G01*
X87500000Y-98830000D01*
G75*
G02*
X87395000Y-98935000I-105000J0D01*
G01*
G37*
G36*
G01*
X84605000Y-98515000D02*
X85695000Y-98515000D01*
G75*
G02*
X85800000Y-98620000I0J-105000D01*
G01*
X85800000Y-98830000D01*
G75*
G02*
X85695000Y-98935000I-105000J0D01*
G01*
X84605000Y-98935000D01*
G75*
G02*
X84500000Y-98830000I0J105000D01*
G01*
X84500000Y-98620000D01*
G75*
G02*
X84605000Y-98515000I105000J0D01*
G01*
G37*
G36*
G01*
X84605000Y-99365000D02*
X85695000Y-99365000D01*
G75*
G02*
X85800000Y-99470000I0J-105000D01*
G01*
X85800000Y-99680000D01*
G75*
G02*
X85695000Y-99785000I-105000J0D01*
G01*
X84605000Y-99785000D01*
G75*
G02*
X84500000Y-99680000I0J105000D01*
G01*
X84500000Y-99470000D01*
G75*
G02*
X84605000Y-99365000I105000J0D01*
G01*
G37*
G36*
G01*
X84605000Y-100215000D02*
X85695000Y-100215000D01*
G75*
G02*
X85800000Y-100320000I0J-105000D01*
G01*
X85800000Y-100530000D01*
G75*
G02*
X85695000Y-100635000I-105000J0D01*
G01*
X84605000Y-100635000D01*
G75*
G02*
X84500000Y-100530000I0J105000D01*
G01*
X84500000Y-100320000D01*
G75*
G02*
X84605000Y-100215000I105000J0D01*
G01*
G37*
G36*
G01*
X84605000Y-101065000D02*
X85695000Y-101065000D01*
G75*
G02*
X85800000Y-101170000I0J-105000D01*
G01*
X85800000Y-101380000D01*
G75*
G02*
X85695000Y-101485000I-105000J0D01*
G01*
X84605000Y-101485000D01*
G75*
G02*
X84500000Y-101380000I0J105000D01*
G01*
X84500000Y-101170000D01*
G75*
G02*
X84605000Y-101065000I105000J0D01*
G01*
G37*
G36*
G01*
X88032134Y-85922683D02*
X86948105Y-85808747D01*
G75*
G02*
X86854655Y-85693347I10975J104425D01*
G01*
X86876606Y-85484497D01*
G75*
G02*
X86992006Y-85391047I104425J-10975D01*
G01*
X88076035Y-85504983D01*
G75*
G02*
X88169485Y-85620383I-10975J-104425D01*
G01*
X88147534Y-85829233D01*
G75*
G02*
X88032134Y-85922683I-104425J10975D01*
G01*
G37*
G36*
G01*
X88120983Y-85077339D02*
X87036954Y-84963403D01*
G75*
G02*
X86943504Y-84848003I10975J104425D01*
G01*
X86965455Y-84639153D01*
G75*
G02*
X87080855Y-84545703I104425J-10975D01*
G01*
X88164884Y-84659639D01*
G75*
G02*
X88258334Y-84775039I-10975J-104425D01*
G01*
X88236383Y-84983889D01*
G75*
G02*
X88120983Y-85077339I-104425J10975D01*
G01*
G37*
G36*
G01*
X88209832Y-84231996D02*
X87125803Y-84118060D01*
G75*
G02*
X87032353Y-84002660I10975J104425D01*
G01*
X87054304Y-83793810D01*
G75*
G02*
X87169704Y-83700360I104425J-10975D01*
G01*
X88253733Y-83814296D01*
G75*
G02*
X88347183Y-83929696I-10975J-104425D01*
G01*
X88325232Y-84138546D01*
G75*
G02*
X88209832Y-84231996I-104425J10975D01*
G01*
G37*
G36*
G01*
X88298682Y-83386652D02*
X87214653Y-83272716D01*
G75*
G02*
X87121203Y-83157316I10975J104425D01*
G01*
X87143154Y-82948466D01*
G75*
G02*
X87258554Y-82855016I104425J-10975D01*
G01*
X88342583Y-82968952D01*
G75*
G02*
X88436033Y-83084352I-10975J-104425D01*
G01*
X88414082Y-83293202D01*
G75*
G02*
X88298682Y-83386652I-104425J10975D01*
G01*
G37*
G36*
G01*
X85567866Y-82677317D02*
X86651895Y-82791253D01*
G75*
G02*
X86745345Y-82906653I-10975J-104425D01*
G01*
X86723394Y-83115503D01*
G75*
G02*
X86607994Y-83208953I-104425J10975D01*
G01*
X85523965Y-83095017D01*
G75*
G02*
X85430515Y-82979617I10975J104425D01*
G01*
X85452466Y-82770767D01*
G75*
G02*
X85567866Y-82677317I104425J-10975D01*
G01*
G37*
G36*
G01*
X85479017Y-83522661D02*
X86563046Y-83636597D01*
G75*
G02*
X86656496Y-83751997I-10975J-104425D01*
G01*
X86634545Y-83960847D01*
G75*
G02*
X86519145Y-84054297I-104425J10975D01*
G01*
X85435116Y-83940361D01*
G75*
G02*
X85341666Y-83824961I10975J104425D01*
G01*
X85363617Y-83616111D01*
G75*
G02*
X85479017Y-83522661I104425J-10975D01*
G01*
G37*
G36*
G01*
X85390168Y-84368004D02*
X86474197Y-84481940D01*
G75*
G02*
X86567647Y-84597340I-10975J-104425D01*
G01*
X86545696Y-84806190D01*
G75*
G02*
X86430296Y-84899640I-104425J10975D01*
G01*
X85346267Y-84785704D01*
G75*
G02*
X85252817Y-84670304I10975J104425D01*
G01*
X85274768Y-84461454D01*
G75*
G02*
X85390168Y-84368004I104425J-10975D01*
G01*
G37*
G36*
G01*
X85301318Y-85213348D02*
X86385347Y-85327284D01*
G75*
G02*
X86478797Y-85442684I-10975J-104425D01*
G01*
X86456846Y-85651534D01*
G75*
G02*
X86341446Y-85744984I-104425J10975D01*
G01*
X85257417Y-85631048D01*
G75*
G02*
X85163967Y-85515648I10975J104425D01*
G01*
X85185918Y-85306798D01*
G75*
G02*
X85301318Y-85213348I104425J-10975D01*
G01*
G37*
G36*
G01*
X90355768Y-70542586D02*
X89289587Y-70315963D01*
G75*
G02*
X89208713Y-70191427I21831J102705D01*
G01*
X89252374Y-69986016D01*
G75*
G02*
X89376910Y-69905142I102705J-21831D01*
G01*
X90443091Y-70131765D01*
G75*
G02*
X90523965Y-70256301I-21831J-102705D01*
G01*
X90480304Y-70461712D01*
G75*
G02*
X90355768Y-70542586I-102705J21831D01*
G01*
G37*
G36*
G01*
X90532493Y-69711160D02*
X89466312Y-69484537D01*
G75*
G02*
X89385438Y-69360001I21831J102705D01*
G01*
X89429099Y-69154590D01*
G75*
G02*
X89553635Y-69073716I102705J-21831D01*
G01*
X90619816Y-69300339D01*
G75*
G02*
X90700690Y-69424875I-21831J-102705D01*
G01*
X90657029Y-69630286D01*
G75*
G02*
X90532493Y-69711160I-102705J21831D01*
G01*
G37*
G36*
G01*
X90709218Y-68879735D02*
X89643037Y-68653112D01*
G75*
G02*
X89562163Y-68528576I21831J102705D01*
G01*
X89605824Y-68323165D01*
G75*
G02*
X89730360Y-68242291I102705J-21831D01*
G01*
X90796541Y-68468914D01*
G75*
G02*
X90877415Y-68593450I-21831J-102705D01*
G01*
X90833754Y-68798861D01*
G75*
G02*
X90709218Y-68879735I-102705J21831D01*
G01*
G37*
G36*
G01*
X90885942Y-68048309D02*
X89819761Y-67821686D01*
G75*
G02*
X89738887Y-67697150I21831J102705D01*
G01*
X89782548Y-67491739D01*
G75*
G02*
X89907084Y-67410865I102705J-21831D01*
G01*
X90973265Y-67637488D01*
G75*
G02*
X91054139Y-67762024I-21831J-102705D01*
G01*
X91010478Y-67967435D01*
G75*
G02*
X90885942Y-68048309I-102705J21831D01*
G01*
G37*
G36*
G01*
X88244232Y-67057414D02*
X89310413Y-67284037D01*
G75*
G02*
X89391287Y-67408573I-21831J-102705D01*
G01*
X89347626Y-67613984D01*
G75*
G02*
X89223090Y-67694858I-102705J21831D01*
G01*
X88156909Y-67468235D01*
G75*
G02*
X88076035Y-67343699I21831J102705D01*
G01*
X88119696Y-67138288D01*
G75*
G02*
X88244232Y-67057414I102705J-21831D01*
G01*
G37*
G36*
G01*
X88067507Y-67888840D02*
X89133688Y-68115463D01*
G75*
G02*
X89214562Y-68239999I-21831J-102705D01*
G01*
X89170901Y-68445410D01*
G75*
G02*
X89046365Y-68526284I-102705J21831D01*
G01*
X87980184Y-68299661D01*
G75*
G02*
X87899310Y-68175125I21831J102705D01*
G01*
X87942971Y-67969714D01*
G75*
G02*
X88067507Y-67888840I102705J-21831D01*
G01*
G37*
G36*
G01*
X87890782Y-68720265D02*
X88956963Y-68946888D01*
G75*
G02*
X89037837Y-69071424I-21831J-102705D01*
G01*
X88994176Y-69276835D01*
G75*
G02*
X88869640Y-69357709I-102705J21831D01*
G01*
X87803459Y-69131086D01*
G75*
G02*
X87722585Y-69006550I21831J102705D01*
G01*
X87766246Y-68801139D01*
G75*
G02*
X87890782Y-68720265I102705J-21831D01*
G01*
G37*
G36*
G01*
X87714058Y-69551691D02*
X88780239Y-69778314D01*
G75*
G02*
X88861113Y-69902850I-21831J-102705D01*
G01*
X88817452Y-70108261D01*
G75*
G02*
X88692916Y-70189135I-102705J21831D01*
G01*
X87626735Y-69962512D01*
G75*
G02*
X87545861Y-69837976I21831J102705D01*
G01*
X87589522Y-69632565D01*
G75*
G02*
X87714058Y-69551691I102705J-21831D01*
G01*
G37*
G36*
G01*
X77973265Y-132362512D02*
X76907084Y-132589135D01*
G75*
G02*
X76782548Y-132508261I-21831J102705D01*
G01*
X76738887Y-132302850D01*
G75*
G02*
X76819761Y-132178314I102705J21831D01*
G01*
X77885942Y-131951691D01*
G75*
G02*
X78010478Y-132032565I21831J-102705D01*
G01*
X78054139Y-132237976D01*
G75*
G02*
X77973265Y-132362512I-102705J-21831D01*
G01*
G37*
G36*
G01*
X77796541Y-131531086D02*
X76730360Y-131757709D01*
G75*
G02*
X76605824Y-131676835I-21831J102705D01*
G01*
X76562163Y-131471424D01*
G75*
G02*
X76643037Y-131346888I102705J21831D01*
G01*
X77709218Y-131120265D01*
G75*
G02*
X77833754Y-131201139I21831J-102705D01*
G01*
X77877415Y-131406550D01*
G75*
G02*
X77796541Y-131531086I-102705J-21831D01*
G01*
G37*
G36*
G01*
X77619816Y-130699661D02*
X76553635Y-130926284D01*
G75*
G02*
X76429099Y-130845410I-21831J102705D01*
G01*
X76385438Y-130639999D01*
G75*
G02*
X76466312Y-130515463I102705J21831D01*
G01*
X77532493Y-130288840D01*
G75*
G02*
X77657029Y-130369714I21831J-102705D01*
G01*
X77700690Y-130575125D01*
G75*
G02*
X77619816Y-130699661I-102705J-21831D01*
G01*
G37*
G36*
G01*
X77443091Y-129868235D02*
X76376910Y-130094858D01*
G75*
G02*
X76252374Y-130013984I-21831J102705D01*
G01*
X76208713Y-129808573D01*
G75*
G02*
X76289587Y-129684037I102705J21831D01*
G01*
X77355768Y-129457414D01*
G75*
G02*
X77480304Y-129538288I21831J-102705D01*
G01*
X77523965Y-129743699D01*
G75*
G02*
X77443091Y-129868235I-102705J-21831D01*
G01*
G37*
G36*
G01*
X74626735Y-130037488D02*
X75692916Y-129810865D01*
G75*
G02*
X75817452Y-129891739I21831J-102705D01*
G01*
X75861113Y-130097150D01*
G75*
G02*
X75780239Y-130221686I-102705J-21831D01*
G01*
X74714058Y-130448309D01*
G75*
G02*
X74589522Y-130367435I-21831J102705D01*
G01*
X74545861Y-130162024D01*
G75*
G02*
X74626735Y-130037488I102705J21831D01*
G01*
G37*
G36*
G01*
X74803459Y-130868914D02*
X75869640Y-130642291D01*
G75*
G02*
X75994176Y-130723165I21831J-102705D01*
G01*
X76037837Y-130928576D01*
G75*
G02*
X75956963Y-131053112I-102705J-21831D01*
G01*
X74890782Y-131279735D01*
G75*
G02*
X74766246Y-131198861I-21831J102705D01*
G01*
X74722585Y-130993450D01*
G75*
G02*
X74803459Y-130868914I102705J21831D01*
G01*
G37*
G36*
G01*
X74980184Y-131700339D02*
X76046365Y-131473716D01*
G75*
G02*
X76170901Y-131554590I21831J-102705D01*
G01*
X76214562Y-131760001D01*
G75*
G02*
X76133688Y-131884537I-102705J-21831D01*
G01*
X75067507Y-132111160D01*
G75*
G02*
X74942971Y-132030286I-21831J102705D01*
G01*
X74899310Y-131824875D01*
G75*
G02*
X74980184Y-131700339I102705J21831D01*
G01*
G37*
G36*
G01*
X75156909Y-132531765D02*
X76223090Y-132305142D01*
G75*
G02*
X76347626Y-132386016I21831J-102705D01*
G01*
X76391287Y-132591427D01*
G75*
G02*
X76310413Y-132715963I-102705J-21831D01*
G01*
X75244232Y-132942586D01*
G75*
G02*
X75119696Y-132861712I-21831J102705D01*
G01*
X75076035Y-132656301D01*
G75*
G02*
X75156909Y-132531765I102705J21831D01*
G01*
G37*
G36*
G01*
X75342583Y-117031048D02*
X74258554Y-117144984D01*
G75*
G02*
X74143154Y-117051534I-10975J104425D01*
G01*
X74121203Y-116842684D01*
G75*
G02*
X74214653Y-116727284I104425J10975D01*
G01*
X75298682Y-116613348D01*
G75*
G02*
X75414082Y-116706798I10975J-104425D01*
G01*
X75436033Y-116915648D01*
G75*
G02*
X75342583Y-117031048I-104425J-10975D01*
G01*
G37*
G36*
G01*
X75253733Y-116185704D02*
X74169704Y-116299640D01*
G75*
G02*
X74054304Y-116206190I-10975J104425D01*
G01*
X74032353Y-115997340D01*
G75*
G02*
X74125803Y-115881940I104425J10975D01*
G01*
X75209832Y-115768004D01*
G75*
G02*
X75325232Y-115861454I10975J-104425D01*
G01*
X75347183Y-116070304D01*
G75*
G02*
X75253733Y-116185704I-104425J-10975D01*
G01*
G37*
G36*
G01*
X75164884Y-115340361D02*
X74080855Y-115454297D01*
G75*
G02*
X73965455Y-115360847I-10975J104425D01*
G01*
X73943504Y-115151997D01*
G75*
G02*
X74036954Y-115036597I104425J10975D01*
G01*
X75120983Y-114922661D01*
G75*
G02*
X75236383Y-115016111I10975J-104425D01*
G01*
X75258334Y-115224961D01*
G75*
G02*
X75164884Y-115340361I-104425J-10975D01*
G01*
G37*
G36*
G01*
X75076035Y-114495017D02*
X73992006Y-114608953D01*
G75*
G02*
X73876606Y-114515503I-10975J104425D01*
G01*
X73854655Y-114306653D01*
G75*
G02*
X73948105Y-114191253I104425J10975D01*
G01*
X75032134Y-114077317D01*
G75*
G02*
X75147534Y-114170767I10975J-104425D01*
G01*
X75169485Y-114379617D01*
G75*
G02*
X75076035Y-114495017I-104425J-10975D01*
G01*
G37*
G36*
G01*
X72257417Y-114368952D02*
X73341446Y-114255016D01*
G75*
G02*
X73456846Y-114348466I10975J-104425D01*
G01*
X73478797Y-114557316D01*
G75*
G02*
X73385347Y-114672716I-104425J-10975D01*
G01*
X72301318Y-114786652D01*
G75*
G02*
X72185918Y-114693202I-10975J104425D01*
G01*
X72163967Y-114484352D01*
G75*
G02*
X72257417Y-114368952I104425J10975D01*
G01*
G37*
G36*
G01*
X72346267Y-115214296D02*
X73430296Y-115100360D01*
G75*
G02*
X73545696Y-115193810I10975J-104425D01*
G01*
X73567647Y-115402660D01*
G75*
G02*
X73474197Y-115518060I-104425J-10975D01*
G01*
X72390168Y-115631996D01*
G75*
G02*
X72274768Y-115538546I-10975J104425D01*
G01*
X72252817Y-115329696D01*
G75*
G02*
X72346267Y-115214296I104425J10975D01*
G01*
G37*
G36*
G01*
X72435116Y-116059639D02*
X73519145Y-115945703D01*
G75*
G02*
X73634545Y-116039153I10975J-104425D01*
G01*
X73656496Y-116248003D01*
G75*
G02*
X73563046Y-116363403I-104425J-10975D01*
G01*
X72479017Y-116477339D01*
G75*
G02*
X72363617Y-116383889I-10975J104425D01*
G01*
X72341666Y-116175039D01*
G75*
G02*
X72435116Y-116059639I104425J10975D01*
G01*
G37*
G36*
G01*
X72523965Y-116904983D02*
X73607994Y-116791047D01*
G75*
G02*
X73723394Y-116884497I10975J-104425D01*
G01*
X73745345Y-117093347D01*
G75*
G02*
X73651895Y-117208747I-104425J-10975D01*
G01*
X72567866Y-117322683D01*
G75*
G02*
X72452466Y-117229233I-10975J104425D01*
G01*
X72430515Y-117020383D01*
G75*
G02*
X72523965Y-116904983I104425J10975D01*
G01*
G37*
G36*
G01*
X74395000Y-101485000D02*
X73305000Y-101485000D01*
G75*
G02*
X73200000Y-101380000I0J105000D01*
G01*
X73200000Y-101170000D01*
G75*
G02*
X73305000Y-101065000I105000J0D01*
G01*
X74395000Y-101065000D01*
G75*
G02*
X74500000Y-101170000I0J-105000D01*
G01*
X74500000Y-101380000D01*
G75*
G02*
X74395000Y-101485000I-105000J0D01*
G01*
G37*
G36*
G01*
X74395000Y-100635000D02*
X73305000Y-100635000D01*
G75*
G02*
X73200000Y-100530000I0J105000D01*
G01*
X73200000Y-100320000D01*
G75*
G02*
X73305000Y-100215000I105000J0D01*
G01*
X74395000Y-100215000D01*
G75*
G02*
X74500000Y-100320000I0J-105000D01*
G01*
X74500000Y-100530000D01*
G75*
G02*
X74395000Y-100635000I-105000J0D01*
G01*
G37*
G36*
G01*
X74395000Y-99785000D02*
X73305000Y-99785000D01*
G75*
G02*
X73200000Y-99680000I0J105000D01*
G01*
X73200000Y-99470000D01*
G75*
G02*
X73305000Y-99365000I105000J0D01*
G01*
X74395000Y-99365000D01*
G75*
G02*
X74500000Y-99470000I0J-105000D01*
G01*
X74500000Y-99680000D01*
G75*
G02*
X74395000Y-99785000I-105000J0D01*
G01*
G37*
G36*
G01*
X74395000Y-98935000D02*
X73305000Y-98935000D01*
G75*
G02*
X73200000Y-98830000I0J105000D01*
G01*
X73200000Y-98620000D01*
G75*
G02*
X73305000Y-98515000I105000J0D01*
G01*
X74395000Y-98515000D01*
G75*
G02*
X74500000Y-98620000I0J-105000D01*
G01*
X74500000Y-98830000D01*
G75*
G02*
X74395000Y-98935000I-105000J0D01*
G01*
G37*
G36*
G01*
X71605000Y-98515000D02*
X72695000Y-98515000D01*
G75*
G02*
X72800000Y-98620000I0J-105000D01*
G01*
X72800000Y-98830000D01*
G75*
G02*
X72695000Y-98935000I-105000J0D01*
G01*
X71605000Y-98935000D01*
G75*
G02*
X71500000Y-98830000I0J105000D01*
G01*
X71500000Y-98620000D01*
G75*
G02*
X71605000Y-98515000I105000J0D01*
G01*
G37*
G36*
G01*
X71605000Y-99365000D02*
X72695000Y-99365000D01*
G75*
G02*
X72800000Y-99470000I0J-105000D01*
G01*
X72800000Y-99680000D01*
G75*
G02*
X72695000Y-99785000I-105000J0D01*
G01*
X71605000Y-99785000D01*
G75*
G02*
X71500000Y-99680000I0J105000D01*
G01*
X71500000Y-99470000D01*
G75*
G02*
X71605000Y-99365000I105000J0D01*
G01*
G37*
G36*
G01*
X71605000Y-100215000D02*
X72695000Y-100215000D01*
G75*
G02*
X72800000Y-100320000I0J-105000D01*
G01*
X72800000Y-100530000D01*
G75*
G02*
X72695000Y-100635000I-105000J0D01*
G01*
X71605000Y-100635000D01*
G75*
G02*
X71500000Y-100530000I0J105000D01*
G01*
X71500000Y-100320000D01*
G75*
G02*
X71605000Y-100215000I105000J0D01*
G01*
G37*
G36*
G01*
X71605000Y-101065000D02*
X72695000Y-101065000D01*
G75*
G02*
X72800000Y-101170000I0J-105000D01*
G01*
X72800000Y-101380000D01*
G75*
G02*
X72695000Y-101485000I-105000J0D01*
G01*
X71605000Y-101485000D01*
G75*
G02*
X71500000Y-101380000I0J105000D01*
G01*
X71500000Y-101170000D01*
G75*
G02*
X71605000Y-101065000I105000J0D01*
G01*
G37*
G36*
G01*
X75032134Y-85922683D02*
X73948105Y-85808747D01*
G75*
G02*
X73854655Y-85693347I10975J104425D01*
G01*
X73876606Y-85484497D01*
G75*
G02*
X73992006Y-85391047I104425J-10975D01*
G01*
X75076035Y-85504983D01*
G75*
G02*
X75169485Y-85620383I-10975J-104425D01*
G01*
X75147534Y-85829233D01*
G75*
G02*
X75032134Y-85922683I-104425J10975D01*
G01*
G37*
G36*
G01*
X75120983Y-85077339D02*
X74036954Y-84963403D01*
G75*
G02*
X73943504Y-84848003I10975J104425D01*
G01*
X73965455Y-84639153D01*
G75*
G02*
X74080855Y-84545703I104425J-10975D01*
G01*
X75164884Y-84659639D01*
G75*
G02*
X75258334Y-84775039I-10975J-104425D01*
G01*
X75236383Y-84983889D01*
G75*
G02*
X75120983Y-85077339I-104425J10975D01*
G01*
G37*
G36*
G01*
X75209832Y-84231996D02*
X74125803Y-84118060D01*
G75*
G02*
X74032353Y-84002660I10975J104425D01*
G01*
X74054304Y-83793810D01*
G75*
G02*
X74169704Y-83700360I104425J-10975D01*
G01*
X75253733Y-83814296D01*
G75*
G02*
X75347183Y-83929696I-10975J-104425D01*
G01*
X75325232Y-84138546D01*
G75*
G02*
X75209832Y-84231996I-104425J10975D01*
G01*
G37*
G36*
G01*
X75298682Y-83386652D02*
X74214653Y-83272716D01*
G75*
G02*
X74121203Y-83157316I10975J104425D01*
G01*
X74143154Y-82948466D01*
G75*
G02*
X74258554Y-82855016I104425J-10975D01*
G01*
X75342583Y-82968952D01*
G75*
G02*
X75436033Y-83084352I-10975J-104425D01*
G01*
X75414082Y-83293202D01*
G75*
G02*
X75298682Y-83386652I-104425J10975D01*
G01*
G37*
G36*
G01*
X72567866Y-82677317D02*
X73651895Y-82791253D01*
G75*
G02*
X73745345Y-82906653I-10975J-104425D01*
G01*
X73723394Y-83115503D01*
G75*
G02*
X73607994Y-83208953I-104425J10975D01*
G01*
X72523965Y-83095017D01*
G75*
G02*
X72430515Y-82979617I10975J104425D01*
G01*
X72452466Y-82770767D01*
G75*
G02*
X72567866Y-82677317I104425J-10975D01*
G01*
G37*
G36*
G01*
X72479017Y-83522661D02*
X73563046Y-83636597D01*
G75*
G02*
X73656496Y-83751997I-10975J-104425D01*
G01*
X73634545Y-83960847D01*
G75*
G02*
X73519145Y-84054297I-104425J10975D01*
G01*
X72435116Y-83940361D01*
G75*
G02*
X72341666Y-83824961I10975J104425D01*
G01*
X72363617Y-83616111D01*
G75*
G02*
X72479017Y-83522661I104425J-10975D01*
G01*
G37*
G36*
G01*
X72390168Y-84368004D02*
X73474197Y-84481940D01*
G75*
G02*
X73567647Y-84597340I-10975J-104425D01*
G01*
X73545696Y-84806190D01*
G75*
G02*
X73430296Y-84899640I-104425J10975D01*
G01*
X72346267Y-84785704D01*
G75*
G02*
X72252817Y-84670304I10975J104425D01*
G01*
X72274768Y-84461454D01*
G75*
G02*
X72390168Y-84368004I104425J-10975D01*
G01*
G37*
G36*
G01*
X72301318Y-85213348D02*
X73385347Y-85327284D01*
G75*
G02*
X73478797Y-85442684I-10975J-104425D01*
G01*
X73456846Y-85651534D01*
G75*
G02*
X73341446Y-85744984I-104425J10975D01*
G01*
X72257417Y-85631048D01*
G75*
G02*
X72163967Y-85515648I10975J104425D01*
G01*
X72185918Y-85306798D01*
G75*
G02*
X72301318Y-85213348I104425J-10975D01*
G01*
G37*
G36*
G01*
X77355768Y-70542586D02*
X76289587Y-70315963D01*
G75*
G02*
X76208713Y-70191427I21831J102705D01*
G01*
X76252374Y-69986016D01*
G75*
G02*
X76376910Y-69905142I102705J-21831D01*
G01*
X77443091Y-70131765D01*
G75*
G02*
X77523965Y-70256301I-21831J-102705D01*
G01*
X77480304Y-70461712D01*
G75*
G02*
X77355768Y-70542586I-102705J21831D01*
G01*
G37*
G36*
G01*
X77532493Y-69711160D02*
X76466312Y-69484537D01*
G75*
G02*
X76385438Y-69360001I21831J102705D01*
G01*
X76429099Y-69154590D01*
G75*
G02*
X76553635Y-69073716I102705J-21831D01*
G01*
X77619816Y-69300339D01*
G75*
G02*
X77700690Y-69424875I-21831J-102705D01*
G01*
X77657029Y-69630286D01*
G75*
G02*
X77532493Y-69711160I-102705J21831D01*
G01*
G37*
G36*
G01*
X77709218Y-68879735D02*
X76643037Y-68653112D01*
G75*
G02*
X76562163Y-68528576I21831J102705D01*
G01*
X76605824Y-68323165D01*
G75*
G02*
X76730360Y-68242291I102705J-21831D01*
G01*
X77796541Y-68468914D01*
G75*
G02*
X77877415Y-68593450I-21831J-102705D01*
G01*
X77833754Y-68798861D01*
G75*
G02*
X77709218Y-68879735I-102705J21831D01*
G01*
G37*
G36*
G01*
X77885942Y-68048309D02*
X76819761Y-67821686D01*
G75*
G02*
X76738887Y-67697150I21831J102705D01*
G01*
X76782548Y-67491739D01*
G75*
G02*
X76907084Y-67410865I102705J-21831D01*
G01*
X77973265Y-67637488D01*
G75*
G02*
X78054139Y-67762024I-21831J-102705D01*
G01*
X78010478Y-67967435D01*
G75*
G02*
X77885942Y-68048309I-102705J21831D01*
G01*
G37*
G36*
G01*
X75244232Y-67057414D02*
X76310413Y-67284037D01*
G75*
G02*
X76391287Y-67408573I-21831J-102705D01*
G01*
X76347626Y-67613984D01*
G75*
G02*
X76223090Y-67694858I-102705J21831D01*
G01*
X75156909Y-67468235D01*
G75*
G02*
X75076035Y-67343699I21831J102705D01*
G01*
X75119696Y-67138288D01*
G75*
G02*
X75244232Y-67057414I102705J-21831D01*
G01*
G37*
G36*
G01*
X75067507Y-67888840D02*
X76133688Y-68115463D01*
G75*
G02*
X76214562Y-68239999I-21831J-102705D01*
G01*
X76170901Y-68445410D01*
G75*
G02*
X76046365Y-68526284I-102705J21831D01*
G01*
X74980184Y-68299661D01*
G75*
G02*
X74899310Y-68175125I21831J102705D01*
G01*
X74942971Y-67969714D01*
G75*
G02*
X75067507Y-67888840I102705J-21831D01*
G01*
G37*
G36*
G01*
X74890782Y-68720265D02*
X75956963Y-68946888D01*
G75*
G02*
X76037837Y-69071424I-21831J-102705D01*
G01*
X75994176Y-69276835D01*
G75*
G02*
X75869640Y-69357709I-102705J21831D01*
G01*
X74803459Y-69131086D01*
G75*
G02*
X74722585Y-69006550I21831J102705D01*
G01*
X74766246Y-68801139D01*
G75*
G02*
X74890782Y-68720265I102705J-21831D01*
G01*
G37*
G36*
G01*
X74714058Y-69551691D02*
X75780239Y-69778314D01*
G75*
G02*
X75861113Y-69902850I-21831J-102705D01*
G01*
X75817452Y-70108261D01*
G75*
G02*
X75692916Y-70189135I-102705J21831D01*
G01*
X74626735Y-69962512D01*
G75*
G02*
X74545861Y-69837976I21831J102705D01*
G01*
X74589522Y-69632565D01*
G75*
G02*
X74714058Y-69551691I102705J-21831D01*
G01*
G37*
G36*
G01*
X132637500Y-91375000D02*
X132162500Y-91375000D01*
G75*
G02*
X131925000Y-91137500I0J237500D01*
G01*
X131925000Y-90537500D01*
G75*
G02*
X132162500Y-90300000I237500J0D01*
G01*
X132637500Y-90300000D01*
G75*
G02*
X132875000Y-90537500I0J-237500D01*
G01*
X132875000Y-91137500D01*
G75*
G02*
X132637500Y-91375000I-237500J0D01*
G01*
G37*
G36*
G01*
X132637500Y-93100000D02*
X132162500Y-93100000D01*
G75*
G02*
X131925000Y-92862500I0J237500D01*
G01*
X131925000Y-92262500D01*
G75*
G02*
X132162500Y-92025000I237500J0D01*
G01*
X132637500Y-92025000D01*
G75*
G02*
X132875000Y-92262500I0J-237500D01*
G01*
X132875000Y-92862500D01*
G75*
G02*
X132637500Y-93100000I-237500J0D01*
G01*
G37*
G36*
G01*
X131137500Y-91375000D02*
X130662500Y-91375000D01*
G75*
G02*
X130425000Y-91137500I0J237500D01*
G01*
X130425000Y-90537500D01*
G75*
G02*
X130662500Y-90300000I237500J0D01*
G01*
X131137500Y-90300000D01*
G75*
G02*
X131375000Y-90537500I0J-237500D01*
G01*
X131375000Y-91137500D01*
G75*
G02*
X131137500Y-91375000I-237500J0D01*
G01*
G37*
G36*
G01*
X131137500Y-93100000D02*
X130662500Y-93100000D01*
G75*
G02*
X130425000Y-92862500I0J237500D01*
G01*
X130425000Y-92262500D01*
G75*
G02*
X130662500Y-92025000I237500J0D01*
G01*
X131137500Y-92025000D01*
G75*
G02*
X131375000Y-92262500I0J-237500D01*
G01*
X131375000Y-92862500D01*
G75*
G02*
X131137500Y-93100000I-237500J0D01*
G01*
G37*
G36*
G01*
X136791013Y-134299182D02*
X136692255Y-133834561D01*
G75*
G02*
X136875186Y-133552872I232310J49379D01*
G01*
X137462074Y-133428125D01*
G75*
G02*
X137743763Y-133611056I49379J-232310D01*
G01*
X137842521Y-134075677D01*
G75*
G02*
X137659590Y-134357366I-232310J-49379D01*
G01*
X137072702Y-134482113D01*
G75*
G02*
X136791013Y-134299182I-49379J232310D01*
G01*
G37*
G36*
G01*
X135103709Y-134657830D02*
X135004951Y-134193209D01*
G75*
G02*
X135187882Y-133911520I232310J49379D01*
G01*
X135774770Y-133786773D01*
G75*
G02*
X136056459Y-133969704I49379J-232310D01*
G01*
X136155217Y-134434325D01*
G75*
G02*
X135972286Y-134716014I-232310J-49379D01*
G01*
X135385398Y-134840761D01*
G75*
G02*
X135103709Y-134657830I-49379J232310D01*
G01*
G37*
G36*
G01*
X134808987Y-128100818D02*
X134907745Y-128565439D01*
G75*
G02*
X134724814Y-128847128I-232310J-49379D01*
G01*
X134137926Y-128971875D01*
G75*
G02*
X133856237Y-128788944I-49379J232310D01*
G01*
X133757479Y-128324323D01*
G75*
G02*
X133940410Y-128042634I232310J49379D01*
G01*
X134527298Y-127917887D01*
G75*
G02*
X134808987Y-128100818I49379J-232310D01*
G01*
G37*
G36*
G01*
X136496291Y-127742170D02*
X136595049Y-128206791D01*
G75*
G02*
X136412118Y-128488480I-232310J-49379D01*
G01*
X135825230Y-128613227D01*
G75*
G02*
X135543541Y-128430296I-49379J232310D01*
G01*
X135444783Y-127965675D01*
G75*
G02*
X135627714Y-127683986I232310J49379D01*
G01*
X136214602Y-127559239D01*
G75*
G02*
X136496291Y-127742170I49379J-232310D01*
G01*
G37*
G36*
G01*
X132638369Y-112514207D02*
X132688020Y-112986604D01*
G75*
G02*
X132476647Y-113247629I-236199J-24826D01*
G01*
X131879934Y-113310346D01*
G75*
G02*
X131618909Y-113098973I-24826J236199D01*
G01*
X131569258Y-112626576D01*
G75*
G02*
X131780631Y-112365551I236199J24826D01*
G01*
X132377344Y-112302834D01*
G75*
G02*
X132638369Y-112514207I24826J-236199D01*
G01*
G37*
G36*
G01*
X134353919Y-112333895D02*
X134403570Y-112806292D01*
G75*
G02*
X134192197Y-113067317I-236199J-24826D01*
G01*
X133595484Y-113130034D01*
G75*
G02*
X133334459Y-112918661I-24826J236199D01*
G01*
X133284808Y-112446264D01*
G75*
G02*
X133496181Y-112185239I236199J24826D01*
G01*
X134092894Y-112122522D01*
G75*
G02*
X134353919Y-112333895I24826J-236199D01*
G01*
G37*
G36*
G01*
X138962500Y-100725000D02*
X139437500Y-100725000D01*
G75*
G02*
X139675000Y-100962500I0J-237500D01*
G01*
X139675000Y-101562500D01*
G75*
G02*
X139437500Y-101800000I-237500J0D01*
G01*
X138962500Y-101800000D01*
G75*
G02*
X138725000Y-101562500I0J237500D01*
G01*
X138725000Y-100962500D01*
G75*
G02*
X138962500Y-100725000I237500J0D01*
G01*
G37*
G36*
G01*
X138962500Y-99000000D02*
X139437500Y-99000000D01*
G75*
G02*
X139675000Y-99237500I0J-237500D01*
G01*
X139675000Y-99837500D01*
G75*
G02*
X139437500Y-100075000I-237500J0D01*
G01*
X138962500Y-100075000D01*
G75*
G02*
X138725000Y-99837500I0J237500D01*
G01*
X138725000Y-99237500D01*
G75*
G02*
X138962500Y-99000000I237500J0D01*
G01*
G37*
G36*
G01*
X126037500Y-99275000D02*
X125562500Y-99275000D01*
G75*
G02*
X125325000Y-99037500I0J237500D01*
G01*
X125325000Y-98437500D01*
G75*
G02*
X125562500Y-98200000I237500J0D01*
G01*
X126037500Y-98200000D01*
G75*
G02*
X126275000Y-98437500I0J-237500D01*
G01*
X126275000Y-99037500D01*
G75*
G02*
X126037500Y-99275000I-237500J0D01*
G01*
G37*
G36*
G01*
X126037500Y-101000000D02*
X125562500Y-101000000D01*
G75*
G02*
X125325000Y-100762500I0J237500D01*
G01*
X125325000Y-100162500D01*
G75*
G02*
X125562500Y-99925000I237500J0D01*
G01*
X126037500Y-99925000D01*
G75*
G02*
X126275000Y-100162500I0J-237500D01*
G01*
X126275000Y-100762500D01*
G75*
G02*
X126037500Y-101000000I-237500J0D01*
G01*
G37*
G36*
G01*
X133284808Y-87553736D02*
X133334459Y-87081339D01*
G75*
G02*
X133595484Y-86869966I236199J-24826D01*
G01*
X134192197Y-86932683D01*
G75*
G02*
X134403570Y-87193708I-24826J-236199D01*
G01*
X134353919Y-87666105D01*
G75*
G02*
X134092894Y-87877478I-236199J24826D01*
G01*
X133496181Y-87814761D01*
G75*
G02*
X133284808Y-87553736I24826J236199D01*
G01*
G37*
G36*
G01*
X131569258Y-87373424D02*
X131618909Y-86901027D01*
G75*
G02*
X131879934Y-86689654I236199J-24826D01*
G01*
X132476647Y-86752371D01*
G75*
G02*
X132688020Y-87013396I-24826J-236199D01*
G01*
X132638369Y-87485793D01*
G75*
G02*
X132377344Y-87697166I-236199J24826D01*
G01*
X131780631Y-87634449D01*
G75*
G02*
X131569258Y-87373424I24826J236199D01*
G01*
G37*
G36*
G01*
X133315192Y-81046264D02*
X133265541Y-81518661D01*
G75*
G02*
X133004516Y-81730034I-236199J24826D01*
G01*
X132407803Y-81667317D01*
G75*
G02*
X132196430Y-81406292I24826J236199D01*
G01*
X132246081Y-80933895D01*
G75*
G02*
X132507106Y-80722522I236199J-24826D01*
G01*
X133103819Y-80785239D01*
G75*
G02*
X133315192Y-81046264I-24826J-236199D01*
G01*
G37*
G36*
G01*
X135030742Y-81226576D02*
X134981091Y-81698973D01*
G75*
G02*
X134720066Y-81910346I-236199J24826D01*
G01*
X134123353Y-81847629D01*
G75*
G02*
X133911980Y-81586604I24826J236199D01*
G01*
X133961631Y-81114207D01*
G75*
G02*
X134222656Y-80902834I236199J-24826D01*
G01*
X134819369Y-80965551D01*
G75*
G02*
X135030742Y-81226576I-24826J-236199D01*
G01*
G37*
G36*
G01*
X135444783Y-72034325D02*
X135543541Y-71569704D01*
G75*
G02*
X135825230Y-71386773I232310J-49379D01*
G01*
X136412118Y-71511520D01*
G75*
G02*
X136595049Y-71793209I-49379J-232310D01*
G01*
X136496291Y-72257830D01*
G75*
G02*
X136214602Y-72440761I-232310J49379D01*
G01*
X135627714Y-72316014D01*
G75*
G02*
X135444783Y-72034325I49379J232310D01*
G01*
G37*
G36*
G01*
X133757479Y-71675677D02*
X133856237Y-71211056D01*
G75*
G02*
X134137926Y-71028125I232310J-49379D01*
G01*
X134724814Y-71152872D01*
G75*
G02*
X134907745Y-71434561I-49379J-232310D01*
G01*
X134808987Y-71899182D01*
G75*
G02*
X134527298Y-72082113I-232310J49379D01*
G01*
X133940410Y-71957366D01*
G75*
G02*
X133757479Y-71675677I49379J232310D01*
G01*
G37*
G36*
G01*
X135132916Y-73501547D02*
X135231674Y-73036926D01*
G75*
G02*
X135513363Y-72853995I232310J-49379D01*
G01*
X136100251Y-72978742D01*
G75*
G02*
X136283182Y-73260431I-49379J-232310D01*
G01*
X136184424Y-73725052D01*
G75*
G02*
X135902735Y-73907983I-232310J49379D01*
G01*
X135315847Y-73783236D01*
G75*
G02*
X135132916Y-73501547I49379J232310D01*
G01*
G37*
G36*
G01*
X133445612Y-73142899D02*
X133544370Y-72678278D01*
G75*
G02*
X133826059Y-72495347I232310J-49379D01*
G01*
X134412947Y-72620094D01*
G75*
G02*
X134595878Y-72901783I-49379J-232310D01*
G01*
X134497120Y-73366404D01*
G75*
G02*
X134215431Y-73549335I-232310J49379D01*
G01*
X133628543Y-73424588D01*
G75*
G02*
X133445612Y-73142899I49379J232310D01*
G01*
G37*
G36*
G01*
X116291013Y-134299182D02*
X116192255Y-133834561D01*
G75*
G02*
X116375186Y-133552872I232310J49379D01*
G01*
X116962074Y-133428125D01*
G75*
G02*
X117243763Y-133611056I49379J-232310D01*
G01*
X117342521Y-134075677D01*
G75*
G02*
X117159590Y-134357366I-232310J-49379D01*
G01*
X116572702Y-134482113D01*
G75*
G02*
X116291013Y-134299182I-49379J232310D01*
G01*
G37*
G36*
G01*
X114603709Y-134657830D02*
X114504951Y-134193209D01*
G75*
G02*
X114687882Y-133911520I232310J49379D01*
G01*
X115274770Y-133786773D01*
G75*
G02*
X115556459Y-133969704I49379J-232310D01*
G01*
X115655217Y-134434325D01*
G75*
G02*
X115472286Y-134716014I-232310J-49379D01*
G01*
X114885398Y-134840761D01*
G75*
G02*
X114603709Y-134657830I-49379J232310D01*
G01*
G37*
G36*
G01*
X114308987Y-128100818D02*
X114407745Y-128565439D01*
G75*
G02*
X114224814Y-128847128I-232310J-49379D01*
G01*
X113637926Y-128971875D01*
G75*
G02*
X113356237Y-128788944I-49379J232310D01*
G01*
X113257479Y-128324323D01*
G75*
G02*
X113440410Y-128042634I232310J49379D01*
G01*
X114027298Y-127917887D01*
G75*
G02*
X114308987Y-128100818I49379J-232310D01*
G01*
G37*
G36*
G01*
X115996291Y-127742170D02*
X116095049Y-128206791D01*
G75*
G02*
X115912118Y-128488480I-232310J-49379D01*
G01*
X115325230Y-128613227D01*
G75*
G02*
X115043541Y-128430296I-49379J232310D01*
G01*
X114944783Y-127965675D01*
G75*
G02*
X115127714Y-127683986I232310J49379D01*
G01*
X115714602Y-127559239D01*
G75*
G02*
X115996291Y-127742170I49379J-232310D01*
G01*
G37*
G36*
G01*
X113461631Y-118885793D02*
X113411980Y-118413396D01*
G75*
G02*
X113623353Y-118152371I236199J24826D01*
G01*
X114220066Y-118089654D01*
G75*
G02*
X114481091Y-118301027I24826J-236199D01*
G01*
X114530742Y-118773424D01*
G75*
G02*
X114319369Y-119034449I-236199J-24826D01*
G01*
X113722656Y-119097166D01*
G75*
G02*
X113461631Y-118885793I-24826J236199D01*
G01*
G37*
G36*
G01*
X111746081Y-119066105D02*
X111696430Y-118593708D01*
G75*
G02*
X111907803Y-118332683I236199J24826D01*
G01*
X112504516Y-118269966D01*
G75*
G02*
X112765541Y-118481339I24826J-236199D01*
G01*
X112815192Y-118953736D01*
G75*
G02*
X112603819Y-119214761I-236199J-24826D01*
G01*
X112007106Y-119277478D01*
G75*
G02*
X111746081Y-119066105I-24826J236199D01*
G01*
G37*
G36*
G01*
X112138369Y-112514207D02*
X112188020Y-112986604D01*
G75*
G02*
X111976647Y-113247629I-236199J-24826D01*
G01*
X111379934Y-113310346D01*
G75*
G02*
X111118909Y-113098973I-24826J236199D01*
G01*
X111069258Y-112626576D01*
G75*
G02*
X111280631Y-112365551I236199J24826D01*
G01*
X111877344Y-112302834D01*
G75*
G02*
X112138369Y-112514207I24826J-236199D01*
G01*
G37*
G36*
G01*
X113853919Y-112333895D02*
X113903570Y-112806292D01*
G75*
G02*
X113692197Y-113067317I-236199J-24826D01*
G01*
X113095484Y-113130034D01*
G75*
G02*
X112834459Y-112918661I-24826J236199D01*
G01*
X112784808Y-112446264D01*
G75*
G02*
X112996181Y-112185239I236199J24826D01*
G01*
X113592894Y-112122522D01*
G75*
G02*
X113853919Y-112333895I24826J-236199D01*
G01*
G37*
G36*
G01*
X112325000Y-103237500D02*
X112325000Y-102762500D01*
G75*
G02*
X112562500Y-102525000I237500J0D01*
G01*
X113162500Y-102525000D01*
G75*
G02*
X113400000Y-102762500I0J-237500D01*
G01*
X113400000Y-103237500D01*
G75*
G02*
X113162500Y-103475000I-237500J0D01*
G01*
X112562500Y-103475000D01*
G75*
G02*
X112325000Y-103237500I0J237500D01*
G01*
G37*
G36*
G01*
X110600000Y-103237500D02*
X110600000Y-102762500D01*
G75*
G02*
X110837500Y-102525000I237500J0D01*
G01*
X111437500Y-102525000D01*
G75*
G02*
X111675000Y-102762500I0J-237500D01*
G01*
X111675000Y-103237500D01*
G75*
G02*
X111437500Y-103475000I-237500J0D01*
G01*
X110837500Y-103475000D01*
G75*
G02*
X110600000Y-103237500I0J237500D01*
G01*
G37*
G36*
G01*
X111675000Y-96762500D02*
X111675000Y-97237500D01*
G75*
G02*
X111437500Y-97475000I-237500J0D01*
G01*
X110837500Y-97475000D01*
G75*
G02*
X110600000Y-97237500I0J237500D01*
G01*
X110600000Y-96762500D01*
G75*
G02*
X110837500Y-96525000I237500J0D01*
G01*
X111437500Y-96525000D01*
G75*
G02*
X111675000Y-96762500I0J-237500D01*
G01*
G37*
G36*
G01*
X113400000Y-96762500D02*
X113400000Y-97237500D01*
G75*
G02*
X113162500Y-97475000I-237500J0D01*
G01*
X112562500Y-97475000D01*
G75*
G02*
X112325000Y-97237500I0J237500D01*
G01*
X112325000Y-96762500D01*
G75*
G02*
X112562500Y-96525000I237500J0D01*
G01*
X113162500Y-96525000D01*
G75*
G02*
X113400000Y-96762500I0J-237500D01*
G01*
G37*
G36*
G01*
X112784808Y-87553736D02*
X112834459Y-87081339D01*
G75*
G02*
X113095484Y-86869966I236199J-24826D01*
G01*
X113692197Y-86932683D01*
G75*
G02*
X113903570Y-87193708I-24826J-236199D01*
G01*
X113853919Y-87666105D01*
G75*
G02*
X113592894Y-87877478I-236199J24826D01*
G01*
X112996181Y-87814761D01*
G75*
G02*
X112784808Y-87553736I24826J236199D01*
G01*
G37*
G36*
G01*
X111069258Y-87373424D02*
X111118909Y-86901027D01*
G75*
G02*
X111379934Y-86689654I236199J-24826D01*
G01*
X111976647Y-86752371D01*
G75*
G02*
X112188020Y-87013396I-24826J-236199D01*
G01*
X112138369Y-87485793D01*
G75*
G02*
X111877344Y-87697166I-236199J24826D01*
G01*
X111280631Y-87634449D01*
G75*
G02*
X111069258Y-87373424I24826J236199D01*
G01*
G37*
G36*
G01*
X112815192Y-81046264D02*
X112765541Y-81518661D01*
G75*
G02*
X112504516Y-81730034I-236199J24826D01*
G01*
X111907803Y-81667317D01*
G75*
G02*
X111696430Y-81406292I24826J236199D01*
G01*
X111746081Y-80933895D01*
G75*
G02*
X112007106Y-80722522I236199J-24826D01*
G01*
X112603819Y-80785239D01*
G75*
G02*
X112815192Y-81046264I-24826J-236199D01*
G01*
G37*
G36*
G01*
X114530742Y-81226576D02*
X114481091Y-81698973D01*
G75*
G02*
X114220066Y-81910346I-236199J24826D01*
G01*
X113623353Y-81847629D01*
G75*
G02*
X113411980Y-81586604I24826J236199D01*
G01*
X113461631Y-81114207D01*
G75*
G02*
X113722656Y-80902834I236199J-24826D01*
G01*
X114319369Y-80965551D01*
G75*
G02*
X114530742Y-81226576I-24826J-236199D01*
G01*
G37*
G36*
G01*
X114944783Y-72034325D02*
X115043541Y-71569704D01*
G75*
G02*
X115325230Y-71386773I232310J-49379D01*
G01*
X115912118Y-71511520D01*
G75*
G02*
X116095049Y-71793209I-49379J-232310D01*
G01*
X115996291Y-72257830D01*
G75*
G02*
X115714602Y-72440761I-232310J49379D01*
G01*
X115127714Y-72316014D01*
G75*
G02*
X114944783Y-72034325I49379J232310D01*
G01*
G37*
G36*
G01*
X113257479Y-71675677D02*
X113356237Y-71211056D01*
G75*
G02*
X113637926Y-71028125I232310J-49379D01*
G01*
X114224814Y-71152872D01*
G75*
G02*
X114407745Y-71434561I-49379J-232310D01*
G01*
X114308987Y-71899182D01*
G75*
G02*
X114027298Y-72082113I-232310J49379D01*
G01*
X113440410Y-71957366D01*
G75*
G02*
X113257479Y-71675677I49379J232310D01*
G01*
G37*
G36*
G01*
X114632916Y-73501547D02*
X114731674Y-73036926D01*
G75*
G02*
X115013363Y-72853995I232310J-49379D01*
G01*
X115600251Y-72978742D01*
G75*
G02*
X115783182Y-73260431I-49379J-232310D01*
G01*
X115684424Y-73725052D01*
G75*
G02*
X115402735Y-73907983I-232310J49379D01*
G01*
X114815847Y-73783236D01*
G75*
G02*
X114632916Y-73501547I49379J232310D01*
G01*
G37*
G36*
G01*
X112945612Y-73142899D02*
X113044370Y-72678278D01*
G75*
G02*
X113326059Y-72495347I232310J-49379D01*
G01*
X113912947Y-72620094D01*
G75*
G02*
X114095878Y-72901783I-49379J-232310D01*
G01*
X113997120Y-73366404D01*
G75*
G02*
X113715431Y-73549335I-232310J49379D01*
G01*
X113128543Y-73424588D01*
G75*
G02*
X112945612Y-73142899I49379J232310D01*
G01*
G37*
G36*
G01*
X103291013Y-134299182D02*
X103192255Y-133834561D01*
G75*
G02*
X103375186Y-133552872I232310J49379D01*
G01*
X103962074Y-133428125D01*
G75*
G02*
X104243763Y-133611056I49379J-232310D01*
G01*
X104342521Y-134075677D01*
G75*
G02*
X104159590Y-134357366I-232310J-49379D01*
G01*
X103572702Y-134482113D01*
G75*
G02*
X103291013Y-134299182I-49379J232310D01*
G01*
G37*
G36*
G01*
X101603709Y-134657830D02*
X101504951Y-134193209D01*
G75*
G02*
X101687882Y-133911520I232310J49379D01*
G01*
X102274770Y-133786773D01*
G75*
G02*
X102556459Y-133969704I49379J-232310D01*
G01*
X102655217Y-134434325D01*
G75*
G02*
X102472286Y-134716014I-232310J-49379D01*
G01*
X101885398Y-134840761D01*
G75*
G02*
X101603709Y-134657830I-49379J232310D01*
G01*
G37*
G36*
G01*
X101308987Y-128100818D02*
X101407745Y-128565439D01*
G75*
G02*
X101224814Y-128847128I-232310J-49379D01*
G01*
X100637926Y-128971875D01*
G75*
G02*
X100356237Y-128788944I-49379J232310D01*
G01*
X100257479Y-128324323D01*
G75*
G02*
X100440410Y-128042634I232310J49379D01*
G01*
X101027298Y-127917887D01*
G75*
G02*
X101308987Y-128100818I49379J-232310D01*
G01*
G37*
G36*
G01*
X102996291Y-127742170D02*
X103095049Y-128206791D01*
G75*
G02*
X102912118Y-128488480I-232310J-49379D01*
G01*
X102325230Y-128613227D01*
G75*
G02*
X102043541Y-128430296I-49379J232310D01*
G01*
X101944783Y-127965675D01*
G75*
G02*
X102127714Y-127683986I232310J49379D01*
G01*
X102714602Y-127559239D01*
G75*
G02*
X102996291Y-127742170I49379J-232310D01*
G01*
G37*
G36*
G01*
X100461631Y-118885793D02*
X100411980Y-118413396D01*
G75*
G02*
X100623353Y-118152371I236199J24826D01*
G01*
X101220066Y-118089654D01*
G75*
G02*
X101481091Y-118301027I24826J-236199D01*
G01*
X101530742Y-118773424D01*
G75*
G02*
X101319369Y-119034449I-236199J-24826D01*
G01*
X100722656Y-119097166D01*
G75*
G02*
X100461631Y-118885793I-24826J236199D01*
G01*
G37*
G36*
G01*
X98746081Y-119066105D02*
X98696430Y-118593708D01*
G75*
G02*
X98907803Y-118332683I236199J24826D01*
G01*
X99504516Y-118269966D01*
G75*
G02*
X99765541Y-118481339I24826J-236199D01*
G01*
X99815192Y-118953736D01*
G75*
G02*
X99603819Y-119214761I-236199J-24826D01*
G01*
X99007106Y-119277478D01*
G75*
G02*
X98746081Y-119066105I-24826J236199D01*
G01*
G37*
G36*
G01*
X99138369Y-112514207D02*
X99188020Y-112986604D01*
G75*
G02*
X98976647Y-113247629I-236199J-24826D01*
G01*
X98379934Y-113310346D01*
G75*
G02*
X98118909Y-113098973I-24826J236199D01*
G01*
X98069258Y-112626576D01*
G75*
G02*
X98280631Y-112365551I236199J24826D01*
G01*
X98877344Y-112302834D01*
G75*
G02*
X99138369Y-112514207I24826J-236199D01*
G01*
G37*
G36*
G01*
X100853919Y-112333895D02*
X100903570Y-112806292D01*
G75*
G02*
X100692197Y-113067317I-236199J-24826D01*
G01*
X100095484Y-113130034D01*
G75*
G02*
X99834459Y-112918661I-24826J236199D01*
G01*
X99784808Y-112446264D01*
G75*
G02*
X99996181Y-112185239I236199J24826D01*
G01*
X100592894Y-112122522D01*
G75*
G02*
X100853919Y-112333895I24826J-236199D01*
G01*
G37*
G36*
G01*
X99325000Y-103237500D02*
X99325000Y-102762500D01*
G75*
G02*
X99562500Y-102525000I237500J0D01*
G01*
X100162500Y-102525000D01*
G75*
G02*
X100400000Y-102762500I0J-237500D01*
G01*
X100400000Y-103237500D01*
G75*
G02*
X100162500Y-103475000I-237500J0D01*
G01*
X99562500Y-103475000D01*
G75*
G02*
X99325000Y-103237500I0J237500D01*
G01*
G37*
G36*
G01*
X97600000Y-103237500D02*
X97600000Y-102762500D01*
G75*
G02*
X97837500Y-102525000I237500J0D01*
G01*
X98437500Y-102525000D01*
G75*
G02*
X98675000Y-102762500I0J-237500D01*
G01*
X98675000Y-103237500D01*
G75*
G02*
X98437500Y-103475000I-237500J0D01*
G01*
X97837500Y-103475000D01*
G75*
G02*
X97600000Y-103237500I0J237500D01*
G01*
G37*
G36*
G01*
X98675000Y-96762500D02*
X98675000Y-97237500D01*
G75*
G02*
X98437500Y-97475000I-237500J0D01*
G01*
X97837500Y-97475000D01*
G75*
G02*
X97600000Y-97237500I0J237500D01*
G01*
X97600000Y-96762500D01*
G75*
G02*
X97837500Y-96525000I237500J0D01*
G01*
X98437500Y-96525000D01*
G75*
G02*
X98675000Y-96762500I0J-237500D01*
G01*
G37*
G36*
G01*
X100400000Y-96762500D02*
X100400000Y-97237500D01*
G75*
G02*
X100162500Y-97475000I-237500J0D01*
G01*
X99562500Y-97475000D01*
G75*
G02*
X99325000Y-97237500I0J237500D01*
G01*
X99325000Y-96762500D01*
G75*
G02*
X99562500Y-96525000I237500J0D01*
G01*
X100162500Y-96525000D01*
G75*
G02*
X100400000Y-96762500I0J-237500D01*
G01*
G37*
G36*
G01*
X99784808Y-87553736D02*
X99834459Y-87081339D01*
G75*
G02*
X100095484Y-86869966I236199J-24826D01*
G01*
X100692197Y-86932683D01*
G75*
G02*
X100903570Y-87193708I-24826J-236199D01*
G01*
X100853919Y-87666105D01*
G75*
G02*
X100592894Y-87877478I-236199J24826D01*
G01*
X99996181Y-87814761D01*
G75*
G02*
X99784808Y-87553736I24826J236199D01*
G01*
G37*
G36*
G01*
X98069258Y-87373424D02*
X98118909Y-86901027D01*
G75*
G02*
X98379934Y-86689654I236199J-24826D01*
G01*
X98976647Y-86752371D01*
G75*
G02*
X99188020Y-87013396I-24826J-236199D01*
G01*
X99138369Y-87485793D01*
G75*
G02*
X98877344Y-87697166I-236199J24826D01*
G01*
X98280631Y-87634449D01*
G75*
G02*
X98069258Y-87373424I24826J236199D01*
G01*
G37*
G36*
G01*
X99815192Y-81046264D02*
X99765541Y-81518661D01*
G75*
G02*
X99504516Y-81730034I-236199J24826D01*
G01*
X98907803Y-81667317D01*
G75*
G02*
X98696430Y-81406292I24826J236199D01*
G01*
X98746081Y-80933895D01*
G75*
G02*
X99007106Y-80722522I236199J-24826D01*
G01*
X99603819Y-80785239D01*
G75*
G02*
X99815192Y-81046264I-24826J-236199D01*
G01*
G37*
G36*
G01*
X101530742Y-81226576D02*
X101481091Y-81698973D01*
G75*
G02*
X101220066Y-81910346I-236199J24826D01*
G01*
X100623353Y-81847629D01*
G75*
G02*
X100411980Y-81586604I24826J236199D01*
G01*
X100461631Y-81114207D01*
G75*
G02*
X100722656Y-80902834I236199J-24826D01*
G01*
X101319369Y-80965551D01*
G75*
G02*
X101530742Y-81226576I-24826J-236199D01*
G01*
G37*
G36*
G01*
X101944783Y-72034325D02*
X102043541Y-71569704D01*
G75*
G02*
X102325230Y-71386773I232310J-49379D01*
G01*
X102912118Y-71511520D01*
G75*
G02*
X103095049Y-71793209I-49379J-232310D01*
G01*
X102996291Y-72257830D01*
G75*
G02*
X102714602Y-72440761I-232310J49379D01*
G01*
X102127714Y-72316014D01*
G75*
G02*
X101944783Y-72034325I49379J232310D01*
G01*
G37*
G36*
G01*
X100257479Y-71675677D02*
X100356237Y-71211056D01*
G75*
G02*
X100637926Y-71028125I232310J-49379D01*
G01*
X101224814Y-71152872D01*
G75*
G02*
X101407745Y-71434561I-49379J-232310D01*
G01*
X101308987Y-71899182D01*
G75*
G02*
X101027298Y-72082113I-232310J49379D01*
G01*
X100440410Y-71957366D01*
G75*
G02*
X100257479Y-71675677I49379J232310D01*
G01*
G37*
G36*
G01*
X101632916Y-73501547D02*
X101731674Y-73036926D01*
G75*
G02*
X102013363Y-72853995I232310J-49379D01*
G01*
X102600251Y-72978742D01*
G75*
G02*
X102783182Y-73260431I-49379J-232310D01*
G01*
X102684424Y-73725052D01*
G75*
G02*
X102402735Y-73907983I-232310J49379D01*
G01*
X101815847Y-73783236D01*
G75*
G02*
X101632916Y-73501547I49379J232310D01*
G01*
G37*
G36*
G01*
X99945612Y-73142899D02*
X100044370Y-72678278D01*
G75*
G02*
X100326059Y-72495347I232310J-49379D01*
G01*
X100912947Y-72620094D01*
G75*
G02*
X101095878Y-72901783I-49379J-232310D01*
G01*
X100997120Y-73366404D01*
G75*
G02*
X100715431Y-73549335I-232310J49379D01*
G01*
X100128543Y-73424588D01*
G75*
G02*
X99945612Y-73142899I49379J232310D01*
G01*
G37*
G36*
G01*
X90291013Y-134299182D02*
X90192255Y-133834561D01*
G75*
G02*
X90375186Y-133552872I232310J49379D01*
G01*
X90962074Y-133428125D01*
G75*
G02*
X91243763Y-133611056I49379J-232310D01*
G01*
X91342521Y-134075677D01*
G75*
G02*
X91159590Y-134357366I-232310J-49379D01*
G01*
X90572702Y-134482113D01*
G75*
G02*
X90291013Y-134299182I-49379J232310D01*
G01*
G37*
G36*
G01*
X88603709Y-134657830D02*
X88504951Y-134193209D01*
G75*
G02*
X88687882Y-133911520I232310J49379D01*
G01*
X89274770Y-133786773D01*
G75*
G02*
X89556459Y-133969704I49379J-232310D01*
G01*
X89655217Y-134434325D01*
G75*
G02*
X89472286Y-134716014I-232310J-49379D01*
G01*
X88885398Y-134840761D01*
G75*
G02*
X88603709Y-134657830I-49379J232310D01*
G01*
G37*
G36*
G01*
X88308987Y-128100818D02*
X88407745Y-128565439D01*
G75*
G02*
X88224814Y-128847128I-232310J-49379D01*
G01*
X87637926Y-128971875D01*
G75*
G02*
X87356237Y-128788944I-49379J232310D01*
G01*
X87257479Y-128324323D01*
G75*
G02*
X87440410Y-128042634I232310J49379D01*
G01*
X88027298Y-127917887D01*
G75*
G02*
X88308987Y-128100818I49379J-232310D01*
G01*
G37*
G36*
G01*
X89996291Y-127742170D02*
X90095049Y-128206791D01*
G75*
G02*
X89912118Y-128488480I-232310J-49379D01*
G01*
X89325230Y-128613227D01*
G75*
G02*
X89043541Y-128430296I-49379J232310D01*
G01*
X88944783Y-127965675D01*
G75*
G02*
X89127714Y-127683986I232310J49379D01*
G01*
X89714602Y-127559239D01*
G75*
G02*
X89996291Y-127742170I49379J-232310D01*
G01*
G37*
G36*
G01*
X87461631Y-118885793D02*
X87411980Y-118413396D01*
G75*
G02*
X87623353Y-118152371I236199J24826D01*
G01*
X88220066Y-118089654D01*
G75*
G02*
X88481091Y-118301027I24826J-236199D01*
G01*
X88530742Y-118773424D01*
G75*
G02*
X88319369Y-119034449I-236199J-24826D01*
G01*
X87722656Y-119097166D01*
G75*
G02*
X87461631Y-118885793I-24826J236199D01*
G01*
G37*
G36*
G01*
X85746081Y-119066105D02*
X85696430Y-118593708D01*
G75*
G02*
X85907803Y-118332683I236199J24826D01*
G01*
X86504516Y-118269966D01*
G75*
G02*
X86765541Y-118481339I24826J-236199D01*
G01*
X86815192Y-118953736D01*
G75*
G02*
X86603819Y-119214761I-236199J-24826D01*
G01*
X86007106Y-119277478D01*
G75*
G02*
X85746081Y-119066105I-24826J236199D01*
G01*
G37*
G36*
G01*
X86138369Y-112514207D02*
X86188020Y-112986604D01*
G75*
G02*
X85976647Y-113247629I-236199J-24826D01*
G01*
X85379934Y-113310346D01*
G75*
G02*
X85118909Y-113098973I-24826J236199D01*
G01*
X85069258Y-112626576D01*
G75*
G02*
X85280631Y-112365551I236199J24826D01*
G01*
X85877344Y-112302834D01*
G75*
G02*
X86138369Y-112514207I24826J-236199D01*
G01*
G37*
G36*
G01*
X87853919Y-112333895D02*
X87903570Y-112806292D01*
G75*
G02*
X87692197Y-113067317I-236199J-24826D01*
G01*
X87095484Y-113130034D01*
G75*
G02*
X86834459Y-112918661I-24826J236199D01*
G01*
X86784808Y-112446264D01*
G75*
G02*
X86996181Y-112185239I236199J24826D01*
G01*
X87592894Y-112122522D01*
G75*
G02*
X87853919Y-112333895I24826J-236199D01*
G01*
G37*
G36*
G01*
X86325000Y-103237500D02*
X86325000Y-102762500D01*
G75*
G02*
X86562500Y-102525000I237500J0D01*
G01*
X87162500Y-102525000D01*
G75*
G02*
X87400000Y-102762500I0J-237500D01*
G01*
X87400000Y-103237500D01*
G75*
G02*
X87162500Y-103475000I-237500J0D01*
G01*
X86562500Y-103475000D01*
G75*
G02*
X86325000Y-103237500I0J237500D01*
G01*
G37*
G36*
G01*
X84600000Y-103237500D02*
X84600000Y-102762500D01*
G75*
G02*
X84837500Y-102525000I237500J0D01*
G01*
X85437500Y-102525000D01*
G75*
G02*
X85675000Y-102762500I0J-237500D01*
G01*
X85675000Y-103237500D01*
G75*
G02*
X85437500Y-103475000I-237500J0D01*
G01*
X84837500Y-103475000D01*
G75*
G02*
X84600000Y-103237500I0J237500D01*
G01*
G37*
G36*
G01*
X85675000Y-96762500D02*
X85675000Y-97237500D01*
G75*
G02*
X85437500Y-97475000I-237500J0D01*
G01*
X84837500Y-97475000D01*
G75*
G02*
X84600000Y-97237500I0J237500D01*
G01*
X84600000Y-96762500D01*
G75*
G02*
X84837500Y-96525000I237500J0D01*
G01*
X85437500Y-96525000D01*
G75*
G02*
X85675000Y-96762500I0J-237500D01*
G01*
G37*
G36*
G01*
X87400000Y-96762500D02*
X87400000Y-97237500D01*
G75*
G02*
X87162500Y-97475000I-237500J0D01*
G01*
X86562500Y-97475000D01*
G75*
G02*
X86325000Y-97237500I0J237500D01*
G01*
X86325000Y-96762500D01*
G75*
G02*
X86562500Y-96525000I237500J0D01*
G01*
X87162500Y-96525000D01*
G75*
G02*
X87400000Y-96762500I0J-237500D01*
G01*
G37*
G36*
G01*
X86784808Y-87553736D02*
X86834459Y-87081339D01*
G75*
G02*
X87095484Y-86869966I236199J-24826D01*
G01*
X87692197Y-86932683D01*
G75*
G02*
X87903570Y-87193708I-24826J-236199D01*
G01*
X87853919Y-87666105D01*
G75*
G02*
X87592894Y-87877478I-236199J24826D01*
G01*
X86996181Y-87814761D01*
G75*
G02*
X86784808Y-87553736I24826J236199D01*
G01*
G37*
G36*
G01*
X85069258Y-87373424D02*
X85118909Y-86901027D01*
G75*
G02*
X85379934Y-86689654I236199J-24826D01*
G01*
X85976647Y-86752371D01*
G75*
G02*
X86188020Y-87013396I-24826J-236199D01*
G01*
X86138369Y-87485793D01*
G75*
G02*
X85877344Y-87697166I-236199J24826D01*
G01*
X85280631Y-87634449D01*
G75*
G02*
X85069258Y-87373424I24826J236199D01*
G01*
G37*
G36*
G01*
X86815192Y-81046264D02*
X86765541Y-81518661D01*
G75*
G02*
X86504516Y-81730034I-236199J24826D01*
G01*
X85907803Y-81667317D01*
G75*
G02*
X85696430Y-81406292I24826J236199D01*
G01*
X85746081Y-80933895D01*
G75*
G02*
X86007106Y-80722522I236199J-24826D01*
G01*
X86603819Y-80785239D01*
G75*
G02*
X86815192Y-81046264I-24826J-236199D01*
G01*
G37*
G36*
G01*
X88530742Y-81226576D02*
X88481091Y-81698973D01*
G75*
G02*
X88220066Y-81910346I-236199J24826D01*
G01*
X87623353Y-81847629D01*
G75*
G02*
X87411980Y-81586604I24826J236199D01*
G01*
X87461631Y-81114207D01*
G75*
G02*
X87722656Y-80902834I236199J-24826D01*
G01*
X88319369Y-80965551D01*
G75*
G02*
X88530742Y-81226576I-24826J-236199D01*
G01*
G37*
G36*
G01*
X88944783Y-72034325D02*
X89043541Y-71569704D01*
G75*
G02*
X89325230Y-71386773I232310J-49379D01*
G01*
X89912118Y-71511520D01*
G75*
G02*
X90095049Y-71793209I-49379J-232310D01*
G01*
X89996291Y-72257830D01*
G75*
G02*
X89714602Y-72440761I-232310J49379D01*
G01*
X89127714Y-72316014D01*
G75*
G02*
X88944783Y-72034325I49379J232310D01*
G01*
G37*
G36*
G01*
X87257479Y-71675677D02*
X87356237Y-71211056D01*
G75*
G02*
X87637926Y-71028125I232310J-49379D01*
G01*
X88224814Y-71152872D01*
G75*
G02*
X88407745Y-71434561I-49379J-232310D01*
G01*
X88308987Y-71899182D01*
G75*
G02*
X88027298Y-72082113I-232310J49379D01*
G01*
X87440410Y-71957366D01*
G75*
G02*
X87257479Y-71675677I49379J232310D01*
G01*
G37*
G36*
G01*
X88632916Y-73501547D02*
X88731674Y-73036926D01*
G75*
G02*
X89013363Y-72853995I232310J-49379D01*
G01*
X89600251Y-72978742D01*
G75*
G02*
X89783182Y-73260431I-49379J-232310D01*
G01*
X89684424Y-73725052D01*
G75*
G02*
X89402735Y-73907983I-232310J49379D01*
G01*
X88815847Y-73783236D01*
G75*
G02*
X88632916Y-73501547I49379J232310D01*
G01*
G37*
G36*
G01*
X86945612Y-73142899D02*
X87044370Y-72678278D01*
G75*
G02*
X87326059Y-72495347I232310J-49379D01*
G01*
X87912947Y-72620094D01*
G75*
G02*
X88095878Y-72901783I-49379J-232310D01*
G01*
X87997120Y-73366404D01*
G75*
G02*
X87715431Y-73549335I-232310J49379D01*
G01*
X87128543Y-73424588D01*
G75*
G02*
X86945612Y-73142899I49379J232310D01*
G01*
G37*
G36*
G01*
X77291013Y-134299182D02*
X77192255Y-133834561D01*
G75*
G02*
X77375186Y-133552872I232310J49379D01*
G01*
X77962074Y-133428125D01*
G75*
G02*
X78243763Y-133611056I49379J-232310D01*
G01*
X78342521Y-134075677D01*
G75*
G02*
X78159590Y-134357366I-232310J-49379D01*
G01*
X77572702Y-134482113D01*
G75*
G02*
X77291013Y-134299182I-49379J232310D01*
G01*
G37*
G36*
G01*
X75603709Y-134657830D02*
X75504951Y-134193209D01*
G75*
G02*
X75687882Y-133911520I232310J49379D01*
G01*
X76274770Y-133786773D01*
G75*
G02*
X76556459Y-133969704I49379J-232310D01*
G01*
X76655217Y-134434325D01*
G75*
G02*
X76472286Y-134716014I-232310J-49379D01*
G01*
X75885398Y-134840761D01*
G75*
G02*
X75603709Y-134657830I-49379J232310D01*
G01*
G37*
G36*
G01*
X75308987Y-128100818D02*
X75407745Y-128565439D01*
G75*
G02*
X75224814Y-128847128I-232310J-49379D01*
G01*
X74637926Y-128971875D01*
G75*
G02*
X74356237Y-128788944I-49379J232310D01*
G01*
X74257479Y-128324323D01*
G75*
G02*
X74440410Y-128042634I232310J49379D01*
G01*
X75027298Y-127917887D01*
G75*
G02*
X75308987Y-128100818I49379J-232310D01*
G01*
G37*
G36*
G01*
X76996291Y-127742170D02*
X77095049Y-128206791D01*
G75*
G02*
X76912118Y-128488480I-232310J-49379D01*
G01*
X76325230Y-128613227D01*
G75*
G02*
X76043541Y-128430296I-49379J232310D01*
G01*
X75944783Y-127965675D01*
G75*
G02*
X76127714Y-127683986I232310J49379D01*
G01*
X76714602Y-127559239D01*
G75*
G02*
X76996291Y-127742170I49379J-232310D01*
G01*
G37*
G36*
G01*
X74461631Y-118885793D02*
X74411980Y-118413396D01*
G75*
G02*
X74623353Y-118152371I236199J24826D01*
G01*
X75220066Y-118089654D01*
G75*
G02*
X75481091Y-118301027I24826J-236199D01*
G01*
X75530742Y-118773424D01*
G75*
G02*
X75319369Y-119034449I-236199J-24826D01*
G01*
X74722656Y-119097166D01*
G75*
G02*
X74461631Y-118885793I-24826J236199D01*
G01*
G37*
G36*
G01*
X72746081Y-119066105D02*
X72696430Y-118593708D01*
G75*
G02*
X72907803Y-118332683I236199J24826D01*
G01*
X73504516Y-118269966D01*
G75*
G02*
X73765541Y-118481339I24826J-236199D01*
G01*
X73815192Y-118953736D01*
G75*
G02*
X73603819Y-119214761I-236199J-24826D01*
G01*
X73007106Y-119277478D01*
G75*
G02*
X72746081Y-119066105I-24826J236199D01*
G01*
G37*
G36*
G01*
X73138369Y-112514207D02*
X73188020Y-112986604D01*
G75*
G02*
X72976647Y-113247629I-236199J-24826D01*
G01*
X72379934Y-113310346D01*
G75*
G02*
X72118909Y-113098973I-24826J236199D01*
G01*
X72069258Y-112626576D01*
G75*
G02*
X72280631Y-112365551I236199J24826D01*
G01*
X72877344Y-112302834D01*
G75*
G02*
X73138369Y-112514207I24826J-236199D01*
G01*
G37*
G36*
G01*
X74853919Y-112333895D02*
X74903570Y-112806292D01*
G75*
G02*
X74692197Y-113067317I-236199J-24826D01*
G01*
X74095484Y-113130034D01*
G75*
G02*
X73834459Y-112918661I-24826J236199D01*
G01*
X73784808Y-112446264D01*
G75*
G02*
X73996181Y-112185239I236199J24826D01*
G01*
X74592894Y-112122522D01*
G75*
G02*
X74853919Y-112333895I24826J-236199D01*
G01*
G37*
G36*
G01*
X73325000Y-103237500D02*
X73325000Y-102762500D01*
G75*
G02*
X73562500Y-102525000I237500J0D01*
G01*
X74162500Y-102525000D01*
G75*
G02*
X74400000Y-102762500I0J-237500D01*
G01*
X74400000Y-103237500D01*
G75*
G02*
X74162500Y-103475000I-237500J0D01*
G01*
X73562500Y-103475000D01*
G75*
G02*
X73325000Y-103237500I0J237500D01*
G01*
G37*
G36*
G01*
X71600000Y-103237500D02*
X71600000Y-102762500D01*
G75*
G02*
X71837500Y-102525000I237500J0D01*
G01*
X72437500Y-102525000D01*
G75*
G02*
X72675000Y-102762500I0J-237500D01*
G01*
X72675000Y-103237500D01*
G75*
G02*
X72437500Y-103475000I-237500J0D01*
G01*
X71837500Y-103475000D01*
G75*
G02*
X71600000Y-103237500I0J237500D01*
G01*
G37*
G36*
G01*
X72675000Y-96762500D02*
X72675000Y-97237500D01*
G75*
G02*
X72437500Y-97475000I-237500J0D01*
G01*
X71837500Y-97475000D01*
G75*
G02*
X71600000Y-97237500I0J237500D01*
G01*
X71600000Y-96762500D01*
G75*
G02*
X71837500Y-96525000I237500J0D01*
G01*
X72437500Y-96525000D01*
G75*
G02*
X72675000Y-96762500I0J-237500D01*
G01*
G37*
G36*
G01*
X74400000Y-96762500D02*
X74400000Y-97237500D01*
G75*
G02*
X74162500Y-97475000I-237500J0D01*
G01*
X73562500Y-97475000D01*
G75*
G02*
X73325000Y-97237500I0J237500D01*
G01*
X73325000Y-96762500D01*
G75*
G02*
X73562500Y-96525000I237500J0D01*
G01*
X74162500Y-96525000D01*
G75*
G02*
X74400000Y-96762500I0J-237500D01*
G01*
G37*
G36*
G01*
X73784808Y-87553736D02*
X73834459Y-87081339D01*
G75*
G02*
X74095484Y-86869966I236199J-24826D01*
G01*
X74692197Y-86932683D01*
G75*
G02*
X74903570Y-87193708I-24826J-236199D01*
G01*
X74853919Y-87666105D01*
G75*
G02*
X74592894Y-87877478I-236199J24826D01*
G01*
X73996181Y-87814761D01*
G75*
G02*
X73784808Y-87553736I24826J236199D01*
G01*
G37*
G36*
G01*
X72069258Y-87373424D02*
X72118909Y-86901027D01*
G75*
G02*
X72379934Y-86689654I236199J-24826D01*
G01*
X72976647Y-86752371D01*
G75*
G02*
X73188020Y-87013396I-24826J-236199D01*
G01*
X73138369Y-87485793D01*
G75*
G02*
X72877344Y-87697166I-236199J24826D01*
G01*
X72280631Y-87634449D01*
G75*
G02*
X72069258Y-87373424I24826J236199D01*
G01*
G37*
G36*
G01*
X73815192Y-81046264D02*
X73765541Y-81518661D01*
G75*
G02*
X73504516Y-81730034I-236199J24826D01*
G01*
X72907803Y-81667317D01*
G75*
G02*
X72696430Y-81406292I24826J236199D01*
G01*
X72746081Y-80933895D01*
G75*
G02*
X73007106Y-80722522I236199J-24826D01*
G01*
X73603819Y-80785239D01*
G75*
G02*
X73815192Y-81046264I-24826J-236199D01*
G01*
G37*
G36*
G01*
X75530742Y-81226576D02*
X75481091Y-81698973D01*
G75*
G02*
X75220066Y-81910346I-236199J24826D01*
G01*
X74623353Y-81847629D01*
G75*
G02*
X74411980Y-81586604I24826J236199D01*
G01*
X74461631Y-81114207D01*
G75*
G02*
X74722656Y-80902834I236199J-24826D01*
G01*
X75319369Y-80965551D01*
G75*
G02*
X75530742Y-81226576I-24826J-236199D01*
G01*
G37*
G36*
G01*
X75944783Y-72034325D02*
X76043541Y-71569704D01*
G75*
G02*
X76325230Y-71386773I232310J-49379D01*
G01*
X76912118Y-71511520D01*
G75*
G02*
X77095049Y-71793209I-49379J-232310D01*
G01*
X76996291Y-72257830D01*
G75*
G02*
X76714602Y-72440761I-232310J49379D01*
G01*
X76127714Y-72316014D01*
G75*
G02*
X75944783Y-72034325I49379J232310D01*
G01*
G37*
G36*
G01*
X74257479Y-71675677D02*
X74356237Y-71211056D01*
G75*
G02*
X74637926Y-71028125I232310J-49379D01*
G01*
X75224814Y-71152872D01*
G75*
G02*
X75407745Y-71434561I-49379J-232310D01*
G01*
X75308987Y-71899182D01*
G75*
G02*
X75027298Y-72082113I-232310J49379D01*
G01*
X74440410Y-71957366D01*
G75*
G02*
X74257479Y-71675677I49379J232310D01*
G01*
G37*
G36*
G01*
X75632916Y-73501547D02*
X75731674Y-73036926D01*
G75*
G02*
X76013363Y-72853995I232310J-49379D01*
G01*
X76600251Y-72978742D01*
G75*
G02*
X76783182Y-73260431I-49379J-232310D01*
G01*
X76684424Y-73725052D01*
G75*
G02*
X76402735Y-73907983I-232310J49379D01*
G01*
X75815847Y-73783236D01*
G75*
G02*
X75632916Y-73501547I49379J232310D01*
G01*
G37*
G36*
G01*
X73945612Y-73142899D02*
X74044370Y-72678278D01*
G75*
G02*
X74326059Y-72495347I232310J-49379D01*
G01*
X74912947Y-72620094D01*
G75*
G02*
X75095878Y-72901783I-49379J-232310D01*
G01*
X74997120Y-73366404D01*
G75*
G02*
X74715431Y-73549335I-232310J49379D01*
G01*
X74128543Y-73424588D01*
G75*
G02*
X73945612Y-73142899I49379J232310D01*
G01*
G37*
G36*
G01*
X64973265Y-132362512D02*
X63907084Y-132589135D01*
G75*
G02*
X63782548Y-132508261I-21831J102705D01*
G01*
X63738887Y-132302850D01*
G75*
G02*
X63819761Y-132178314I102705J21831D01*
G01*
X64885942Y-131951691D01*
G75*
G02*
X65010478Y-132032565I21831J-102705D01*
G01*
X65054139Y-132237976D01*
G75*
G02*
X64973265Y-132362512I-102705J-21831D01*
G01*
G37*
G36*
G01*
X64796541Y-131531086D02*
X63730360Y-131757709D01*
G75*
G02*
X63605824Y-131676835I-21831J102705D01*
G01*
X63562163Y-131471424D01*
G75*
G02*
X63643037Y-131346888I102705J21831D01*
G01*
X64709218Y-131120265D01*
G75*
G02*
X64833754Y-131201139I21831J-102705D01*
G01*
X64877415Y-131406550D01*
G75*
G02*
X64796541Y-131531086I-102705J-21831D01*
G01*
G37*
G36*
G01*
X64619816Y-130699661D02*
X63553635Y-130926284D01*
G75*
G02*
X63429099Y-130845410I-21831J102705D01*
G01*
X63385438Y-130639999D01*
G75*
G02*
X63466312Y-130515463I102705J21831D01*
G01*
X64532493Y-130288840D01*
G75*
G02*
X64657029Y-130369714I21831J-102705D01*
G01*
X64700690Y-130575125D01*
G75*
G02*
X64619816Y-130699661I-102705J-21831D01*
G01*
G37*
G36*
G01*
X64443091Y-129868235D02*
X63376910Y-130094858D01*
G75*
G02*
X63252374Y-130013984I-21831J102705D01*
G01*
X63208713Y-129808573D01*
G75*
G02*
X63289587Y-129684037I102705J21831D01*
G01*
X64355768Y-129457414D01*
G75*
G02*
X64480304Y-129538288I21831J-102705D01*
G01*
X64523965Y-129743699D01*
G75*
G02*
X64443091Y-129868235I-102705J-21831D01*
G01*
G37*
G36*
G01*
X61626735Y-130037488D02*
X62692916Y-129810865D01*
G75*
G02*
X62817452Y-129891739I21831J-102705D01*
G01*
X62861113Y-130097150D01*
G75*
G02*
X62780239Y-130221686I-102705J-21831D01*
G01*
X61714058Y-130448309D01*
G75*
G02*
X61589522Y-130367435I-21831J102705D01*
G01*
X61545861Y-130162024D01*
G75*
G02*
X61626735Y-130037488I102705J21831D01*
G01*
G37*
G36*
G01*
X61803459Y-130868914D02*
X62869640Y-130642291D01*
G75*
G02*
X62994176Y-130723165I21831J-102705D01*
G01*
X63037837Y-130928576D01*
G75*
G02*
X62956963Y-131053112I-102705J-21831D01*
G01*
X61890782Y-131279735D01*
G75*
G02*
X61766246Y-131198861I-21831J102705D01*
G01*
X61722585Y-130993450D01*
G75*
G02*
X61803459Y-130868914I102705J21831D01*
G01*
G37*
G36*
G01*
X61980184Y-131700339D02*
X63046365Y-131473716D01*
G75*
G02*
X63170901Y-131554590I21831J-102705D01*
G01*
X63214562Y-131760001D01*
G75*
G02*
X63133688Y-131884537I-102705J-21831D01*
G01*
X62067507Y-132111160D01*
G75*
G02*
X61942971Y-132030286I-21831J102705D01*
G01*
X61899310Y-131824875D01*
G75*
G02*
X61980184Y-131700339I102705J21831D01*
G01*
G37*
G36*
G01*
X62156909Y-132531765D02*
X63223090Y-132305142D01*
G75*
G02*
X63347626Y-132386016I21831J-102705D01*
G01*
X63391287Y-132591427D01*
G75*
G02*
X63310413Y-132715963I-102705J-21831D01*
G01*
X62244232Y-132942586D01*
G75*
G02*
X62119696Y-132861712I-21831J102705D01*
G01*
X62076035Y-132656301D01*
G75*
G02*
X62156909Y-132531765I102705J21831D01*
G01*
G37*
G36*
G01*
X62342583Y-117031048D02*
X61258554Y-117144984D01*
G75*
G02*
X61143154Y-117051534I-10975J104425D01*
G01*
X61121203Y-116842684D01*
G75*
G02*
X61214653Y-116727284I104425J10975D01*
G01*
X62298682Y-116613348D01*
G75*
G02*
X62414082Y-116706798I10975J-104425D01*
G01*
X62436033Y-116915648D01*
G75*
G02*
X62342583Y-117031048I-104425J-10975D01*
G01*
G37*
G36*
G01*
X62253733Y-116185704D02*
X61169704Y-116299640D01*
G75*
G02*
X61054304Y-116206190I-10975J104425D01*
G01*
X61032353Y-115997340D01*
G75*
G02*
X61125803Y-115881940I104425J10975D01*
G01*
X62209832Y-115768004D01*
G75*
G02*
X62325232Y-115861454I10975J-104425D01*
G01*
X62347183Y-116070304D01*
G75*
G02*
X62253733Y-116185704I-104425J-10975D01*
G01*
G37*
G36*
G01*
X62164884Y-115340361D02*
X61080855Y-115454297D01*
G75*
G02*
X60965455Y-115360847I-10975J104425D01*
G01*
X60943504Y-115151997D01*
G75*
G02*
X61036954Y-115036597I104425J10975D01*
G01*
X62120983Y-114922661D01*
G75*
G02*
X62236383Y-115016111I10975J-104425D01*
G01*
X62258334Y-115224961D01*
G75*
G02*
X62164884Y-115340361I-104425J-10975D01*
G01*
G37*
G36*
G01*
X62076035Y-114495017D02*
X60992006Y-114608953D01*
G75*
G02*
X60876606Y-114515503I-10975J104425D01*
G01*
X60854655Y-114306653D01*
G75*
G02*
X60948105Y-114191253I104425J10975D01*
G01*
X62032134Y-114077317D01*
G75*
G02*
X62147534Y-114170767I10975J-104425D01*
G01*
X62169485Y-114379617D01*
G75*
G02*
X62076035Y-114495017I-104425J-10975D01*
G01*
G37*
G36*
G01*
X59257417Y-114368952D02*
X60341446Y-114255016D01*
G75*
G02*
X60456846Y-114348466I10975J-104425D01*
G01*
X60478797Y-114557316D01*
G75*
G02*
X60385347Y-114672716I-104425J-10975D01*
G01*
X59301318Y-114786652D01*
G75*
G02*
X59185918Y-114693202I-10975J104425D01*
G01*
X59163967Y-114484352D01*
G75*
G02*
X59257417Y-114368952I104425J10975D01*
G01*
G37*
G36*
G01*
X59346267Y-115214296D02*
X60430296Y-115100360D01*
G75*
G02*
X60545696Y-115193810I10975J-104425D01*
G01*
X60567647Y-115402660D01*
G75*
G02*
X60474197Y-115518060I-104425J-10975D01*
G01*
X59390168Y-115631996D01*
G75*
G02*
X59274768Y-115538546I-10975J104425D01*
G01*
X59252817Y-115329696D01*
G75*
G02*
X59346267Y-115214296I104425J10975D01*
G01*
G37*
G36*
G01*
X59435116Y-116059639D02*
X60519145Y-115945703D01*
G75*
G02*
X60634545Y-116039153I10975J-104425D01*
G01*
X60656496Y-116248003D01*
G75*
G02*
X60563046Y-116363403I-104425J-10975D01*
G01*
X59479017Y-116477339D01*
G75*
G02*
X59363617Y-116383889I-10975J104425D01*
G01*
X59341666Y-116175039D01*
G75*
G02*
X59435116Y-116059639I104425J10975D01*
G01*
G37*
G36*
G01*
X59523965Y-116904983D02*
X60607994Y-116791047D01*
G75*
G02*
X60723394Y-116884497I10975J-104425D01*
G01*
X60745345Y-117093347D01*
G75*
G02*
X60651895Y-117208747I-104425J-10975D01*
G01*
X59567866Y-117322683D01*
G75*
G02*
X59452466Y-117229233I-10975J104425D01*
G01*
X59430515Y-117020383D01*
G75*
G02*
X59523965Y-116904983I104425J10975D01*
G01*
G37*
G36*
G01*
X61395000Y-101485000D02*
X60305000Y-101485000D01*
G75*
G02*
X60200000Y-101380000I0J105000D01*
G01*
X60200000Y-101170000D01*
G75*
G02*
X60305000Y-101065000I105000J0D01*
G01*
X61395000Y-101065000D01*
G75*
G02*
X61500000Y-101170000I0J-105000D01*
G01*
X61500000Y-101380000D01*
G75*
G02*
X61395000Y-101485000I-105000J0D01*
G01*
G37*
G36*
G01*
X61395000Y-100635000D02*
X60305000Y-100635000D01*
G75*
G02*
X60200000Y-100530000I0J105000D01*
G01*
X60200000Y-100320000D01*
G75*
G02*
X60305000Y-100215000I105000J0D01*
G01*
X61395000Y-100215000D01*
G75*
G02*
X61500000Y-100320000I0J-105000D01*
G01*
X61500000Y-100530000D01*
G75*
G02*
X61395000Y-100635000I-105000J0D01*
G01*
G37*
G36*
G01*
X61395000Y-99785000D02*
X60305000Y-99785000D01*
G75*
G02*
X60200000Y-99680000I0J105000D01*
G01*
X60200000Y-99470000D01*
G75*
G02*
X60305000Y-99365000I105000J0D01*
G01*
X61395000Y-99365000D01*
G75*
G02*
X61500000Y-99470000I0J-105000D01*
G01*
X61500000Y-99680000D01*
G75*
G02*
X61395000Y-99785000I-105000J0D01*
G01*
G37*
G36*
G01*
X61395000Y-98935000D02*
X60305000Y-98935000D01*
G75*
G02*
X60200000Y-98830000I0J105000D01*
G01*
X60200000Y-98620000D01*
G75*
G02*
X60305000Y-98515000I105000J0D01*
G01*
X61395000Y-98515000D01*
G75*
G02*
X61500000Y-98620000I0J-105000D01*
G01*
X61500000Y-98830000D01*
G75*
G02*
X61395000Y-98935000I-105000J0D01*
G01*
G37*
G36*
G01*
X58605000Y-98515000D02*
X59695000Y-98515000D01*
G75*
G02*
X59800000Y-98620000I0J-105000D01*
G01*
X59800000Y-98830000D01*
G75*
G02*
X59695000Y-98935000I-105000J0D01*
G01*
X58605000Y-98935000D01*
G75*
G02*
X58500000Y-98830000I0J105000D01*
G01*
X58500000Y-98620000D01*
G75*
G02*
X58605000Y-98515000I105000J0D01*
G01*
G37*
G36*
G01*
X58605000Y-99365000D02*
X59695000Y-99365000D01*
G75*
G02*
X59800000Y-99470000I0J-105000D01*
G01*
X59800000Y-99680000D01*
G75*
G02*
X59695000Y-99785000I-105000J0D01*
G01*
X58605000Y-99785000D01*
G75*
G02*
X58500000Y-99680000I0J105000D01*
G01*
X58500000Y-99470000D01*
G75*
G02*
X58605000Y-99365000I105000J0D01*
G01*
G37*
G36*
G01*
X58605000Y-100215000D02*
X59695000Y-100215000D01*
G75*
G02*
X59800000Y-100320000I0J-105000D01*
G01*
X59800000Y-100530000D01*
G75*
G02*
X59695000Y-100635000I-105000J0D01*
G01*
X58605000Y-100635000D01*
G75*
G02*
X58500000Y-100530000I0J105000D01*
G01*
X58500000Y-100320000D01*
G75*
G02*
X58605000Y-100215000I105000J0D01*
G01*
G37*
G36*
G01*
X58605000Y-101065000D02*
X59695000Y-101065000D01*
G75*
G02*
X59800000Y-101170000I0J-105000D01*
G01*
X59800000Y-101380000D01*
G75*
G02*
X59695000Y-101485000I-105000J0D01*
G01*
X58605000Y-101485000D01*
G75*
G02*
X58500000Y-101380000I0J105000D01*
G01*
X58500000Y-101170000D01*
G75*
G02*
X58605000Y-101065000I105000J0D01*
G01*
G37*
G36*
G01*
X62032134Y-85922683D02*
X60948105Y-85808747D01*
G75*
G02*
X60854655Y-85693347I10975J104425D01*
G01*
X60876606Y-85484497D01*
G75*
G02*
X60992006Y-85391047I104425J-10975D01*
G01*
X62076035Y-85504983D01*
G75*
G02*
X62169485Y-85620383I-10975J-104425D01*
G01*
X62147534Y-85829233D01*
G75*
G02*
X62032134Y-85922683I-104425J10975D01*
G01*
G37*
G36*
G01*
X62120983Y-85077339D02*
X61036954Y-84963403D01*
G75*
G02*
X60943504Y-84848003I10975J104425D01*
G01*
X60965455Y-84639153D01*
G75*
G02*
X61080855Y-84545703I104425J-10975D01*
G01*
X62164884Y-84659639D01*
G75*
G02*
X62258334Y-84775039I-10975J-104425D01*
G01*
X62236383Y-84983889D01*
G75*
G02*
X62120983Y-85077339I-104425J10975D01*
G01*
G37*
G36*
G01*
X62209832Y-84231996D02*
X61125803Y-84118060D01*
G75*
G02*
X61032353Y-84002660I10975J104425D01*
G01*
X61054304Y-83793810D01*
G75*
G02*
X61169704Y-83700360I104425J-10975D01*
G01*
X62253733Y-83814296D01*
G75*
G02*
X62347183Y-83929696I-10975J-104425D01*
G01*
X62325232Y-84138546D01*
G75*
G02*
X62209832Y-84231996I-104425J10975D01*
G01*
G37*
G36*
G01*
X62298682Y-83386652D02*
X61214653Y-83272716D01*
G75*
G02*
X61121203Y-83157316I10975J104425D01*
G01*
X61143154Y-82948466D01*
G75*
G02*
X61258554Y-82855016I104425J-10975D01*
G01*
X62342583Y-82968952D01*
G75*
G02*
X62436033Y-83084352I-10975J-104425D01*
G01*
X62414082Y-83293202D01*
G75*
G02*
X62298682Y-83386652I-104425J10975D01*
G01*
G37*
G36*
G01*
X59567866Y-82677317D02*
X60651895Y-82791253D01*
G75*
G02*
X60745345Y-82906653I-10975J-104425D01*
G01*
X60723394Y-83115503D01*
G75*
G02*
X60607994Y-83208953I-104425J10975D01*
G01*
X59523965Y-83095017D01*
G75*
G02*
X59430515Y-82979617I10975J104425D01*
G01*
X59452466Y-82770767D01*
G75*
G02*
X59567866Y-82677317I104425J-10975D01*
G01*
G37*
G36*
G01*
X59479017Y-83522661D02*
X60563046Y-83636597D01*
G75*
G02*
X60656496Y-83751997I-10975J-104425D01*
G01*
X60634545Y-83960847D01*
G75*
G02*
X60519145Y-84054297I-104425J10975D01*
G01*
X59435116Y-83940361D01*
G75*
G02*
X59341666Y-83824961I10975J104425D01*
G01*
X59363617Y-83616111D01*
G75*
G02*
X59479017Y-83522661I104425J-10975D01*
G01*
G37*
G36*
G01*
X59390168Y-84368004D02*
X60474197Y-84481940D01*
G75*
G02*
X60567647Y-84597340I-10975J-104425D01*
G01*
X60545696Y-84806190D01*
G75*
G02*
X60430296Y-84899640I-104425J10975D01*
G01*
X59346267Y-84785704D01*
G75*
G02*
X59252817Y-84670304I10975J104425D01*
G01*
X59274768Y-84461454D01*
G75*
G02*
X59390168Y-84368004I104425J-10975D01*
G01*
G37*
G36*
G01*
X59301318Y-85213348D02*
X60385347Y-85327284D01*
G75*
G02*
X60478797Y-85442684I-10975J-104425D01*
G01*
X60456846Y-85651534D01*
G75*
G02*
X60341446Y-85744984I-104425J10975D01*
G01*
X59257417Y-85631048D01*
G75*
G02*
X59163967Y-85515648I10975J104425D01*
G01*
X59185918Y-85306798D01*
G75*
G02*
X59301318Y-85213348I104425J-10975D01*
G01*
G37*
G36*
G01*
X64355768Y-70542586D02*
X63289587Y-70315963D01*
G75*
G02*
X63208713Y-70191427I21831J102705D01*
G01*
X63252374Y-69986016D01*
G75*
G02*
X63376910Y-69905142I102705J-21831D01*
G01*
X64443091Y-70131765D01*
G75*
G02*
X64523965Y-70256301I-21831J-102705D01*
G01*
X64480304Y-70461712D01*
G75*
G02*
X64355768Y-70542586I-102705J21831D01*
G01*
G37*
G36*
G01*
X64532493Y-69711160D02*
X63466312Y-69484537D01*
G75*
G02*
X63385438Y-69360001I21831J102705D01*
G01*
X63429099Y-69154590D01*
G75*
G02*
X63553635Y-69073716I102705J-21831D01*
G01*
X64619816Y-69300339D01*
G75*
G02*
X64700690Y-69424875I-21831J-102705D01*
G01*
X64657029Y-69630286D01*
G75*
G02*
X64532493Y-69711160I-102705J21831D01*
G01*
G37*
G36*
G01*
X64709218Y-68879735D02*
X63643037Y-68653112D01*
G75*
G02*
X63562163Y-68528576I21831J102705D01*
G01*
X63605824Y-68323165D01*
G75*
G02*
X63730360Y-68242291I102705J-21831D01*
G01*
X64796541Y-68468914D01*
G75*
G02*
X64877415Y-68593450I-21831J-102705D01*
G01*
X64833754Y-68798861D01*
G75*
G02*
X64709218Y-68879735I-102705J21831D01*
G01*
G37*
G36*
G01*
X64885942Y-68048309D02*
X63819761Y-67821686D01*
G75*
G02*
X63738887Y-67697150I21831J102705D01*
G01*
X63782548Y-67491739D01*
G75*
G02*
X63907084Y-67410865I102705J-21831D01*
G01*
X64973265Y-67637488D01*
G75*
G02*
X65054139Y-67762024I-21831J-102705D01*
G01*
X65010478Y-67967435D01*
G75*
G02*
X64885942Y-68048309I-102705J21831D01*
G01*
G37*
G36*
G01*
X64291013Y-134299182D02*
X64192255Y-133834561D01*
G75*
G02*
X64375186Y-133552872I232310J49379D01*
G01*
X64962074Y-133428125D01*
G75*
G02*
X65243763Y-133611056I49379J-232310D01*
G01*
X65342521Y-134075677D01*
G75*
G02*
X65159590Y-134357366I-232310J-49379D01*
G01*
X64572702Y-134482113D01*
G75*
G02*
X64291013Y-134299182I-49379J232310D01*
G01*
G37*
G36*
G01*
X62603709Y-134657830D02*
X62504951Y-134193209D01*
G75*
G02*
X62687882Y-133911520I232310J49379D01*
G01*
X63274770Y-133786773D01*
G75*
G02*
X63556459Y-133969704I49379J-232310D01*
G01*
X63655217Y-134434325D01*
G75*
G02*
X63472286Y-134716014I-232310J-49379D01*
G01*
X62885398Y-134840761D01*
G75*
G02*
X62603709Y-134657830I-49379J232310D01*
G01*
G37*
G36*
G01*
X62308987Y-128100818D02*
X62407745Y-128565439D01*
G75*
G02*
X62224814Y-128847128I-232310J-49379D01*
G01*
X61637926Y-128971875D01*
G75*
G02*
X61356237Y-128788944I-49379J232310D01*
G01*
X61257479Y-128324323D01*
G75*
G02*
X61440410Y-128042634I232310J49379D01*
G01*
X62027298Y-127917887D01*
G75*
G02*
X62308987Y-128100818I49379J-232310D01*
G01*
G37*
G36*
G01*
X63996291Y-127742170D02*
X64095049Y-128206791D01*
G75*
G02*
X63912118Y-128488480I-232310J-49379D01*
G01*
X63325230Y-128613227D01*
G75*
G02*
X63043541Y-128430296I-49379J232310D01*
G01*
X62944783Y-127965675D01*
G75*
G02*
X63127714Y-127683986I232310J49379D01*
G01*
X63714602Y-127559239D01*
G75*
G02*
X63996291Y-127742170I49379J-232310D01*
G01*
G37*
G36*
G01*
X61461631Y-118885793D02*
X61411980Y-118413396D01*
G75*
G02*
X61623353Y-118152371I236199J24826D01*
G01*
X62220066Y-118089654D01*
G75*
G02*
X62481091Y-118301027I24826J-236199D01*
G01*
X62530742Y-118773424D01*
G75*
G02*
X62319369Y-119034449I-236199J-24826D01*
G01*
X61722656Y-119097166D01*
G75*
G02*
X61461631Y-118885793I-24826J236199D01*
G01*
G37*
G36*
G01*
X59746081Y-119066105D02*
X59696430Y-118593708D01*
G75*
G02*
X59907803Y-118332683I236199J24826D01*
G01*
X60504516Y-118269966D01*
G75*
G02*
X60765541Y-118481339I24826J-236199D01*
G01*
X60815192Y-118953736D01*
G75*
G02*
X60603819Y-119214761I-236199J-24826D01*
G01*
X60007106Y-119277478D01*
G75*
G02*
X59746081Y-119066105I-24826J236199D01*
G01*
G37*
G36*
G01*
X60138369Y-112514207D02*
X60188020Y-112986604D01*
G75*
G02*
X59976647Y-113247629I-236199J-24826D01*
G01*
X59379934Y-113310346D01*
G75*
G02*
X59118909Y-113098973I-24826J236199D01*
G01*
X59069258Y-112626576D01*
G75*
G02*
X59280631Y-112365551I236199J24826D01*
G01*
X59877344Y-112302834D01*
G75*
G02*
X60138369Y-112514207I24826J-236199D01*
G01*
G37*
G36*
G01*
X61853919Y-112333895D02*
X61903570Y-112806292D01*
G75*
G02*
X61692197Y-113067317I-236199J-24826D01*
G01*
X61095484Y-113130034D01*
G75*
G02*
X60834459Y-112918661I-24826J236199D01*
G01*
X60784808Y-112446264D01*
G75*
G02*
X60996181Y-112185239I236199J24826D01*
G01*
X61592894Y-112122522D01*
G75*
G02*
X61853919Y-112333895I24826J-236199D01*
G01*
G37*
G36*
G01*
X60325000Y-103237500D02*
X60325000Y-102762500D01*
G75*
G02*
X60562500Y-102525000I237500J0D01*
G01*
X61162500Y-102525000D01*
G75*
G02*
X61400000Y-102762500I0J-237500D01*
G01*
X61400000Y-103237500D01*
G75*
G02*
X61162500Y-103475000I-237500J0D01*
G01*
X60562500Y-103475000D01*
G75*
G02*
X60325000Y-103237500I0J237500D01*
G01*
G37*
G36*
G01*
X58600000Y-103237500D02*
X58600000Y-102762500D01*
G75*
G02*
X58837500Y-102525000I237500J0D01*
G01*
X59437500Y-102525000D01*
G75*
G02*
X59675000Y-102762500I0J-237500D01*
G01*
X59675000Y-103237500D01*
G75*
G02*
X59437500Y-103475000I-237500J0D01*
G01*
X58837500Y-103475000D01*
G75*
G02*
X58600000Y-103237500I0J237500D01*
G01*
G37*
G36*
G01*
X59675000Y-96762500D02*
X59675000Y-97237500D01*
G75*
G02*
X59437500Y-97475000I-237500J0D01*
G01*
X58837500Y-97475000D01*
G75*
G02*
X58600000Y-97237500I0J237500D01*
G01*
X58600000Y-96762500D01*
G75*
G02*
X58837500Y-96525000I237500J0D01*
G01*
X59437500Y-96525000D01*
G75*
G02*
X59675000Y-96762500I0J-237500D01*
G01*
G37*
G36*
G01*
X61400000Y-96762500D02*
X61400000Y-97237500D01*
G75*
G02*
X61162500Y-97475000I-237500J0D01*
G01*
X60562500Y-97475000D01*
G75*
G02*
X60325000Y-97237500I0J237500D01*
G01*
X60325000Y-96762500D01*
G75*
G02*
X60562500Y-96525000I237500J0D01*
G01*
X61162500Y-96525000D01*
G75*
G02*
X61400000Y-96762500I0J-237500D01*
G01*
G37*
G36*
G01*
X60784808Y-87553736D02*
X60834459Y-87081339D01*
G75*
G02*
X61095484Y-86869966I236199J-24826D01*
G01*
X61692197Y-86932683D01*
G75*
G02*
X61903570Y-87193708I-24826J-236199D01*
G01*
X61853919Y-87666105D01*
G75*
G02*
X61592894Y-87877478I-236199J24826D01*
G01*
X60996181Y-87814761D01*
G75*
G02*
X60784808Y-87553736I24826J236199D01*
G01*
G37*
G36*
G01*
X59069258Y-87373424D02*
X59118909Y-86901027D01*
G75*
G02*
X59379934Y-86689654I236199J-24826D01*
G01*
X59976647Y-86752371D01*
G75*
G02*
X60188020Y-87013396I-24826J-236199D01*
G01*
X60138369Y-87485793D01*
G75*
G02*
X59877344Y-87697166I-236199J24826D01*
G01*
X59280631Y-87634449D01*
G75*
G02*
X59069258Y-87373424I24826J236199D01*
G01*
G37*
G36*
G01*
X60815192Y-81046264D02*
X60765541Y-81518661D01*
G75*
G02*
X60504516Y-81730034I-236199J24826D01*
G01*
X59907803Y-81667317D01*
G75*
G02*
X59696430Y-81406292I24826J236199D01*
G01*
X59746081Y-80933895D01*
G75*
G02*
X60007106Y-80722522I236199J-24826D01*
G01*
X60603819Y-80785239D01*
G75*
G02*
X60815192Y-81046264I-24826J-236199D01*
G01*
G37*
G36*
G01*
X62530742Y-81226576D02*
X62481091Y-81698973D01*
G75*
G02*
X62220066Y-81910346I-236199J24826D01*
G01*
X61623353Y-81847629D01*
G75*
G02*
X61411980Y-81586604I24826J236199D01*
G01*
X61461631Y-81114207D01*
G75*
G02*
X61722656Y-80902834I236199J-24826D01*
G01*
X62319369Y-80965551D01*
G75*
G02*
X62530742Y-81226576I-24826J-236199D01*
G01*
G37*
G36*
G01*
X62944783Y-72034325D02*
X63043541Y-71569704D01*
G75*
G02*
X63325230Y-71386773I232310J-49379D01*
G01*
X63912118Y-71511520D01*
G75*
G02*
X64095049Y-71793209I-49379J-232310D01*
G01*
X63996291Y-72257830D01*
G75*
G02*
X63714602Y-72440761I-232310J49379D01*
G01*
X63127714Y-72316014D01*
G75*
G02*
X62944783Y-72034325I49379J232310D01*
G01*
G37*
G36*
G01*
X61257479Y-71675677D02*
X61356237Y-71211056D01*
G75*
G02*
X61637926Y-71028125I232310J-49379D01*
G01*
X62224814Y-71152872D01*
G75*
G02*
X62407745Y-71434561I-49379J-232310D01*
G01*
X62308987Y-71899182D01*
G75*
G02*
X62027298Y-72082113I-232310J49379D01*
G01*
X61440410Y-71957366D01*
G75*
G02*
X61257479Y-71675677I49379J232310D01*
G01*
G37*
G36*
G01*
X62632916Y-73501547D02*
X62731674Y-73036926D01*
G75*
G02*
X63013363Y-72853995I232310J-49379D01*
G01*
X63600251Y-72978742D01*
G75*
G02*
X63783182Y-73260431I-49379J-232310D01*
G01*
X63684424Y-73725052D01*
G75*
G02*
X63402735Y-73907983I-232310J49379D01*
G01*
X62815847Y-73783236D01*
G75*
G02*
X62632916Y-73501547I49379J232310D01*
G01*
G37*
G36*
G01*
X60945612Y-73142899D02*
X61044370Y-72678278D01*
G75*
G02*
X61326059Y-72495347I232310J-49379D01*
G01*
X61912947Y-72620094D01*
G75*
G02*
X62095878Y-72901783I-49379J-232310D01*
G01*
X61997120Y-73366404D01*
G75*
G02*
X61715431Y-73549335I-232310J49379D01*
G01*
X61128543Y-73424588D01*
G75*
G02*
X60945612Y-73142899I49379J232310D01*
G01*
G37*
G36*
G01*
X62244232Y-67057414D02*
X63310413Y-67284037D01*
G75*
G02*
X63391287Y-67408573I-21831J-102705D01*
G01*
X63347626Y-67613984D01*
G75*
G02*
X63223090Y-67694858I-102705J21831D01*
G01*
X62156909Y-67468235D01*
G75*
G02*
X62076035Y-67343699I21831J102705D01*
G01*
X62119696Y-67138288D01*
G75*
G02*
X62244232Y-67057414I102705J-21831D01*
G01*
G37*
G36*
G01*
X62067507Y-67888840D02*
X63133688Y-68115463D01*
G75*
G02*
X63214562Y-68239999I-21831J-102705D01*
G01*
X63170901Y-68445410D01*
G75*
G02*
X63046365Y-68526284I-102705J21831D01*
G01*
X61980184Y-68299661D01*
G75*
G02*
X61899310Y-68175125I21831J102705D01*
G01*
X61942971Y-67969714D01*
G75*
G02*
X62067507Y-67888840I102705J-21831D01*
G01*
G37*
G36*
G01*
X61890782Y-68720265D02*
X62956963Y-68946888D01*
G75*
G02*
X63037837Y-69071424I-21831J-102705D01*
G01*
X62994176Y-69276835D01*
G75*
G02*
X62869640Y-69357709I-102705J21831D01*
G01*
X61803459Y-69131086D01*
G75*
G02*
X61722585Y-69006550I21831J102705D01*
G01*
X61766246Y-68801139D01*
G75*
G02*
X61890782Y-68720265I102705J-21831D01*
G01*
G37*
G36*
G01*
X61714058Y-69551691D02*
X62780239Y-69778314D01*
G75*
G02*
X62861113Y-69902850I-21831J-102705D01*
G01*
X62817452Y-70108261D01*
G75*
G02*
X62692916Y-70189135I-102705J21831D01*
G01*
X61626735Y-69962512D01*
G75*
G02*
X61545861Y-69837976I21831J102705D01*
G01*
X61589522Y-69632565D01*
G75*
G02*
X61714058Y-69551691I102705J-21831D01*
G01*
G37*
M02*
