G04 #@! TF.GenerationSoftware,KiCad,Pcbnew,(5.1.10)-1*
G04 #@! TF.CreationDate,2021-11-24T21:38:53+01:00*
G04 #@! TF.ProjectId,pcb,7063622e-6b69-4636-9164-5f7063625858,rev?*
G04 #@! TF.SameCoordinates,Original*
G04 #@! TF.FileFunction,Soldermask,Top*
G04 #@! TF.FilePolarity,Negative*
%FSLAX46Y46*%
G04 Gerber Fmt 4.6, Leading zero omitted, Abs format (unit mm)*
G04 Created by KiCad (PCBNEW (5.1.10)-1) date 2021-11-24 21:38:53*
%MOMM*%
%LPD*%
G01*
G04 APERTURE LIST*
%ADD10C,0.600000*%
%ADD11O,1.700000X1.700000*%
%ADD12R,1.700000X1.700000*%
%ADD13C,1.600000*%
%ADD14O,1.700000X1.000000*%
%ADD15R,1.600000X0.700000*%
%ADD16R,1.600000X0.900000*%
%ADD17R,1.600000X0.800000*%
G04 APERTURE END LIST*
D10*
X50500000Y-60500000D03*
X51300000Y-60500000D03*
X50500000Y-58100000D03*
X51300000Y-58100000D03*
X54500000Y-58100000D03*
X54500000Y-60500000D03*
X52100000Y-58100000D03*
X53700000Y-58100000D03*
X53700000Y-60500000D03*
X52100000Y-60500000D03*
X52900000Y-58100000D03*
X52900000Y-60500000D03*
X50500000Y-144700000D03*
X51300000Y-144700000D03*
X50500000Y-142300000D03*
X51300000Y-142300000D03*
X54500000Y-142300000D03*
X54500000Y-144700000D03*
X52100000Y-142300000D03*
X53700000Y-142300000D03*
X53700000Y-144700000D03*
X52100000Y-144700000D03*
X52900000Y-142300000D03*
X52900000Y-144700000D03*
X125000000Y-144700000D03*
X125800000Y-144700000D03*
X125000000Y-142300000D03*
X125800000Y-142300000D03*
X129000000Y-142300000D03*
X129000000Y-144700000D03*
X126600000Y-142300000D03*
X128200000Y-142300000D03*
X128200000Y-144700000D03*
X126600000Y-144700000D03*
X127400000Y-142300000D03*
X127400000Y-144700000D03*
X125300000Y-60500000D03*
X126100000Y-60500000D03*
X125300000Y-58100000D03*
X126100000Y-58100000D03*
X129300000Y-58100000D03*
X129300000Y-60500000D03*
X126900000Y-58100000D03*
X128500000Y-58100000D03*
X128500000Y-60500000D03*
X126900000Y-60500000D03*
X127700000Y-58100000D03*
X127700000Y-60500000D03*
X145500000Y-144700000D03*
X146300000Y-144700000D03*
X145500000Y-142300000D03*
X146300000Y-142300000D03*
X149500000Y-142300000D03*
X149500000Y-144700000D03*
X147100000Y-142300000D03*
X148700000Y-142300000D03*
X148700000Y-144700000D03*
X147100000Y-144700000D03*
X147900000Y-142300000D03*
X147900000Y-144700000D03*
X145500000Y-60500000D03*
X146300000Y-60500000D03*
X145500000Y-58100000D03*
X146300000Y-58100000D03*
X149500000Y-58100000D03*
X149500000Y-60500000D03*
X147100000Y-58100000D03*
X148700000Y-58100000D03*
X148700000Y-60500000D03*
X147100000Y-60500000D03*
X147900000Y-58100000D03*
X147900000Y-60500000D03*
X139201905Y-120712345D03*
X139327053Y-121502495D03*
X141572357Y-120336902D03*
X141697505Y-121127053D03*
X142198095Y-124287655D03*
X139827643Y-124663098D03*
X141822652Y-121917203D03*
X142072947Y-123497505D03*
X139702495Y-123872947D03*
X139452200Y-122292646D03*
X141947800Y-122707354D03*
X139577348Y-123082797D03*
X139827643Y-75336902D03*
X139702495Y-76127053D03*
X142198095Y-75712345D03*
X142072947Y-76502495D03*
X141572357Y-79663098D03*
X139201905Y-79287655D03*
X141947800Y-77292646D03*
X141697505Y-78872947D03*
X139327053Y-78497505D03*
X139577348Y-76917203D03*
X141822652Y-78082797D03*
X139452200Y-77707354D03*
X52300000Y-98000000D03*
X52300000Y-98800000D03*
X54700000Y-98000000D03*
X54700000Y-98800000D03*
X54700000Y-102000000D03*
X52300000Y-102000000D03*
X54700000Y-99600000D03*
X54700000Y-101200000D03*
X52300000Y-101200000D03*
X52300000Y-99600000D03*
X54700000Y-100400000D03*
X52300000Y-100400000D03*
X53701905Y-120712345D03*
X53827053Y-121502495D03*
X56072357Y-120336902D03*
X56197505Y-121127053D03*
X56698095Y-124287655D03*
X54327643Y-124663098D03*
X56322652Y-121917203D03*
X56572947Y-123497505D03*
X54202495Y-123872947D03*
X53952200Y-122292646D03*
X56447800Y-122707354D03*
X54077348Y-123082797D03*
X54327643Y-75336902D03*
X54202495Y-76127053D03*
X56698095Y-75712345D03*
X56572947Y-76502495D03*
X56072357Y-79663098D03*
X53701905Y-79287655D03*
X56447800Y-77292646D03*
X56197505Y-78872947D03*
X53827053Y-78497505D03*
X54077348Y-76917203D03*
X56322652Y-78082797D03*
X53952200Y-77707354D03*
X126201905Y-120712345D03*
X126327053Y-121502495D03*
X128572357Y-120336902D03*
X128697505Y-121127053D03*
X129198095Y-124287655D03*
X126827643Y-124663098D03*
X128822652Y-121917203D03*
X129072947Y-123497505D03*
X126702495Y-123872947D03*
X126452200Y-122292646D03*
X128947800Y-122707354D03*
X126577348Y-123082797D03*
X126827643Y-75336902D03*
X126702495Y-76127053D03*
X129198095Y-75712345D03*
X129072947Y-76502495D03*
X128572357Y-79663098D03*
X126201905Y-79287655D03*
X128947800Y-77292646D03*
X128697505Y-78872947D03*
X126327053Y-78497505D03*
X126577348Y-76917203D03*
X128822652Y-78082797D03*
X126452200Y-77707354D03*
X117300000Y-98000000D03*
X117300000Y-98800000D03*
X119700000Y-98000000D03*
X119700000Y-98800000D03*
X119700000Y-102000000D03*
X117300000Y-102000000D03*
X119700000Y-99600000D03*
X119700000Y-101200000D03*
X117300000Y-101200000D03*
X117300000Y-99600000D03*
X119700000Y-100400000D03*
X117300000Y-100400000D03*
X118701905Y-120712345D03*
X118827053Y-121502495D03*
X121072357Y-120336902D03*
X121197505Y-121127053D03*
X121698095Y-124287655D03*
X119327643Y-124663098D03*
X121322652Y-121917203D03*
X121572947Y-123497505D03*
X119202495Y-123872947D03*
X118952200Y-122292646D03*
X121447800Y-122707354D03*
X119077348Y-123082797D03*
X119327643Y-75336902D03*
X119202495Y-76127053D03*
X121698095Y-75712345D03*
X121572947Y-76502495D03*
X121072357Y-79663098D03*
X118701905Y-79287655D03*
X121447800Y-77292646D03*
X121197505Y-78872947D03*
X118827053Y-78497505D03*
X119077348Y-76917203D03*
X121322652Y-78082797D03*
X118952200Y-77707354D03*
X104300000Y-98000000D03*
X104300000Y-98800000D03*
X106700000Y-98000000D03*
X106700000Y-98800000D03*
X106700000Y-102000000D03*
X104300000Y-102000000D03*
X106700000Y-99600000D03*
X106700000Y-101200000D03*
X104300000Y-101200000D03*
X104300000Y-99600000D03*
X106700000Y-100400000D03*
X104300000Y-100400000D03*
X105701905Y-120712345D03*
X105827053Y-121502495D03*
X108072357Y-120336902D03*
X108197505Y-121127053D03*
X108698095Y-124287655D03*
X106327643Y-124663098D03*
X108322652Y-121917203D03*
X108572947Y-123497505D03*
X106202495Y-123872947D03*
X105952200Y-122292646D03*
X108447800Y-122707354D03*
X106077348Y-123082797D03*
X106327643Y-75336902D03*
X106202495Y-76127053D03*
X108698095Y-75712345D03*
X108572947Y-76502495D03*
X108072357Y-79663098D03*
X105701905Y-79287655D03*
X108447800Y-77292646D03*
X108197505Y-78872947D03*
X105827053Y-78497505D03*
X106077348Y-76917203D03*
X108322652Y-78082797D03*
X105952200Y-77707354D03*
X91300000Y-98000000D03*
X91300000Y-98800000D03*
X93700000Y-98000000D03*
X93700000Y-98800000D03*
X93700000Y-102000000D03*
X91300000Y-102000000D03*
X93700000Y-99600000D03*
X93700000Y-101200000D03*
X91300000Y-101200000D03*
X91300000Y-99600000D03*
X93700000Y-100400000D03*
X91300000Y-100400000D03*
X92701905Y-120712345D03*
X92827053Y-121502495D03*
X95072357Y-120336902D03*
X95197505Y-121127053D03*
X95698095Y-124287655D03*
X93327643Y-124663098D03*
X95322652Y-121917203D03*
X95572947Y-123497505D03*
X93202495Y-123872947D03*
X92952200Y-122292646D03*
X95447800Y-122707354D03*
X93077348Y-123082797D03*
X93327643Y-75336902D03*
X93202495Y-76127053D03*
X95698095Y-75712345D03*
X95572947Y-76502495D03*
X95072357Y-79663098D03*
X92701905Y-79287655D03*
X95447800Y-77292646D03*
X95197505Y-78872947D03*
X92827053Y-78497505D03*
X93077348Y-76917203D03*
X95322652Y-78082797D03*
X92952200Y-77707354D03*
X78300000Y-98000000D03*
X78300000Y-98800000D03*
X80700000Y-98000000D03*
X80700000Y-98800000D03*
X80700000Y-102000000D03*
X78300000Y-102000000D03*
X80700000Y-99600000D03*
X80700000Y-101200000D03*
X78300000Y-101200000D03*
X78300000Y-99600000D03*
X80700000Y-100400000D03*
X78300000Y-100400000D03*
X79701905Y-120712345D03*
X79827053Y-121502495D03*
X82072357Y-120336902D03*
X82197505Y-121127053D03*
X82698095Y-124287655D03*
X80327643Y-124663098D03*
X82322652Y-121917203D03*
X82572947Y-123497505D03*
X80202495Y-123872947D03*
X79952200Y-122292646D03*
X82447800Y-122707354D03*
X80077348Y-123082797D03*
X80327643Y-75336902D03*
X80202495Y-76127053D03*
X82698095Y-75712345D03*
X82572947Y-76502495D03*
X82072357Y-79663098D03*
X79701905Y-79287655D03*
X82447800Y-77292646D03*
X82197505Y-78872947D03*
X79827053Y-78497505D03*
X80077348Y-76917203D03*
X82322652Y-78082797D03*
X79952200Y-77707354D03*
X66701905Y-120712345D03*
X66827053Y-121502495D03*
X69072357Y-120336902D03*
X69197505Y-121127053D03*
X69698095Y-124287655D03*
X67327643Y-124663098D03*
X69322652Y-121917203D03*
X69572947Y-123497505D03*
X67202495Y-123872947D03*
X66952200Y-122292646D03*
X69447800Y-122707354D03*
X67077348Y-123082797D03*
X67327643Y-75336902D03*
X67202495Y-76127053D03*
X69698095Y-75712345D03*
X69572947Y-76502495D03*
X69072357Y-79663098D03*
X66701905Y-79287655D03*
X69447800Y-77292646D03*
X69197505Y-78872947D03*
X66827053Y-78497505D03*
X67077348Y-76917203D03*
X69322652Y-78082797D03*
X66952200Y-77707354D03*
X65300000Y-98000000D03*
X65300000Y-98800000D03*
X67700000Y-98000000D03*
X67700000Y-98800000D03*
X67700000Y-102000000D03*
X65300000Y-102000000D03*
X67700000Y-99600000D03*
X67700000Y-101200000D03*
X65300000Y-101200000D03*
X65300000Y-99600000D03*
X67700000Y-100400000D03*
X65300000Y-100400000D03*
D11*
X129060000Y-103820000D03*
X131600000Y-103820000D03*
X129060000Y-101280000D03*
X131600000Y-101280000D03*
X129060000Y-98740000D03*
X131600000Y-98740000D03*
X129060000Y-96200000D03*
D12*
X131600000Y-96200000D03*
D13*
X76063443Y-64743647D03*
X75409029Y-62549509D03*
X79755695Y-63714195D03*
X74719260Y-60294133D03*
X78091887Y-65287167D03*
X81480740Y-62105867D03*
X137704706Y-142861285D03*
X136237550Y-141442675D03*
X140101254Y-140407399D03*
X140980740Y-137894133D03*
X139539965Y-142369529D03*
X134219260Y-139705867D03*
X117204706Y-142861285D03*
X115737550Y-141442675D03*
X119601254Y-140407399D03*
X120480740Y-137894133D03*
X119039965Y-142369529D03*
X113719260Y-139705867D03*
X104204706Y-142861285D03*
X102737550Y-141442675D03*
X106601254Y-140407399D03*
X107480740Y-137894133D03*
X106039965Y-142369529D03*
X100719260Y-139705867D03*
X91204706Y-142861285D03*
X89737550Y-141442675D03*
X93601254Y-140407399D03*
X94480740Y-137894133D03*
X93039965Y-142369529D03*
X87719260Y-139705867D03*
X78204706Y-142861285D03*
X76737550Y-141442675D03*
X80601254Y-140407399D03*
X81480740Y-137894133D03*
X80039965Y-142369529D03*
X74719260Y-139705867D03*
X65204706Y-142861285D03*
X63737550Y-141442675D03*
X67601254Y-140407399D03*
X68480740Y-137894133D03*
X67039965Y-142369529D03*
X61719260Y-139705867D03*
X135563443Y-64743647D03*
X134909029Y-62549509D03*
X139255695Y-63714195D03*
X134219260Y-60294133D03*
X137591887Y-65287167D03*
X140980740Y-62105867D03*
X115063443Y-64743647D03*
X114409029Y-62549509D03*
X118755695Y-63714195D03*
X113719260Y-60294133D03*
X117091887Y-65287167D03*
X120480740Y-62105867D03*
X102063443Y-64743647D03*
X101409029Y-62549509D03*
X105755695Y-63714195D03*
X100719260Y-60294133D03*
X104091887Y-65287167D03*
X107480740Y-62105867D03*
X89063443Y-64743647D03*
X88409029Y-62549509D03*
X92755695Y-63714195D03*
X87719260Y-60294133D03*
X91091887Y-65287167D03*
X94480740Y-62105867D03*
X63063443Y-64743647D03*
X62409029Y-62549509D03*
X66755695Y-63714195D03*
X61719260Y-60294133D03*
X65091887Y-65287167D03*
X68480740Y-62105867D03*
D14*
X122600000Y-104320000D03*
X122600000Y-95680000D03*
X126400000Y-95680000D03*
X126400000Y-104320000D03*
D15*
X126580000Y-100500000D03*
X126580000Y-99500000D03*
D16*
X126580000Y-102750000D03*
X126580000Y-97250000D03*
D17*
X126580000Y-98480000D03*
X126580000Y-101520000D03*
D11*
X126520000Y-108800000D03*
X129060000Y-108800000D03*
D12*
X131600000Y-108800000D03*
M02*
