M48
; DRILL file {KiCad (5.1.10)-1} date 11/24/21 21:39:00
; FORMAT={-:-/ absolute / metric / decimal}
; #@! TF.CreationDate,2021-11-24T21:39:00+01:00
; #@! TF.GenerationSoftware,Kicad,Pcbnew,(5.1.10)-1
; #@! TF.FileFunction,Plated,1,2,PTH
FMAT,2
METRIC
T1C0.200
T2C0.500
T3C0.800
T4C1.000
%
G90
G05
T1
X58.35Y-101.0
X59.055Y-85.122
X59.264Y-116.867
X59.7Y-97.6
X60.251Y-113.345
X60.3Y-102.4
X60.753Y-81.882
X60.847Y-86.718
X61.349Y-118.055
X61.478Y-69.435
X61.65Y-100.7
X61.894Y-132.521
X62.368Y-85.169
X62.508Y-128.915
X62.514Y-116.224
X63.094Y-71.21
X63.458Y-67.096
X64.092Y-133.485
X64.768Y-69.828
X65.059Y-131.542
X71.35Y-101.0
X72.055Y-85.122
X72.264Y-116.867
X72.7Y-97.6
X73.251Y-113.345
X73.3Y-102.4
X73.753Y-81.882
X73.847Y-86.718
X74.349Y-118.055
X74.478Y-69.435
X74.65Y-100.7
X74.894Y-132.521
X75.368Y-85.169
X75.508Y-128.915
X75.514Y-116.224
X76.094Y-71.21
X76.458Y-67.096
X77.092Y-133.485
X77.768Y-69.828
X78.059Y-131.542
X84.35Y-101.0
X85.055Y-85.122
X85.264Y-116.867
X85.7Y-97.6
X86.251Y-113.345
X86.3Y-102.4
X86.753Y-81.882
X86.847Y-86.718
X87.349Y-118.055
X87.478Y-69.435
X87.65Y-100.7
X87.894Y-132.521
X88.368Y-85.169
X88.508Y-128.915
X88.514Y-116.224
X89.094Y-71.21
X89.458Y-67.096
X90.092Y-133.485
X90.768Y-69.828
X91.059Y-131.542
X97.35Y-101.0
X98.055Y-85.122
X98.264Y-116.867
X98.7Y-97.6
X99.251Y-113.345
X99.3Y-102.4
X99.753Y-81.882
X99.847Y-86.718
X100.349Y-118.055
X100.478Y-69.435
X100.65Y-100.7
X100.894Y-132.521
X101.368Y-85.169
X101.508Y-128.915
X101.514Y-116.224
X102.094Y-71.21
X102.458Y-67.096
X103.092Y-133.485
X103.768Y-69.828
X104.059Y-131.542
X110.35Y-101.0
X111.055Y-85.122
X111.264Y-116.867
X111.7Y-97.6
X112.251Y-113.345
X112.3Y-102.4
X112.753Y-81.882
X112.847Y-86.718
X113.349Y-118.055
X113.478Y-69.435
X113.65Y-100.7
X113.894Y-132.521
X114.368Y-85.169
X114.508Y-128.915
X114.514Y-116.224
X115.094Y-71.21
X115.458Y-67.096
X116.092Y-133.485
X116.768Y-69.828
X117.059Y-131.542
X124.4Y-91.6
X124.7Y-98.7
X125.3Y-97.8
X125.3Y-102.2
X127.2Y-94.8
X127.8Y-99.0
X127.8Y-99.5
X127.8Y-100.0
X127.8Y-100.5
X127.8Y-101.0
X129.0Y-107.0
X129.8Y-107.0
X131.555Y-85.122
X131.764Y-116.867
X132.751Y-113.345
X133.253Y-81.882
X133.347Y-86.718
X133.849Y-118.055
X133.978Y-69.435
X134.1Y-90.0
X134.394Y-132.521
X134.5Y-89.6
X134.868Y-85.169
X134.9Y-90.0
X135.0Y-110.2
X135.008Y-128.915
X135.014Y-116.224
X135.594Y-71.21
X135.958Y-67.096
X136.592Y-133.485
X137.268Y-69.828
X137.559Y-131.542
X138.7Y-100.6
X141.7Y-98.7
T3
X61.719Y-60.294
X61.719Y-139.706
X62.409Y-62.55
X63.063Y-64.744
X63.738Y-141.443
X65.092Y-65.287
X65.205Y-142.861
X66.756Y-63.714
X67.04Y-142.37
X67.601Y-140.407
X68.481Y-62.106
X68.481Y-137.894
X74.719Y-60.294
X74.719Y-139.706
X75.409Y-62.55
X76.063Y-64.744
X76.738Y-141.443
X78.092Y-65.287
X78.205Y-142.861
X79.756Y-63.714
X80.04Y-142.37
X80.601Y-140.407
X81.481Y-62.106
X81.481Y-137.894
X87.719Y-60.294
X87.719Y-139.706
X88.409Y-62.55
X89.063Y-64.744
X89.738Y-141.443
X91.092Y-65.287
X91.205Y-142.861
X92.756Y-63.714
X93.04Y-142.37
X93.601Y-140.407
X94.481Y-62.106
X94.481Y-137.894
X100.719Y-60.294
X100.719Y-139.706
X101.409Y-62.55
X102.063Y-64.744
X102.738Y-141.443
X104.092Y-65.287
X104.205Y-142.861
X105.756Y-63.714
X106.04Y-142.37
X106.601Y-140.407
X107.481Y-62.106
X107.481Y-137.894
X113.719Y-60.294
X113.719Y-139.706
X114.409Y-62.55
X115.063Y-64.744
X115.738Y-141.443
X117.092Y-65.287
X117.205Y-142.861
X118.756Y-63.714
X119.04Y-142.37
X119.601Y-140.407
X120.481Y-62.106
X120.481Y-137.894
X134.219Y-60.294
X134.219Y-139.706
X134.909Y-62.55
X135.563Y-64.744
X136.238Y-141.443
X137.592Y-65.287
X137.705Y-142.861
X139.256Y-63.714
X139.54Y-142.37
X140.101Y-140.407
X140.981Y-62.106
X140.981Y-137.894
T4
X126.52Y-108.8
X129.06Y-96.2
X129.06Y-98.74
X129.06Y-101.28
X129.06Y-103.82
X129.06Y-108.8
X131.6Y-96.2
X131.6Y-98.74
X131.6Y-101.28
X131.6Y-103.82
X131.6Y-108.8
T2
X122.95Y-95.68G85X122.25Y-95.68
G05
X122.95Y-104.32G85X122.25Y-104.32
G05
X126.75Y-95.68G85X126.05Y-95.68
G05
X126.75Y-104.32G85X126.05Y-104.32
G05
T0
M30
